<?xml version="1.0" encoding="UTF-8" standalone="no"?><svg xmlns="http://www.w3.org/2000/svg" xmlns:xlink="http://www.w3.org/1999/xlink" clip-rule="evenodd" stroke-miterlimit="4.00" viewBox="0 0 1024 768"><desc>SVG generated by Keynote</desc><defs><pattern id="35D1446E-1EF1-4D8D-B4A0-7B9B887DBC2A" patternUnits="userSpaceOnUse" width="200" height="200" viewBox="0 0 200 200" patternTransform="matrix(1.000000, 0.000000, 0.000000, -1.000000, 29.000000, 500.000000)"><image xlink:href="../../FCA03765-73DA-459D-BAA1-B50138488ABF/assets/F58BD5C0A762FE6A8E457B33CA528205.jpeg" width="200.00" height="200.00"></image></pattern><pattern id="684E7AB2-4AFA-466B-BB27-CFEF510338CA" patternUnits="userSpaceOnUse" width="200" height="200" viewBox="0 0 200 200" patternTransform="matrix(1.000000, 0.000000, 0.000000, -1.000000, 29.000000, 401.000000)"><image xlink:href="../../FCA03765-73DA-459D-BAA1-B50138488ABF/assets/F58BD5C0A762FE6A8E457B33CA528205.jpeg" width="200.00" height="200.00"></image></pattern><pattern id="C55D5E14-DB96-465B-BB60-3F32BB580E7C" patternUnits="userSpaceOnUse" width="200" height="200" viewBox="0 0 200 200" patternTransform="matrix(1.000000, 0.000000, 0.000000, -1.000000, 29.000000, 302.000000)"><image xlink:href="../../FCA03765-73DA-459D-BAA1-B50138488ABF/assets/F58BD5C0A762FE6A8E457B33CA528205.jpeg" width="200.00" height="200.00"></image></pattern><pattern id="3927949A-8B22-4F6F-BEB5-CD5344B42AC2" patternUnits="userSpaceOnUse" width="200" height="200" viewBox="0 0 200 200" patternTransform="matrix(1.000000, 0.000000, 0.000000, -1.000000, 29.000000, 203.000000)"><image xlink:href="../../FCA03765-73DA-459D-BAA1-B50138488ABF/assets/F58BD5C0A762FE6A8E457B33CA528205.jpeg" width="200.00" height="200.00"></image></pattern></defs><g transform="matrix(1.00, 0.00, -0.00, -1.00, 0.0, 768.0)"><g><clipPath id="clip-69"><path d="M 0.0 768.0 L 1024.0 768.0 L 1024.0 0.0 L 0.0 0.0 Z M 0.0 768.0 "></path></clipPath><g clip-path="url(#clip-69)"><image xlink:href="../../293415CD-D1BA-41BB-8703-BAEDA9FFCE27/assets/D3CB8578D364082F6943B53F933CCC32.jpeg" width="1024.00" height="768.00" transform="matrix(1.00, 0.00, -0.00, -1.00, 0.0, 768.0)"></image></g></g><path d="M 0.0 0.0 L 964.1 0.0 L 964.1 82.3 L 0.0 82.3 Z M 0.0 0.0 " fill="none" stroke="#7F8685" stroke-width="1.00" transform="matrix(1.00, 0.00, 0.00, -1.00, 30.0, 748.0)"></path><g><clipPath id="clip-70"><path d="M 24.2 666.7 L 999.8 666.7 L 999.8 747.0 L 24.2 747.0 Z M 24.2 666.7 "></path></clipPath><g clip-path="url(#clip-70)"><text xml:space="preserve" font-family="GillSans-Light" font-size="38.0" fill="#525252" transform="matrix(1.00, 0.00, -0.00, -1.00, 242.0, 694.0)">D</text><text xml:space="preserve" font-family="GillSans-Light" font-size="38.0" fill="#525252" transform="matrix(1.00, 0.00, -0.00, -1.00, 270.1, 694.0)">i</text><text xml:space="preserve" font-family="GillSans-Light" font-size="38.0" fill="#525252" transform="matrix(1.00, 0.00, -0.00, -1.00, 277.3, 694.0)">m</text><text xml:space="preserve" font-family="GillSans-Light" font-size="38.0" fill="#525252" transform="matrix(1.00, 0.00, -0.00, -1.00, 306.6, 694.0)">e</text><text xml:space="preserve" font-family="GillSans-Light" font-size="38.0" fill="#525252" transform="matrix(1.00, 0.00, -0.00, -1.00, 324.8, 694.0)">n</text><text xml:space="preserve" font-family="GillSans-Light" font-size="38.0" fill="#525252" transform="matrix(1.00, 0.00, -0.00, -1.00, 343.4, 694.0)">s</text><text xml:space="preserve" font-family="GillSans-Light" font-size="38.0" fill="#525252" transform="matrix(1.00, 0.00, -0.00, -1.00, 356.9, 694.0)">i</text><text xml:space="preserve" font-family="GillSans-Light" font-size="38.0" fill="#525252" transform="matrix(1.00, 0.00, -0.00, -1.00, 364.0, 694.0)">o</text><text xml:space="preserve" font-family="GillSans-Light" font-size="38.0" fill="#525252" transform="matrix(1.00, 0.00, -0.00, -1.00, 384.6, 694.0)">n</text><text xml:space="preserve" font-family="GillSans-Light" font-size="38.0" fill="#525252" transform="matrix(1.00, 0.00, -0.00, -1.00, 403.2, 694.0)">n</text><text xml:space="preserve" font-family="GillSans-Light" font-size="38.0" fill="#525252" transform="matrix(1.00, 0.00, -0.00, -1.00, 421.9, 694.0)">e</text><text xml:space="preserve" font-family="GillSans-Light" font-size="38.0" fill="#525252" transform="matrix(1.00, 0.00, -0.00, -1.00, 440.1, 694.0)">m</text><text xml:space="preserve" font-family="GillSans-Light" font-size="38.0" fill="#525252" transform="matrix(1.00, 0.00, -0.00, -1.00, 469.4, 694.0)">e</text><text xml:space="preserve" font-family="GillSans-Light" font-size="38.0" fill="#525252" transform="matrix(1.00, 0.00, -0.00, -1.00, 487.6, 694.0)">n</text><text xml:space="preserve" font-family="GillSans-Light" font-size="38.0" fill="#525252" transform="matrix(1.00, 0.00, -0.00, -1.00, 506.2, 694.0)">t</text><text xml:space="preserve" font-family="GillSans-Light" font-size="38.0" fill="#525252" transform="matrix(1.00, 0.00, -0.00, -1.00, 517.7, 694.0)"> </text><text xml:space="preserve" font-family="GillSans-Light" font-size="38.0" fill="#525252" transform="matrix(1.00, 0.00, -0.00, -1.00, 528.2, 694.0)">d</text><text xml:space="preserve" font-family="GillSans-Light" font-size="38.0" fill="#525252" transform="matrix(1.00, 0.00, -0.00, -1.00, 547.6, 694.0)">e</text><text xml:space="preserve" font-family="GillSans-Light" font-size="38.0" fill="#525252" transform="matrix(1.00, 0.00, -0.00, -1.00, 565.8, 694.0)"> </text><text xml:space="preserve" font-family="GillSans-Light" font-size="38.0" fill="#525252" transform="matrix(1.00, 0.00, -0.00, -1.00, 576.3, 694.0)">l</text><text xml:space="preserve" font-family="GillSans-Light" font-size="38.0" fill="#525252" transform="matrix(1.00, 0.00, -0.00, -1.00, 583.5, 694.0)">’</text><text xml:space="preserve" font-family="GillSans-Light" font-size="38.0" fill="#525252" transform="matrix(1.00, 0.00, -0.00, -1.00, 590.2, 694.0)">A</text><text xml:space="preserve" font-family="GillSans-Light" font-size="38.0" fill="#525252" transform="matrix(1.00, 0.00, -0.00, -1.00, 615.5, 694.0)">l</text><text xml:space="preserve" font-family="GillSans-Light" font-size="38.0" fill="#525252" transform="matrix(1.00, 0.00, -0.00, -1.00, 622.7, 694.0)">i</text><text xml:space="preserve" font-family="GillSans-Light" font-size="38.0" fill="#525252" transform="matrix(1.00, 0.00, -0.00, -1.00, 629.8, 694.0)">m</text><text xml:space="preserve" font-family="GillSans-Light" font-size="38.0" fill="#525252" transform="matrix(1.00, 0.00, -0.00, -1.00, 659.1, 694.0)">e</text><text xml:space="preserve" font-family="GillSans-Light" font-size="38.0" fill="#525252" transform="matrix(1.00, 0.00, -0.00, -1.00, 677.3, 694.0)">n</text><text xml:space="preserve" font-family="GillSans-Light" font-size="38.0" fill="#525252" transform="matrix(1.00, 0.00, -0.00, -1.00, 696.0, 694.0)">t</text><text xml:space="preserve" font-family="GillSans-Light" font-size="38.0" fill="#525252" transform="matrix(1.00, 0.00, -0.00, -1.00, 707.4, 694.0)">a</text><text xml:space="preserve" font-family="GillSans-Light" font-size="38.0" fill="#525252" transform="matrix(1.00, 0.00, -0.00, -1.00, 723.6, 694.0)">t</text><text xml:space="preserve" font-family="GillSans-Light" font-size="38.0" fill="#525252" transform="matrix(1.00, 0.00, -0.00, -1.00, 735.1, 694.0)">i</text><text xml:space="preserve" font-family="GillSans-Light" font-size="38.0" fill="#525252" transform="matrix(1.00, 0.00, -0.00, -1.00, 742.2, 694.0)">o</text><text xml:space="preserve" font-family="GillSans-Light" font-size="38.0" fill="#525252" transform="matrix(1.00, 0.00, -0.00, -1.00, 762.8, 694.0)">n</text></g></g><g><clipPath id="clip-71"><path d="M 28.5 599.5 L 996.5 599.5 L 996.5 103.5 L 28.5 103.5 Z M 28.5 599.5 "></path></clipPath><g clip-path="url(#clip-71)"><path d="M 29.0 599.0 L 270.8 599.0 L 270.8 500.0 L 29.0 500.0 Z M 29.0 599.0 " fill="#7F8685"></path><path d="M 270.8 599.0 L 512.5 599.0 L 512.5 500.0 L 270.8 500.0 Z M 270.8 599.0 " fill="#7F8685"></path><path d="M 512.5 599.0 L 754.2 599.0 L 754.2 500.0 L 512.5 500.0 Z M 512.5 599.0 " fill="#7F8685"></path><path d="M 754.2 599.0 L 996.0 599.0 L 996.0 500.0 L 754.2 500.0 Z M 754.2 599.0 " fill="#7F8685"></path></g></g><g><clipPath id="clip-72"><path d="M 28.5 599.5 L 996.5 599.5 L 996.5 103.5 L 28.5 103.5 Z M 28.5 599.5 "></path></clipPath><g clip-path="url(#clip-72)"><g><clipPath id="clip-73"><path d="M 29.0 500.0 L 270.8 500.0 L 270.8 401.0 L 29.0 401.0 Z M 29.0 500.0 "></path></clipPath><g clip-path="url(#clip-73)"><path d="M 29.0 401.0 L 270.8 401.0 L 270.8 500.0 L 29.0 500.0 Z M 29.0 401.0 " fill="url(#35D1446E-1EF1-4D8D-B4A0-7B9B887DBC2A)"></path><path d="M 29.0 500.0 L 270.8 500.0 L 270.8 401.0 L 29.0 401.0 Z M 29.0 500.0 " fill="#487E86" fill-opacity="0.60"></path></g></g></g></g><g><clipPath id="clip-74"><path d="M 28.5 599.5 L 996.5 599.5 L 996.5 103.5 L 28.5 103.5 Z M 28.5 599.5 "></path></clipPath><g clip-path="url(#clip-74)"><g><clipPath id="clip-75"><path d="M 29.0 401.0 L 270.8 401.0 L 270.8 302.0 L 29.0 302.0 Z M 29.0 401.0 "></path></clipPath><g clip-path="url(#clip-75)"><path d="M 29.0 302.0 L 270.8 302.0 L 270.8 401.0 L 29.0 401.0 Z M 29.0 302.0 " fill="url(#684E7AB2-4AFA-466B-BB27-CFEF510338CA)"></path><path d="M 29.0 401.0 L 270.8 401.0 L 270.8 302.0 L 29.0 302.0 Z M 29.0 401.0 " fill="#487E86" fill-opacity="0.60"></path></g></g></g></g><g><clipPath id="clip-76"><path d="M 28.5 599.5 L 996.5 599.5 L 996.5 103.5 L 28.5 103.5 Z M 28.5 599.5 "></path></clipPath><g clip-path="url(#clip-76)"><g><clipPath id="clip-77"><path d="M 29.0 302.0 L 270.8 302.0 L 270.8 203.0 L 29.0 203.0 Z M 29.0 302.0 "></path></clipPath><g clip-path="url(#clip-77)"><path d="M 29.0 203.0 L 270.8 203.0 L 270.8 302.0 L 29.0 302.0 Z M 29.0 203.0 " fill="url(#C55D5E14-DB96-465B-BB60-3F32BB580E7C)"></path><path d="M 29.0 302.0 L 270.8 302.0 L 270.8 203.0 L 29.0 203.0 Z M 29.0 302.0 " fill="#487E86" fill-opacity="0.60"></path></g></g></g></g><g><clipPath id="clip-78"><path d="M 28.5 599.5 L 996.5 599.5 L 996.5 103.5 L 28.5 103.5 Z M 28.5 599.5 "></path></clipPath><g clip-path="url(#clip-78)"><g><clipPath id="clip-79"><path d="M 29.0 203.0 L 270.8 203.0 L 270.8 104.0 L 29.0 104.0 Z M 29.0 203.0 "></path></clipPath><g clip-path="url(#clip-79)"><path d="M 29.0 104.0 L 270.8 104.0 L 270.8 203.0 L 29.0 203.0 Z M 29.0 104.0 " fill="url(#3927949A-8B22-4F6F-BEB5-CD5344B42AC2)"></path><path d="M 29.0 203.0 L 270.8 203.0 L 270.8 104.0 L 29.0 104.0 Z M 29.0 203.0 " fill="#487E86" fill-opacity="0.60"></path></g></g></g></g><g><clipPath id="clip-80"><path d="M 28.5 599.5 L 996.5 599.5 L 996.5 103.5 L 28.5 103.5 Z M 28.5 599.5 "></path></clipPath><g clip-path="url(#clip-80)"><g><clipPath id="clip-81"><path d="M 29.5 500.5 L 270.2 500.5 L 270.2 598.5 L 29.5 598.5 Z M 29.5 500.5 "></path></clipPath><g clip-path="url(#clip-81)"><text xml:space="preserve" font-family="GillSans-Light" font-size="30.0" fill="#FEFFFF" transform="matrix(1.00, 0.00, -0.00, -1.00, 97.0, 540.0)">E</text><text xml:space="preserve" font-family="GillSans-Light" font-size="30.0" fill="#FEFFFF" transform="matrix(1.00, 0.00, -0.00, -1.00, 111.7, 540.0)">l</text><text xml:space="preserve" font-family="GillSans-Light" font-size="30.0" fill="#FEFFFF" transform="matrix(1.00, 0.00, -0.00, -1.00, 117.4, 540.0)">é</text><text xml:space="preserve" font-family="GillSans-Light" font-size="30.0" fill="#FEFFFF" transform="matrix(1.00, 0.00, -0.00, -1.00, 131.7, 540.0)">m</text><text xml:space="preserve" font-family="GillSans-Light" font-size="30.0" fill="#FEFFFF" transform="matrix(1.00, 0.00, -0.00, -1.00, 154.9, 540.0)">e</text><text xml:space="preserve" font-family="GillSans-Light" font-size="30.0" fill="#FEFFFF" transform="matrix(1.00, 0.00, -0.00, -1.00, 169.2, 540.0)">n</text><text xml:space="preserve" font-family="GillSans-Light" font-size="30.0" fill="#FEFFFF" transform="matrix(1.00, 0.00, -0.00, -1.00, 183.9, 540.0)">t</text><text xml:space="preserve" font-family="GillSans-Light" font-size="30.0" fill="#FEFFFF" transform="matrix(1.00, 0.00, -0.00, -1.00, 193.0, 540.0)">s</text></g></g></g></g><g><clipPath id="clip-82"><path d="M 28.5 599.5 L 996.5 599.5 L 996.5 103.5 L 28.5 103.5 Z M 28.5 599.5 "></path></clipPath><g clip-path="url(#clip-82)"><g><clipPath id="clip-83"><path d="M 271.2 500.5 L 512.0 500.5 L 512.0 598.5 L 271.2 598.5 Z M 271.2 500.5 "></path></clipPath><g clip-path="url(#clip-83)"><text xml:space="preserve" font-family="GillSans-Light" font-size="30.0" fill="#FEFFFF" transform="matrix(1.00, 0.00, -0.00, -1.00, 347.0, 557.0)">T</text><text xml:space="preserve" font-family="GillSans-Light" font-size="30.0" fill="#FEFFFF" transform="matrix(1.00, 0.00, -0.00, -1.00, 360.3, 557.0)">e</text><text xml:space="preserve" font-family="GillSans-Light" font-size="30.0" fill="#FEFFFF" transform="matrix(1.00, 0.00, -0.00, -1.00, 374.7, 557.0)">n</text><text xml:space="preserve" font-family="GillSans-Light" font-size="30.0" fill="#FEFFFF" transform="matrix(1.00, 0.00, -0.00, -1.00, 389.4, 557.0)">s</text><text xml:space="preserve" font-family="GillSans-Light" font-size="30.0" fill="#FEFFFF" transform="matrix(1.00, 0.00, -0.00, -1.00, 400.0, 557.0)">i</text><text xml:space="preserve" font-family="GillSans-Light" font-size="30.0" fill="#FEFFFF" transform="matrix(1.00, 0.00, -0.00, -1.00, 405.7, 557.0)">o</text><text xml:space="preserve" font-family="GillSans-Light" font-size="30.0" fill="#FEFFFF" transform="matrix(1.00, 0.00, -0.00, -1.00, 421.9, 557.0)">n</text><text xml:space="preserve" font-family="GillSans-Light" font-size="30.0" fill="#FEFFFF" transform="matrix(1.00, 0.00, -0.00, -1.00, 436.6, 557.0)"> </text><text xml:space="preserve" font-family="GillSans-Light" font-size="30.0" fill="#FEFFFF" transform="matrix(1.00, 0.00, -0.00, -1.00, 306.0, 523.0)">d</text><text xml:space="preserve" font-family="GillSans-Light" font-size="30.0" fill="#FEFFFF" transform="matrix(1.00, 0.00, -0.00, -1.00, 321.3, 523.0)">’</text><text xml:space="preserve" font-family="GillSans-Light" font-size="30.0" fill="#FEFFFF" transform="matrix(1.00, 0.00, -0.00, -1.00, 326.6, 523.0)">A</text><text xml:space="preserve" font-family="GillSans-Light" font-size="30.0" fill="#FEFFFF" transform="matrix(1.00, 0.00, -0.00, -1.00, 346.6, 523.0)">l</text><text xml:space="preserve" font-family="GillSans-Light" font-size="30.0" fill="#FEFFFF" transform="matrix(1.00, 0.00, -0.00, -1.00, 352.2, 523.0)">i</text><text xml:space="preserve" font-family="GillSans-Light" font-size="30.0" fill="#FEFFFF" transform="matrix(1.00, 0.00, -0.00, -1.00, 357.9, 523.0)">m</text><text xml:space="preserve" font-family="GillSans-Light" font-size="30.0" fill="#FEFFFF" transform="matrix(1.00, 0.00, -0.00, -1.00, 381.0, 523.0)">e</text><text xml:space="preserve" font-family="GillSans-Light" font-size="30.0" fill="#FEFFFF" transform="matrix(1.00, 0.00, -0.00, -1.00, 395.4, 523.0)">n</text><text xml:space="preserve" font-family="GillSans-Light" font-size="30.0" fill="#FEFFFF" transform="matrix(1.00, 0.00, -0.00, -1.00, 410.1, 523.0)">t</text><text xml:space="preserve" font-family="GillSans-Light" font-size="30.0" fill="#FEFFFF" transform="matrix(1.00, 0.00, -0.00, -1.00, 419.1, 523.0)">a</text><text xml:space="preserve" font-family="GillSans-Light" font-size="30.0" fill="#FEFFFF" transform="matrix(1.00, 0.00, -0.00, -1.00, 431.9, 523.0)">t</text><text xml:space="preserve" font-family="GillSans-Light" font-size="30.0" fill="#FEFFFF" transform="matrix(1.00, 0.00, -0.00, -1.00, 441.0, 523.0)">i</text><text xml:space="preserve" font-family="GillSans-Light" font-size="30.0" fill="#FEFFFF" transform="matrix(1.00, 0.00, -0.00, -1.00, 446.6, 523.0)">o</text><text xml:space="preserve" font-family="GillSans-Light" font-size="30.0" fill="#FEFFFF" transform="matrix(1.00, 0.00, -0.00, -1.00, 462.9, 523.0)">n</text></g></g></g></g><g><clipPath id="clip-84"><path d="M 28.5 599.5 L 996.5 599.5 L 996.5 103.5 L 28.5 103.5 Z M 28.5 599.5 "></path></clipPath><g clip-path="url(#clip-84)"><g><clipPath id="clip-85"><path d="M 513.0 500.5 L 753.8 500.5 L 753.8 598.5 L 513.0 598.5 Z M 513.0 500.5 "></path></clipPath><g clip-path="url(#clip-85)"><text xml:space="preserve" font-family="GillSans-Light" font-size="30.0" fill="#FEFFFF" transform="matrix(1.00, 0.00, -0.00, -1.00, 542.0, 540.0)">C</text><text xml:space="preserve" font-family="GillSans-Light" font-size="30.0" fill="#FEFFFF" transform="matrix(1.00, 0.00, -0.00, -1.00, 562.3, 540.0)">o</text><text xml:space="preserve" font-family="GillSans-Light" font-size="30.0" fill="#FEFFFF" transform="matrix(1.00, 0.00, -0.00, -1.00, 578.6, 540.0)">n</text><text xml:space="preserve" font-family="GillSans-Light" font-size="30.0" fill="#FEFFFF" transform="matrix(1.00, 0.00, -0.00, -1.00, 593.3, 540.0)">s</text><text xml:space="preserve" font-family="GillSans-Light" font-size="30.0" fill="#FEFFFF" transform="matrix(1.00, 0.00, -0.00, -1.00, 603.9, 540.0)">o</text><text xml:space="preserve" font-family="GillSans-Light" font-size="30.0" fill="#FEFFFF" transform="matrix(1.00, 0.00, -0.00, -1.00, 620.1, 540.0)">m</text><text xml:space="preserve" font-family="GillSans-Light" font-size="30.0" fill="#FEFFFF" transform="matrix(1.00, 0.00, -0.00, -1.00, 643.3, 540.0)">m</text><text xml:space="preserve" font-family="GillSans-Light" font-size="30.0" fill="#FEFFFF" transform="matrix(1.00, 0.00, -0.00, -1.00, 666.4, 540.0)">a</text><text xml:space="preserve" font-family="GillSans-Light" font-size="30.0" fill="#FEFFFF" transform="matrix(1.00, 0.00, -0.00, -1.00, 679.2, 540.0)">t</text><text xml:space="preserve" font-family="GillSans-Light" font-size="30.0" fill="#FEFFFF" transform="matrix(1.00, 0.00, -0.00, -1.00, 688.3, 540.0)">i</text><text xml:space="preserve" font-family="GillSans-Light" font-size="30.0" fill="#FEFFFF" transform="matrix(1.00, 0.00, -0.00, -1.00, 693.9, 540.0)">o</text><text xml:space="preserve" font-family="GillSans-Light" font-size="30.0" fill="#FEFFFF" transform="matrix(1.00, 0.00, -0.00, -1.00, 710.2, 540.0)">n</text></g></g></g></g><g><clipPath id="clip-86"><path d="M 28.5 599.5 L 996.5 599.5 L 996.5 103.5 L 28.5 103.5 Z M 28.5 599.5 "></path></clipPath><g clip-path="url(#clip-86)"><g><clipPath id="clip-87"><path d="M 754.8 500.5 L 995.5 500.5 L 995.5 598.5 L 754.8 598.5 Z M 754.8 500.5 "></path></clipPath><g clip-path="url(#clip-87)"><text xml:space="preserve" font-family="GillSans-Light" font-size="30.0" fill="#FEFFFF" transform="matrix(1.00, 0.00, -0.00, -1.00, 793.0, 540.0)">T</text><text xml:space="preserve" font-family="GillSans-Light" font-size="30.0" fill="#FEFFFF" transform="matrix(1.00, 0.00, -0.00, -1.00, 806.0, 540.0)">o</text><text xml:space="preserve" font-family="GillSans-Light" font-size="30.0" fill="#FEFFFF" transform="matrix(1.00, 0.00, -0.00, -1.00, 822.3, 540.0)">t</text><text xml:space="preserve" font-family="GillSans-Light" font-size="30.0" fill="#FEFFFF" transform="matrix(1.00, 0.00, -0.00, -1.00, 831.3, 540.0)">a</text><text xml:space="preserve" font-family="GillSans-Light" font-size="30.0" fill="#FEFFFF" transform="matrix(1.00, 0.00, -0.00, -1.00, 844.1, 540.0)">l</text><text xml:space="preserve" font-family="GillSans-Light" font-size="30.0" fill="#FEFFFF" transform="matrix(1.00, 0.00, -0.00, -1.00, 849.7, 540.0)"> </text><text xml:space="preserve" font-family="GillSans-Light" font-size="30.0" fill="#FEFFFF" transform="matrix(1.00, 0.00, -0.00, -1.00, 858.1, 540.0)">C</text><text xml:space="preserve" font-family="GillSans-Light" font-size="30.0" fill="#FEFFFF" transform="matrix(1.00, 0.00, -0.00, -1.00, 878.4, 540.0)">o</text><text xml:space="preserve" font-family="GillSans-Light" font-size="30.0" fill="#FEFFFF" transform="matrix(1.00, 0.00, -0.00, -1.00, 894.6, 540.0)">u</text><text xml:space="preserve" font-family="GillSans-Light" font-size="30.0" fill="#FEFFFF" transform="matrix(1.00, 0.00, -0.00, -1.00, 909.3, 540.0)">r</text><text xml:space="preserve" font-family="GillSans-Light" font-size="30.0" fill="#FEFFFF" transform="matrix(1.00, 0.00, -0.00, -1.00, 920.1, 540.0)">a</text><text xml:space="preserve" font-family="GillSans-Light" font-size="30.0" fill="#FEFFFF" transform="matrix(1.00, 0.00, -0.00, -1.00, 932.9, 540.0)">n</text><text xml:space="preserve" font-family="GillSans-Light" font-size="30.0" fill="#FEFFFF" transform="matrix(1.00, 0.00, -0.00, -1.00, 947.6, 540.0)">t</text></g></g></g></g><g><clipPath id="clip-88"><path d="M 28.5 599.5 L 996.5 599.5 L 996.5 103.5 L 28.5 103.5 Z M 28.5 599.5 "></path></clipPath><g clip-path="url(#clip-88)"><g><clipPath id="clip-89"><path d="M 29.5 401.5 L 270.2 401.5 L 270.2 499.5 L 29.5 499.5 Z M 29.5 401.5 "></path></clipPath><g clip-path="url(#clip-89)"><text xml:space="preserve" font-family="GillSans-Light" font-size="30.0" fill="#FEFFFF" transform="matrix(1.00, 0.00, -0.00, -1.00, 63.0, 441.0)">R</text><text xml:space="preserve" font-family="GillSans-Light" font-size="30.0" fill="#FEFFFF" transform="matrix(1.00, 0.00, -0.00, -1.00, 80.2, 441.0)">a</text><text xml:space="preserve" font-family="GillSans-Light" font-size="30.0" fill="#FEFFFF" transform="matrix(1.00, 0.00, -0.00, -1.00, 93.0, 441.0)">s</text><text xml:space="preserve" font-family="GillSans-Light" font-size="30.0" fill="#FEFFFF" transform="matrix(1.00, 0.00, -0.00, -1.00, 103.6, 441.0)">p</text><text xml:space="preserve" font-family="GillSans-Light" font-size="30.0" fill="#FEFFFF" transform="matrix(1.00, 0.00, -0.00, -1.00, 118.9, 441.0)">b</text><text xml:space="preserve" font-family="GillSans-Light" font-size="30.0" fill="#FEFFFF" transform="matrix(1.00, 0.00, -0.00, -1.00, 134.2, 441.0)">e</text><text xml:space="preserve" font-family="GillSans-Light" font-size="30.0" fill="#FEFFFF" transform="matrix(1.00, 0.00, -0.00, -1.00, 148.6, 441.0)">r</text><text xml:space="preserve" font-family="GillSans-Light" font-size="30.0" fill="#FEFFFF" transform="matrix(1.00, 0.00, -0.00, -1.00, 159.3, 441.0)">r</text><text xml:space="preserve" font-family="GillSans-Light" font-size="30.0" fill="#FEFFFF" transform="matrix(1.00, 0.00, -0.00, -1.00, 171.4, 441.0)">y</text><text xml:space="preserve" font-family="GillSans-Light" font-size="30.0" fill="#FEFFFF" transform="matrix(1.00, 0.00, -0.00, -1.00, 183.9, 441.0)"> </text><text xml:space="preserve" font-family="GillSans-Light" font-size="30.0" fill="#FEFFFF" transform="matrix(1.00, 0.00, -0.00, -1.00, 192.2, 441.0)">P</text><text xml:space="preserve" font-family="GillSans-Light" font-size="30.0" fill="#FEFFFF" transform="matrix(1.00, 0.00, -0.00, -1.00, 207.5, 441.0)">i</text><text xml:space="preserve" font-family="GillSans-Light" font-size="30.0" fill="#FEFFFF" transform="matrix(1.00, 0.00, -0.00, -1.00, 213.2, 441.0)"> </text><text xml:space="preserve" font-family="GillSans-Light" font-size="30.0" fill="#FEFFFF" transform="matrix(1.00, 0.00, -0.00, -1.00, 221.5, 441.0)">2</text></g></g></g></g><g><clipPath id="clip-90"><path d="M 28.5 599.5 L 996.5 599.5 L 996.5 103.5 L 28.5 103.5 Z M 28.5 599.5 "></path></clipPath><g clip-path="url(#clip-90)"><g><clipPath id="clip-91"><path d="M 271.2 401.5 L 512.0 401.5 L 512.0 499.5 L 271.2 499.5 Z M 271.2 401.5 "></path></clipPath><g clip-path="url(#clip-91)"><text xml:space="preserve" font-family="GillSans-Light" font-size="30.0" fill="#595E5D" transform="matrix(1.00, 0.00, -0.00, -1.00, 375.0, 441.0)">5</text><text xml:space="preserve" font-family="GillSans-Light" font-size="30.0" fill="#595E5D" transform="matrix(1.00, 0.00, -0.00, -1.00, 390.0, 441.0)">V</text></g></g></g></g><g><clipPath id="clip-92"><path d="M 28.5 599.5 L 996.5 599.5 L 996.5 103.5 L 28.5 103.5 Z M 28.5 599.5 "></path></clipPath><g clip-path="url(#clip-92)"><g><clipPath id="clip-93"><path d="M 513.0 401.5 L 753.8 401.5 L 753.8 499.5 L 513.0 499.5 Z M 513.0 401.5 "></path></clipPath><g clip-path="url(#clip-93)"><text xml:space="preserve" font-family="GillSans-Light" font-size="30.0" fill="#595E5D" transform="matrix(1.00, 0.00, -0.00, -1.00, 606.0, 441.0)">1</text><text xml:space="preserve" font-family="GillSans-Light" font-size="30.0" fill="#595E5D" transform="matrix(1.00, 0.00, -0.00, -1.00, 621.0, 441.0)">,</text><text xml:space="preserve" font-family="GillSans-Light" font-size="30.0" fill="#595E5D" transform="matrix(1.00, 0.00, -0.00, -1.00, 626.3, 441.0)">8</text><text xml:space="preserve" font-family="GillSans-Light" font-size="30.0" fill="#595E5D" transform="matrix(1.00, 0.00, -0.00, -1.00, 641.3, 441.0)">A</text></g></g></g></g><g><clipPath id="clip-94"><path d="M 28.5 599.5 L 996.5 599.5 L 996.5 103.5 L 28.5 103.5 Z M 28.5 599.5 "></path></clipPath><g clip-path="url(#clip-94)"><g><clipPath id="clip-95"><path d="M 754.8 302.5 L 995.5 302.5 L 995.5 499.5 L 754.8 499.5 Z M 754.8 302.5 "></path></clipPath><g clip-path="url(#clip-95)"><text xml:space="preserve" font-family="GillSans-Light" font-size="30.0" fill="#595E5D" transform="matrix(1.00, 0.00, -0.00, -1.00, 847.0, 391.0)">7</text><text xml:space="preserve" font-family="GillSans-Light" font-size="30.0" fill="#595E5D" transform="matrix(1.00, 0.00, -0.00, -1.00, 862.0, 391.0)">,</text><text xml:space="preserve" font-family="GillSans-Light" font-size="30.0" fill="#595E5D" transform="matrix(1.00, 0.00, -0.00, -1.00, 867.3, 391.0)">9</text><text xml:space="preserve" font-family="GillSans-Light" font-size="30.0" fill="#595E5D" transform="matrix(1.00, 0.00, -0.00, -1.00, 882.3, 391.0)">A</text></g></g></g></g><g><clipPath id="clip-96"><path d="M 28.5 599.5 L 996.5 599.5 L 996.5 103.5 L 28.5 103.5 Z M 28.5 599.5 "></path></clipPath><g clip-path="url(#clip-96)"><g><clipPath id="clip-97"><path d="M 29.5 302.5 L 270.2 302.5 L 270.2 400.5 L 29.5 400.5 Z M 29.5 302.5 "></path></clipPath><g clip-path="url(#clip-97)"><text xml:space="preserve" font-family="GillSans-Light" font-size="30.0" fill="#FEFFFF" transform="matrix(1.00, 0.00, -0.00, -1.00, 53.0, 342.0)">R</text><text xml:space="preserve" font-family="GillSans-Light" font-size="30.0" fill="#FEFFFF" transform="matrix(1.00, 0.00, -0.00, -1.00, 70.2, 342.0)">a</text><text xml:space="preserve" font-family="GillSans-Light" font-size="30.0" fill="#FEFFFF" transform="matrix(1.00, 0.00, -0.00, -1.00, 83.0, 342.0)">s</text><text xml:space="preserve" font-family="GillSans-Light" font-size="30.0" fill="#FEFFFF" transform="matrix(1.00, 0.00, -0.00, -1.00, 93.6, 342.0)">p</text><text xml:space="preserve" font-family="GillSans-Light" font-size="30.0" fill="#FEFFFF" transform="matrix(1.00, 0.00, -0.00, -1.00, 108.9, 342.0)">b</text><text xml:space="preserve" font-family="GillSans-Light" font-size="30.0" fill="#FEFFFF" transform="matrix(1.00, 0.00, -0.00, -1.00, 124.2, 342.0)">e</text><text xml:space="preserve" font-family="GillSans-Light" font-size="30.0" fill="#FEFFFF" transform="matrix(1.00, 0.00, -0.00, -1.00, 138.6, 342.0)">r</text><text xml:space="preserve" font-family="GillSans-Light" font-size="30.0" fill="#FEFFFF" transform="matrix(1.00, 0.00, -0.00, -1.00, 149.3, 342.0)">r</text><text xml:space="preserve" font-family="GillSans-Light" font-size="30.0" fill="#FEFFFF" transform="matrix(1.00, 0.00, -0.00, -1.00, 161.4, 342.0)">y</text><text xml:space="preserve" font-family="GillSans-Light" font-size="30.0" fill="#FEFFFF" transform="matrix(1.00, 0.00, -0.00, -1.00, 173.9, 342.0)"> </text><text xml:space="preserve" font-family="GillSans-Light" font-size="30.0" fill="#FEFFFF" transform="matrix(1.00, 0.00, -0.00, -1.00, 182.2, 342.0)">P</text><text xml:space="preserve" font-family="GillSans-Light" font-size="30.0" fill="#FEFFFF" transform="matrix(1.00, 0.00, -0.00, -1.00, 197.5, 342.0)">i</text><text xml:space="preserve" font-family="GillSans-Light" font-size="30.0" fill="#FEFFFF" transform="matrix(1.00, 0.00, -0.00, -1.00, 203.2, 342.0)"> </text><text xml:space="preserve" font-family="GillSans-Light" font-size="30.0" fill="#FEFFFF" transform="matrix(1.00, 0.00, -0.00, -1.00, 211.5, 342.0)">B</text><text xml:space="preserve" font-family="GillSans-Light" font-size="30.0" fill="#FEFFFF" transform="matrix(1.00, 0.00, -0.00, -1.00, 227.4, 342.0)">+</text></g></g></g></g><g><clipPath id="clip-98"><path d="M 28.5 599.5 L 996.5 599.5 L 996.5 103.5 L 28.5 103.5 Z M 28.5 599.5 "></path></clipPath><g clip-path="url(#clip-98)"><g><clipPath id="clip-99"><path d="M 271.2 302.5 L 512.0 302.5 L 512.0 400.5 L 271.2 400.5 Z M 271.2 302.5 "></path></clipPath><g clip-path="url(#clip-99)"><text xml:space="preserve" font-family="GillSans-Light" font-size="30.0" fill="#595E5D" transform="matrix(1.00, 0.00, -0.00, -1.00, 375.0, 342.0)">5</text><text xml:space="preserve" font-family="GillSans-Light" font-size="30.0" fill="#595E5D" transform="matrix(1.00, 0.00, -0.00, -1.00, 390.0, 342.0)">V</text></g></g></g></g><g><clipPath id="clip-100"><path d="M 28.5 599.5 L 996.5 599.5 L 996.5 103.5 L 28.5 103.5 Z M 28.5 599.5 "></path></clipPath><g clip-path="url(#clip-100)"><g><clipPath id="clip-101"><path d="M 513.0 302.5 L 753.8 302.5 L 753.8 400.5 L 513.0 400.5 Z M 513.0 302.5 "></path></clipPath><g clip-path="url(#clip-101)"><text xml:space="preserve" font-family="GillSans-Light" font-size="30.0" fill="#595E5D" transform="matrix(1.00, 0.00, -0.00, -1.00, 606.0, 342.0)">0</text><text xml:space="preserve" font-family="GillSans-Light" font-size="30.0" fill="#595E5D" transform="matrix(1.00, 0.00, -0.00, -1.00, 621.0, 342.0)">,</text><text xml:space="preserve" font-family="GillSans-Light" font-size="30.0" fill="#595E5D" transform="matrix(1.00, 0.00, -0.00, -1.00, 626.3, 342.0)">7</text><text xml:space="preserve" font-family="GillSans-Light" font-size="30.0" fill="#595E5D" transform="matrix(1.00, 0.00, -0.00, -1.00, 641.3, 342.0)">A</text></g></g></g></g><g><clipPath id="clip-102"><path d="M 28.5 599.5 L 996.5 599.5 L 996.5 103.5 L 28.5 103.5 Z M 28.5 599.5 "></path></clipPath><g clip-path="url(#clip-102)"><g><clipPath id="clip-103"><path d="M 29.5 203.5 L 270.2 203.5 L 270.2 301.5 L 29.5 301.5 Z M 29.5 203.5 "></path></clipPath><g clip-path="url(#clip-103)"><text xml:space="preserve" font-family="GillSans-Light" font-size="30.0" fill="#FEFFFF" transform="matrix(1.00, 0.00, -0.00, -1.00, 56.0, 243.0)">S</text><text xml:space="preserve" font-family="GillSans-Light" font-size="30.0" fill="#FEFFFF" transform="matrix(1.00, 0.00, -0.00, -1.00, 70.1, 243.0)">w</text><text xml:space="preserve" font-family="GillSans-Light" font-size="30.0" fill="#FEFFFF" transform="matrix(1.00, 0.00, -0.00, -1.00, 91.3, 243.0)">i</text><text xml:space="preserve" font-family="GillSans-Light" font-size="30.0" fill="#FEFFFF" transform="matrix(1.00, 0.00, -0.00, -1.00, 97.0, 243.0)">t</text><text xml:space="preserve" font-family="GillSans-Light" font-size="30.0" fill="#FEFFFF" transform="matrix(1.00, 0.00, -0.00, -1.00, 106.0, 243.0)">c</text><text xml:space="preserve" font-family="GillSans-Light" font-size="30.0" fill="#FEFFFF" transform="matrix(1.00, 0.00, -0.00, -1.00, 118.5, 243.0)">h</text><text xml:space="preserve" font-family="GillSans-Light" font-size="30.0" fill="#FEFFFF" transform="matrix(1.00, 0.00, -0.00, -1.00, 133.2, 243.0)"> </text><text xml:space="preserve" font-family="GillSans-Light" font-size="30.0" fill="#FEFFFF" transform="matrix(1.00, 0.00, -0.00, -1.00, 141.6, 243.0)">E</text><text xml:space="preserve" font-family="GillSans-Light" font-size="30.0" fill="#FEFFFF" transform="matrix(1.00, 0.00, -0.00, -1.00, 156.3, 243.0)">t</text><text xml:space="preserve" font-family="GillSans-Light" font-size="30.0" fill="#FEFFFF" transform="matrix(1.00, 0.00, -0.00, -1.00, 165.3, 243.0)">h</text><text xml:space="preserve" font-family="GillSans-Light" font-size="30.0" fill="#FEFFFF" transform="matrix(1.00, 0.00, -0.00, -1.00, 180.0, 243.0)">e</text><text xml:space="preserve" font-family="GillSans-Light" font-size="30.0" fill="#FEFFFF" transform="matrix(1.00, 0.00, -0.00, -1.00, 194.4, 243.0)">r</text><text xml:space="preserve" font-family="GillSans-Light" font-size="30.0" fill="#FEFFFF" transform="matrix(1.00, 0.00, -0.00, -1.00, 205.1, 243.0)">n</text><text xml:space="preserve" font-family="GillSans-Light" font-size="30.0" fill="#FEFFFF" transform="matrix(1.00, 0.00, -0.00, -1.00, 219.9, 243.0)">e</text><text xml:space="preserve" font-family="GillSans-Light" font-size="30.0" fill="#FEFFFF" transform="matrix(1.00, 0.00, -0.00, -1.00, 234.2, 243.0)">t</text></g></g></g></g><g><clipPath id="clip-104"><path d="M 28.5 599.5 L 996.5 599.5 L 996.5 103.5 L 28.5 103.5 Z M 28.5 599.5 "></path></clipPath><g clip-path="url(#clip-104)"><g><clipPath id="clip-105"><path d="M 271.2 203.5 L 512.0 203.5 L 512.0 301.5 L 271.2 301.5 Z M 271.2 203.5 "></path></clipPath><g clip-path="url(#clip-105)"><text xml:space="preserve" font-family="GillSans-Light" font-size="30.0" fill="#595E5D" transform="matrix(1.00, 0.00, -0.00, -1.00, 368.0, 243.0)">1</text><text xml:space="preserve" font-family="GillSans-Light" font-size="30.0" fill="#595E5D" transform="matrix(1.00, 0.00, -0.00, -1.00, 383.0, 243.0)">2</text><text xml:space="preserve" font-family="GillSans-Light" font-size="30.0" fill="#595E5D" transform="matrix(1.00, 0.00, -0.00, -1.00, 398.0, 243.0)">V</text></g></g></g></g><g><clipPath id="clip-106"><path d="M 28.5 599.5 L 996.5 599.5 L 996.5 103.5 L 28.5 103.5 Z M 28.5 599.5 "></path></clipPath><g clip-path="url(#clip-106)"><g><clipPath id="clip-107"><path d="M 513.0 203.5 L 753.8 203.5 L 753.8 301.5 L 513.0 301.5 Z M 513.0 203.5 "></path></clipPath><g clip-path="url(#clip-107)"><text xml:space="preserve" font-family="GillSans-Light" font-size="30.0" fill="#595E5D" transform="matrix(1.00, 0.00, -0.00, -1.00, 606.0, 243.0)">0</text><text xml:space="preserve" font-family="GillSans-Light" font-size="30.0" fill="#595E5D" transform="matrix(1.00, 0.00, -0.00, -1.00, 621.0, 243.0)">,</text><text xml:space="preserve" font-family="GillSans-Light" font-size="30.0" fill="#595E5D" transform="matrix(1.00, 0.00, -0.00, -1.00, 626.3, 243.0)">5</text><text xml:space="preserve" font-family="GillSans-Light" font-size="30.0" fill="#595E5D" transform="matrix(1.00, 0.00, -0.00, -1.00, 641.3, 243.0)">A</text></g></g></g></g><g><clipPath id="clip-108"><path d="M 28.5 599.5 L 996.5 599.5 L 996.5 103.5 L 28.5 103.5 Z M 28.5 599.5 "></path></clipPath><g clip-path="url(#clip-108)"><g><clipPath id="clip-109"><path d="M 754.8 104.5 L 995.5 104.5 L 995.5 301.5 L 754.8 301.5 Z M 754.8 104.5 "></path></clipPath><g clip-path="url(#clip-109)"><text xml:space="preserve" font-family="GillSans-Light" font-size="30.0" fill="#595E5D" transform="matrix(1.00, 0.00, -0.00, -1.00, 840.0, 193.0)">2</text><text xml:space="preserve" font-family="GillSans-Light" font-size="30.0" fill="#595E5D" transform="matrix(1.00, 0.00, -0.00, -1.00, 855.0, 193.0)">,</text><text xml:space="preserve" font-family="GillSans-Light" font-size="30.0" fill="#595E5D" transform="matrix(1.00, 0.00, -0.00, -1.00, 860.3, 193.0)">2</text><text xml:space="preserve" font-family="GillSans-Light" font-size="30.0" fill="#595E5D" transform="matrix(1.00, 0.00, -0.00, -1.00, 875.3, 193.0)">6</text><text xml:space="preserve" font-family="GillSans-Light" font-size="30.0" fill="#595E5D" transform="matrix(1.00, 0.00, -0.00, -1.00, 890.3, 193.0)">A</text></g></g></g></g><g><clipPath id="clip-110"><path d="M 28.5 599.5 L 996.5 599.5 L 996.5 103.5 L 28.5 103.5 Z M 28.5 599.5 "></path></clipPath><g clip-path="url(#clip-110)"><g><clipPath id="clip-111"><path d="M 29.5 104.5 L 270.2 104.5 L 270.2 202.5 L 29.5 202.5 Z M 29.5 104.5 "></path></clipPath><g clip-path="url(#clip-111)"><text xml:space="preserve" font-family="GillSans-Light" font-size="30.0" fill="#FEFFFF" transform="matrix(1.00, 0.00, -0.00, -1.00, 81.0, 144.0)">V</text><text xml:space="preserve" font-family="GillSans-Light" font-size="30.0" fill="#FEFFFF" transform="matrix(1.00, 0.00, -0.00, -1.00, 96.7, 144.0)">e</text><text xml:space="preserve" font-family="GillSans-Light" font-size="30.0" fill="#FEFFFF" transform="matrix(1.00, 0.00, -0.00, -1.00, 111.1, 144.0)">n</text><text xml:space="preserve" font-family="GillSans-Light" font-size="30.0" fill="#FEFFFF" transform="matrix(1.00, 0.00, -0.00, -1.00, 125.8, 144.0)">t</text><text xml:space="preserve" font-family="GillSans-Light" font-size="30.0" fill="#FEFFFF" transform="matrix(1.00, 0.00, -0.00, -1.00, 134.9, 144.0)">i</text><text xml:space="preserve" font-family="GillSans-Light" font-size="30.0" fill="#FEFFFF" transform="matrix(1.00, 0.00, -0.00, -1.00, 140.5, 144.0)">l</text><text xml:space="preserve" font-family="GillSans-Light" font-size="30.0" fill="#FEFFFF" transform="matrix(1.00, 0.00, -0.00, -1.00, 146.1, 144.0)">a</text><text xml:space="preserve" font-family="GillSans-Light" font-size="30.0" fill="#FEFFFF" transform="matrix(1.00, 0.00, -0.00, -1.00, 158.9, 144.0)">t</text><text xml:space="preserve" font-family="GillSans-Light" font-size="30.0" fill="#FEFFFF" transform="matrix(1.00, 0.00, -0.00, -1.00, 168.0, 144.0)">e</text><text xml:space="preserve" font-family="GillSans-Light" font-size="30.0" fill="#FEFFFF" transform="matrix(1.00, 0.00, -0.00, -1.00, 182.4, 144.0)">u</text><text xml:space="preserve" font-family="GillSans-Light" font-size="30.0" fill="#FEFFFF" transform="matrix(1.00, 0.00, -0.00, -1.00, 197.1, 144.0)">r</text><text xml:space="preserve" font-family="GillSans-Light" font-size="30.0" fill="#FEFFFF" transform="matrix(1.00, 0.00, -0.00, -1.00, 208.3, 144.0)">s</text></g></g></g></g><g><clipPath id="clip-112"><path d="M 28.5 599.5 L 996.5 599.5 L 996.5 103.5 L 28.5 103.5 Z M 28.5 599.5 "></path></clipPath><g clip-path="url(#clip-112)"><g><clipPath id="clip-113"><path d="M 271.2 104.5 L 512.0 104.5 L 512.0 202.5 L 271.2 202.5 Z M 271.2 104.5 "></path></clipPath><g clip-path="url(#clip-113)"><text xml:space="preserve" font-family="GillSans-Light" font-size="30.0" fill="#595E5D" transform="matrix(1.00, 0.00, -0.00, -1.00, 368.0, 144.0)">1</text><text xml:space="preserve" font-family="GillSans-Light" font-size="30.0" fill="#595E5D" transform="matrix(1.00, 0.00, -0.00, -1.00, 383.0, 144.0)">2</text><text xml:space="preserve" font-family="GillSans-Light" font-size="30.0" fill="#595E5D" transform="matrix(1.00, 0.00, -0.00, -1.00, 398.0, 144.0)">V</text></g></g></g></g><g><clipPath id="clip-114"><path d="M 28.5 599.5 L 996.5 599.5 L 996.5 103.5 L 28.5 103.5 Z M 28.5 599.5 "></path></clipPath><g clip-path="url(#clip-114)"><g><clipPath id="clip-115"><path d="M 513.0 104.5 L 753.8 104.5 L 753.8 202.5 L 513.0 202.5 Z M 513.0 104.5 "></path></clipPath><g clip-path="url(#clip-115)"><text xml:space="preserve" font-family="GillSans-Light" font-size="30.0" fill="#595E5D" transform="matrix(1.00, 0.00, -0.00, -1.00, 606.0, 144.0)">0</text><text xml:space="preserve" font-family="GillSans-Light" font-size="30.0" fill="#595E5D" transform="matrix(1.00, 0.00, -0.00, -1.00, 621.0, 144.0)">,</text><text xml:space="preserve" font-family="GillSans-Light" font-size="30.0" fill="#595E5D" transform="matrix(1.00, 0.00, -0.00, -1.00, 626.3, 144.0)">3</text><text xml:space="preserve" font-family="GillSans-Light" font-size="30.0" fill="#595E5D" transform="matrix(1.00, 0.00, -0.00, -1.00, 641.3, 144.0)">A</text></g></g></g></g><g><clipPath id="clip-116"><path d="M 28.5 599.5 L 996.5 599.5 L 996.5 103.5 L 28.5 103.5 Z M 28.5 599.5 "></path></clipPath><g clip-path="url(#clip-116)"><path d="M 485.5 1.5 L 485.5 101.0 " fill="none" stroke="#B4B4B4" stroke-width="1.00" transform="matrix(1.00, 0.00, 0.00, -1.00, 27.0, 601.0)"></path><path d="M 485.5 101.0 L 485.5 497.5 " fill="none" stroke="#B4B4B4" stroke-width="1.00" transform="matrix(1.00, 0.00, 0.00, -1.00, 27.0, 601.0)"></path><path d="M 727.2 1.5 L 727.2 101.0 " fill="none" stroke="#B4B4B4" stroke-width="1.00" transform="matrix(1.00, 0.00, 0.00, -1.00, 27.0, 601.0)"></path><path d="M 727.2 101.0 L 727.2 497.5 " fill="none" stroke="#B4B4B4" stroke-width="1.00" transform="matrix(1.00, 0.00, 0.00, -1.00, 27.0, 601.0)"></path><path d="M 1.5 200.0 L 243.8 200.0 " fill="none" stroke="#B4B4B4" stroke-width="1.00" transform="matrix(1.00, 0.00, 0.00, -1.00, 27.0, 601.0)"></path><path d="M 243.8 200.0 L 727.8 200.0 " fill="none" stroke="#B4B4B4" stroke-width="1.00" transform="matrix(1.00, 0.00, 0.00, -1.00, 27.0, 601.0)"></path><path d="M 1.5 299.0 L 243.8 299.0 " fill="none" stroke="#B4B4B4" stroke-width="1.00" transform="matrix(1.00, 0.00, 0.00, -1.00, 27.0, 601.0)"></path><path d="M 243.8 299.0 L 969.5 299.0 " fill="none" stroke="#B4B4B4" stroke-width="1.00" transform="matrix(1.00, 0.00, 0.00, -1.00, 27.0, 601.0)"></path><path d="M 1.5 398.0 L 243.8 398.0 " fill="none" stroke="#B4B4B4" stroke-width="1.00" transform="matrix(1.00, 0.00, 0.00, -1.00, 27.0, 601.0)"></path><path d="M 243.8 398.0 L 727.8 398.0 " fill="none" stroke="#B4B4B4" stroke-width="1.00" transform="matrix(1.00, 0.00, 0.00, -1.00, 27.0, 601.0)"></path><path d="M 243.8 1.5 L 243.8 101.0 " fill="none" stroke="#B4B4B4" stroke-width="1.00" transform="matrix(1.00, 0.00, 0.00, -1.00, 27.0, 601.0)"></path><path d="M 243.8 101.0 L 243.8 497.5 " fill="none" stroke="#B4B4B4" stroke-width="1.00" transform="matrix(1.00, 0.00, 0.00, -1.00, 27.0, 601.0)"></path><path d="M 1.5 101.0 L 969.5 101.0 " fill="none" stroke="#B4B4B4" stroke-width="1.00" transform="matrix(1.00, 0.00, 0.00, -1.00, 27.0, 601.0)"></path><path d="M 2.0 1.5 L 2.0 101.0 " fill="none" stroke="#B4B4B4" stroke-width="1.00" transform="matrix(1.00, 0.00, 0.00, -1.00, 27.0, 601.0)"></path><path d="M 2.0 101.0 L 2.0 497.5 " fill="none" stroke="#B4B4B4" stroke-width="1.00" transform="matrix(1.00, 0.00, 0.00, -1.00, 27.0, 601.0)"></path><path d="M 969.0 1.5 L 969.0 101.0 " fill="none" stroke="#B4B4B4" stroke-width="1.00" transform="matrix(1.00, 0.00, 0.00, -1.00, 27.0, 601.0)"></path><path d="M 969.0 101.0 L 969.0 497.5 " fill="none" stroke="#B4B4B4" stroke-width="1.00" transform="matrix(1.00, 0.00, 0.00, -1.00, 27.0, 601.0)"></path><path d="M 1.5 2.0 L 969.5 2.0 " fill="none" stroke="#B4B4B4" stroke-width="1.00" transform="matrix(1.00, 0.00, 0.00, -1.00, 27.0, 601.0)"></path><path d="M 1.5 497.0 L 243.8 497.0 " fill="none" stroke="#B4B4B4" stroke-width="1.00" transform="matrix(1.00, 0.00, 0.00, -1.00, 27.0, 601.0)"></path><path d="M 243.8 497.0 L 969.5 497.0 " fill="none" stroke="#B4B4B4" stroke-width="1.00" transform="matrix(1.00, 0.00, 0.00, -1.00, 27.0, 601.0)"></path></g></g><text xml:space="preserve" font-family="GillSans-Light" font-size="18.0" fill="#525252" transform="matrix(1.00, 0.00, -0.00, -1.00, 507.0, 18.0)">5</text></g></svg>