<?xml version="1.0" encoding="UTF-8" standalone="no"?><svg xmlns="http://www.w3.org/2000/svg" xmlns:xlink="http://www.w3.org/1999/xlink" clip-rule="evenodd" stroke-miterlimit="4.00" viewBox="0 0 1024 768"><desc>SVG generated by Keynote</desc><defs></defs><g transform="matrix(1.00, 0.00, -0.00, -1.00, 0.0, 768.0)"><g><clipPath id="clip-117"><path d="M 0.0 768.0 L 1024.0 768.0 L 1024.0 0.0 L 0.0 0.0 Z M 0.0 768.0 "></path></clipPath><g clip-path="url(#clip-117)"><image xlink:href="../../293415CD-D1BA-41BB-8703-BAEDA9FFCE27/assets/D3CB8578D364082F6943B53F933CCC32.jpeg" width="1024.00" height="768.00" transform="matrix(1.00, 0.00, -0.00, -1.00, 0.0, 768.0)"></image></g></g><path d="M 0.0 0.0 L 968.0 0.0 L 968.0 57.8 L 0.0 57.8 Z M 0.0 0.0 " fill="none" stroke="#9D9D9D" stroke-width="1.00" transform="matrix(1.00, 0.00, 0.00, -1.00, 28.0, 748.0)"></path><g><clipPath id="clip-118"><path d="M 22.2 686.2 L 1001.8 686.2 L 1001.8 750.8 L 22.2 750.8 Z M 22.2 686.2 "></path></clipPath><g clip-path="url(#clip-118)"><text xml:space="preserve" font-family="GillSans-Light" font-size="38.0" fill="#525252" transform="matrix(1.00, 0.00, -0.00, -1.00, 305.0, 706.0)">M</text><text xml:space="preserve" font-family="GillSans-Light" font-size="38.0" fill="#525252" transform="matrix(1.00, 0.00, -0.00, -1.00, 334.7, 706.0)">e</text><text xml:space="preserve" font-family="GillSans-Light" font-size="38.0" fill="#525252" transform="matrix(1.00, 0.00, -0.00, -1.00, 352.9, 706.0)">s</text><text xml:space="preserve" font-family="GillSans-Light" font-size="38.0" fill="#525252" transform="matrix(1.00, 0.00, -0.00, -1.00, 366.3, 706.0)">u</text><text xml:space="preserve" font-family="GillSans-Light" font-size="38.0" fill="#525252" transform="matrix(1.00, 0.00, -0.00, -1.00, 385.0, 706.0)">r</text><text xml:space="preserve" font-family="GillSans-Light" font-size="38.0" fill="#525252" transform="matrix(1.00, 0.00, -0.00, -1.00, 397.6, 706.0)">e</text><text xml:space="preserve" font-family="GillSans-Light" font-size="38.0" fill="#525252" transform="matrix(1.00, 0.00, -0.00, -1.00, 415.8, 706.0)">s</text><text xml:space="preserve" font-family="GillSans-Light" font-size="38.0" fill="#525252" transform="matrix(1.00, 0.00, -0.00, -1.00, 429.3, 706.0)"> </text><text xml:space="preserve" font-family="GillSans-Light" font-size="38.0" fill="#525252" transform="matrix(1.00, 0.00, -0.00, -1.00, 439.8, 706.0)">d</text><text xml:space="preserve" font-family="GillSans-Light" font-size="38.0" fill="#525252" transform="matrix(1.00, 0.00, -0.00, -1.00, 459.2, 706.0)">e</text><text xml:space="preserve" font-family="GillSans-Light" font-size="38.0" fill="#525252" transform="matrix(1.00, 0.00, -0.00, -1.00, 477.4, 706.0)"> </text><text xml:space="preserve" font-family="GillSans-Light" font-size="38.0" fill="#525252" transform="matrix(1.00, 0.00, -0.00, -1.00, 487.9, 706.0)">C</text><text xml:space="preserve" font-family="GillSans-Light" font-size="38.0" fill="#525252" transform="matrix(1.00, 0.00, -0.00, -1.00, 513.6, 706.0)">o</text><text xml:space="preserve" font-family="GillSans-Light" font-size="38.0" fill="#525252" transform="matrix(1.00, 0.00, -0.00, -1.00, 534.2, 706.0)">n</text><text xml:space="preserve" font-family="GillSans-Light" font-size="38.0" fill="#525252" transform="matrix(1.00, 0.00, -0.00, -1.00, 552.9, 706.0)">s</text><text xml:space="preserve" font-family="GillSans-Light" font-size="38.0" fill="#525252" transform="matrix(1.00, 0.00, -0.00, -1.00, 566.3, 706.0)">o</text><text xml:space="preserve" font-family="GillSans-Light" font-size="38.0" fill="#525252" transform="matrix(1.00, 0.00, -0.00, -1.00, 586.9, 706.0)">m</text><text xml:space="preserve" font-family="GillSans-Light" font-size="38.0" fill="#525252" transform="matrix(1.00, 0.00, -0.00, -1.00, 616.2, 706.0)">m</text><text xml:space="preserve" font-family="GillSans-Light" font-size="38.0" fill="#525252" transform="matrix(1.00, 0.00, -0.00, -1.00, 645.5, 706.0)">a</text><text xml:space="preserve" font-family="GillSans-Light" font-size="38.0" fill="#525252" transform="matrix(1.00, 0.00, -0.00, -1.00, 661.7, 706.0)">t</text><text xml:space="preserve" font-family="GillSans-Light" font-size="38.0" fill="#525252" transform="matrix(1.00, 0.00, -0.00, -1.00, 673.2, 706.0)">i</text><text xml:space="preserve" font-family="GillSans-Light" font-size="38.0" fill="#525252" transform="matrix(1.00, 0.00, -0.00, -1.00, 680.3, 706.0)">o</text><text xml:space="preserve" font-family="GillSans-Light" font-size="38.0" fill="#525252" transform="matrix(1.00, 0.00, -0.00, -1.00, 700.9, 706.0)">n</text></g></g><g><clipPath id="clip-119"><path d="M 70.5 539.5 L 954.5 539.5 L 954.5 210.9 L 70.5 210.9 Z M 70.5 539.5 "></path></clipPath><g clip-path="url(#clip-119)"><path d="M 71.0 539.0 L 365.3 539.0 L 365.3 484.4 L 71.0 484.4 Z M 71.0 539.0 " fill="#595E5D"></path><path d="M 365.3 539.0 L 659.6 539.0 L 659.6 484.4 L 365.3 484.4 Z M 365.3 539.0 " fill="#595E5D"></path><path d="M 659.6 539.0 L 954.0 539.0 L 954.0 484.4 L 659.6 484.4 Z M 659.6 539.0 " fill="#595E5D"></path><path d="M 71.0 484.4 L 365.3 484.4 L 365.3 429.8 L 71.0 429.8 Z M 71.0 484.4 " fill="#7F8685"></path><path d="M 71.0 429.8 L 365.3 429.8 L 365.3 375.2 L 71.0 375.2 Z M 71.0 429.8 " fill="#7F8685"></path><path d="M 365.3 429.8 L 659.6 429.8 L 659.6 375.2 L 365.3 375.2 Z M 365.3 429.8 " fill="#000000" fill-opacity="0.05"></path><path d="M 659.6 429.8 L 954.0 429.8 L 954.0 375.2 L 659.6 375.2 Z M 659.6 429.8 " fill="#000000" fill-opacity="0.05"></path><path d="M 71.0 375.2 L 365.3 375.2 L 365.3 320.6 L 71.0 320.6 Z M 71.0 375.2 " fill="#7F8685"></path><path d="M 71.0 320.6 L 365.3 320.6 L 365.3 266.0 L 71.0 266.0 Z M 71.0 320.6 " fill="#7F8685"></path><path d="M 365.3 320.6 L 659.6 320.6 L 659.6 266.0 L 365.3 266.0 Z M 365.3 320.6 " fill="#000000" fill-opacity="0.05"></path><path d="M 659.6 320.6 L 954.0 320.6 L 954.0 266.0 L 659.6 266.0 Z M 659.6 320.6 " fill="#000000" fill-opacity="0.05"></path><path d="M 71.0 266.0 L 365.3 266.0 L 365.3 211.4 L 71.0 211.4 Z M 71.0 266.0 " fill="#7F8685"></path></g></g><g><clipPath id="clip-120"><path d="M 70.5 539.5 L 954.5 539.5 L 954.5 210.9 L 70.5 210.9 Z M 70.5 539.5 "></path></clipPath><g clip-path="url(#clip-120)"><g><clipPath id="clip-121"><path d="M 71.5 484.4 L 364.8 484.4 L 364.8 538.5 L 71.5 538.5 Z M 71.5 484.4 "></path></clipPath><g clip-path="url(#clip-121)"><text xml:space="preserve" font-family="GillSans-Light" font-size="30.0" fill="#FEFFFF" transform="matrix(1.00, 0.00, -0.00, -1.00, 143.0, 502.0)">C</text><text xml:space="preserve" font-family="GillSans-Light" font-size="30.0" fill="#FEFFFF" transform="matrix(1.00, 0.00, -0.00, -1.00, 163.3, 502.0)">h</text><text xml:space="preserve" font-family="GillSans-Light" font-size="30.0" fill="#FEFFFF" transform="matrix(1.00, 0.00, -0.00, -1.00, 178.0, 502.0)">a</text><text xml:space="preserve" font-family="GillSans-Light" font-size="30.0" fill="#FEFFFF" transform="matrix(1.00, 0.00, -0.00, -1.00, 190.8, 502.0)">r</text><text xml:space="preserve" font-family="GillSans-Light" font-size="30.0" fill="#FEFFFF" transform="matrix(1.00, 0.00, -0.00, -1.00, 201.5, 502.0)">g</text><text xml:space="preserve" font-family="GillSans-Light" font-size="30.0" fill="#FEFFFF" transform="matrix(1.00, 0.00, -0.00, -1.00, 214.3, 502.0)">e</text><text xml:space="preserve" font-family="GillSans-Light" font-size="30.0" fill="#FEFFFF" transform="matrix(1.00, 0.00, -0.00, -1.00, 228.7, 502.0)"> </text><text xml:space="preserve" font-family="GillSans-Light" font-size="30.0" fill="#FEFFFF" transform="matrix(1.00, 0.00, -0.00, -1.00, 237.0, 502.0)">C</text><text xml:space="preserve" font-family="GillSans-Light" font-size="30.0" fill="#FEFFFF" transform="matrix(1.00, 0.00, -0.00, -1.00, 257.3, 502.0)">P</text><text xml:space="preserve" font-family="GillSans-Light" font-size="30.0" fill="#FEFFFF" transform="matrix(1.00, 0.00, -0.00, -1.00, 272.6, 502.0)">U</text></g></g></g></g><g><clipPath id="clip-122"><path d="M 70.5 539.5 L 954.5 539.5 L 954.5 210.9 L 70.5 210.9 Z M 70.5 539.5 "></path></clipPath><g clip-path="url(#clip-122)"><g><clipPath id="clip-123"><path d="M 365.8 484.4 L 659.1 484.4 L 659.1 538.5 L 365.8 538.5 Z M 365.8 484.4 "></path></clipPath><g clip-path="url(#clip-123)"><text xml:space="preserve" font-family="GillSans-Light" font-size="30.0" fill="#FEFFFF" transform="matrix(1.00, 0.00, -0.00, -1.00, 397.0, 502.0)">C</text><text xml:space="preserve" font-family="GillSans-Light" font-size="30.0" fill="#FEFFFF" transform="matrix(1.00, 0.00, -0.00, -1.00, 417.3, 502.0)">o</text><text xml:space="preserve" font-family="GillSans-Light" font-size="30.0" fill="#FEFFFF" transform="matrix(1.00, 0.00, -0.00, -1.00, 433.6, 502.0)">n</text><text xml:space="preserve" font-family="GillSans-Light" font-size="30.0" fill="#FEFFFF" transform="matrix(1.00, 0.00, -0.00, -1.00, 448.3, 502.0)">s</text><text xml:space="preserve" font-family="GillSans-Light" font-size="30.0" fill="#FEFFFF" transform="matrix(1.00, 0.00, -0.00, -1.00, 458.9, 502.0)">o</text><text xml:space="preserve" font-family="GillSans-Light" font-size="30.0" fill="#FEFFFF" transform="matrix(1.00, 0.00, -0.00, -1.00, 475.1, 502.0)">m</text><text xml:space="preserve" font-family="GillSans-Light" font-size="30.0" fill="#FEFFFF" transform="matrix(1.00, 0.00, -0.00, -1.00, 498.3, 502.0)">m</text><text xml:space="preserve" font-family="GillSans-Light" font-size="30.0" fill="#FEFFFF" transform="matrix(1.00, 0.00, -0.00, -1.00, 521.4, 502.0)">a</text><text xml:space="preserve" font-family="GillSans-Light" font-size="30.0" fill="#FEFFFF" transform="matrix(1.00, 0.00, -0.00, -1.00, 534.2, 502.0)">t</text><text xml:space="preserve" font-family="GillSans-Light" font-size="30.0" fill="#FEFFFF" transform="matrix(1.00, 0.00, -0.00, -1.00, 543.3, 502.0)">i</text><text xml:space="preserve" font-family="GillSans-Light" font-size="30.0" fill="#FEFFFF" transform="matrix(1.00, 0.00, -0.00, -1.00, 548.9, 502.0)">o</text><text xml:space="preserve" font-family="GillSans-Light" font-size="30.0" fill="#FEFFFF" transform="matrix(1.00, 0.00, -0.00, -1.00, 565.2, 502.0)">n</text><text xml:space="preserve" font-family="GillSans-Light" font-size="30.0" fill="#FEFFFF" transform="matrix(1.00, 0.00, -0.00, -1.00, 579.9, 502.0)"> </text><text xml:space="preserve" font-family="GillSans-Light" font-size="30.0" fill="#FEFFFF" transform="matrix(1.00, 0.00, -0.00, -1.00, 588.2, 502.0)">(</text><text xml:space="preserve" font-family="GillSans-Light" font-size="30.0" fill="#FEFFFF" transform="matrix(1.00, 0.00, -0.00, -1.00, 598.2, 502.0)">A</text><text xml:space="preserve" font-family="GillSans-Light" font-size="30.0" fill="#FEFFFF" transform="matrix(1.00, 0.00, -0.00, -1.00, 618.2, 502.0)">)</text></g></g></g></g><g><clipPath id="clip-124"><path d="M 70.5 539.5 L 954.5 539.5 L 954.5 210.9 L 70.5 210.9 Z M 70.5 539.5 "></path></clipPath><g clip-path="url(#clip-124)"><g><clipPath id="clip-125"><path d="M 660.1 484.4 L 953.5 484.4 L 953.5 538.5 L 660.1 538.5 Z M 660.1 484.4 "></path></clipPath><g clip-path="url(#clip-125)"><text xml:space="preserve" font-family="GillSans-Light" font-size="30.0" fill="#FEFFFF" transform="matrix(1.00, 0.00, -0.00, -1.00, 700.0, 502.0)">T</text><text xml:space="preserve" font-family="GillSans-Light" font-size="30.0" fill="#FEFFFF" transform="matrix(1.00, 0.00, -0.00, -1.00, 713.3, 502.0)">e</text><text xml:space="preserve" font-family="GillSans-Light" font-size="30.0" fill="#FEFFFF" transform="matrix(1.00, 0.00, -0.00, -1.00, 727.7, 502.0)">m</text><text xml:space="preserve" font-family="GillSans-Light" font-size="30.0" fill="#FEFFFF" transform="matrix(1.00, 0.00, -0.00, -1.00, 750.8, 502.0)">p</text><text xml:space="preserve" font-family="GillSans-Light" font-size="30.0" fill="#FEFFFF" transform="matrix(1.00, 0.00, -0.00, -1.00, 766.1, 502.0)">é</text><text xml:space="preserve" font-family="GillSans-Light" font-size="30.0" fill="#FEFFFF" transform="matrix(1.00, 0.00, -0.00, -1.00, 780.5, 502.0)">r</text><text xml:space="preserve" font-family="GillSans-Light" font-size="30.0" fill="#FEFFFF" transform="matrix(1.00, 0.00, -0.00, -1.00, 791.2, 502.0)">a</text><text xml:space="preserve" font-family="GillSans-Light" font-size="30.0" fill="#FEFFFF" transform="matrix(1.00, 0.00, -0.00, -1.00, 804.0, 502.0)">t</text><text xml:space="preserve" font-family="GillSans-Light" font-size="30.0" fill="#FEFFFF" transform="matrix(1.00, 0.00, -0.00, -1.00, 813.0, 502.0)">u</text><text xml:space="preserve" font-family="GillSans-Light" font-size="30.0" fill="#FEFFFF" transform="matrix(1.00, 0.00, -0.00, -1.00, 827.8, 502.0)">r</text><text xml:space="preserve" font-family="GillSans-Light" font-size="30.0" fill="#FEFFFF" transform="matrix(1.00, 0.00, -0.00, -1.00, 837.8, 502.0)">e</text><text xml:space="preserve" font-family="GillSans-Light" font-size="30.0" fill="#FEFFFF" transform="matrix(1.00, 0.00, -0.00, -1.00, 852.1, 502.0)"> </text><text xml:space="preserve" font-family="GillSans-Light" font-size="30.0" fill="#FEFFFF" transform="matrix(1.00, 0.00, -0.00, -1.00, 860.4, 502.0)">(</text><text xml:space="preserve" font-family="GillSans-Light" font-size="30.0" fill="#FEFFFF" transform="matrix(1.00, 0.00, -0.00, -1.00, 870.4, 502.0)">°</text><text xml:space="preserve" font-family="GillSans-Light" font-size="30.0" fill="#FEFFFF" transform="matrix(1.00, 0.00, -0.00, -1.00, 882.4, 502.0)">C</text><text xml:space="preserve" font-family="GillSans-Light" font-size="30.0" fill="#FEFFFF" transform="matrix(1.00, 0.00, -0.00, -1.00, 902.7, 502.0)">)</text></g></g></g></g><g><clipPath id="clip-126"><path d="M 70.5 539.5 L 954.5 539.5 L 954.5 210.9 L 70.5 210.9 Z M 70.5 539.5 "></path></clipPath><g clip-path="url(#clip-126)"><g><clipPath id="clip-127"><path d="M 71.5 430.3 L 365.3 430.3 L 365.3 484.4 L 71.5 484.4 Z M 71.5 430.3 "></path></clipPath><g clip-path="url(#clip-127)"><text xml:space="preserve" font-family="GillSans-Light" font-size="30.0" fill="#FEFFFF" transform="matrix(1.00, 0.00, -0.00, -1.00, 196.0, 448.0)">0</text><text xml:space="preserve" font-family="GillSans-Light" font-size="30.0" fill="#FEFFFF" transform="matrix(1.00, 0.00, -0.00, -1.00, 211.0, 448.0)"> </text><text xml:space="preserve" font-family="GillSans-Light" font-size="30.0" fill="#FEFFFF" transform="matrix(1.00, 0.00, -0.00, -1.00, 219.3, 448.0)">%</text></g></g></g></g><g><clipPath id="clip-128"><path d="M 70.5 539.5 L 954.5 539.5 L 954.5 210.9 L 70.5 210.9 Z M 70.5 539.5 "></path></clipPath><g clip-path="url(#clip-128)"><g><clipPath id="clip-129"><path d="M 365.3 429.8 L 659.6 429.8 L 659.6 484.4 L 365.3 484.4 Z M 365.3 429.8 "></path></clipPath><g clip-path="url(#clip-129)"><text xml:space="preserve" font-family="GillSans-Light" font-size="30.0" fill="#595E5D" transform="matrix(1.00, 0.00, -0.00, -1.00, 480.0, 447.0)">0</text><text xml:space="preserve" font-family="GillSans-Light" font-size="30.0" fill="#595E5D" transform="matrix(1.00, 0.00, -0.00, -1.00, 495.0, 447.0)">,</text><text xml:space="preserve" font-family="GillSans-Light" font-size="30.0" fill="#595E5D" transform="matrix(1.00, 0.00, -0.00, -1.00, 500.3, 447.0)">2</text><text xml:space="preserve" font-family="GillSans-Light" font-size="30.0" fill="#595E5D" transform="matrix(1.00, 0.00, -0.00, -1.00, 515.3, 447.0)">6</text><text xml:space="preserve" font-family="GillSans-Light" font-size="30.0" fill="#595E5D" transform="matrix(1.00, 0.00, -0.00, -1.00, 530.3, 447.0)">0</text></g></g></g></g><g><clipPath id="clip-130"><path d="M 70.5 539.5 L 954.5 539.5 L 954.5 210.9 L 70.5 210.9 Z M 70.5 539.5 "></path></clipPath><g clip-path="url(#clip-130)"><g><clipPath id="clip-131"><path d="M 659.6 429.8 L 953.5 429.8 L 953.5 484.4 L 659.6 484.4 Z M 659.6 429.8 "></path></clipPath><g clip-path="url(#clip-131)"><text xml:space="preserve" font-family="GillSans-Light" font-size="30.0" fill="#595E5D" transform="matrix(1.00, 0.00, -0.00, -1.00, 781.0, 447.0)">2</text><text xml:space="preserve" font-family="GillSans-Light" font-size="30.0" fill="#595E5D" transform="matrix(1.00, 0.00, -0.00, -1.00, 796.0, 447.0)">2</text><text xml:space="preserve" font-family="GillSans-Light" font-size="30.0" fill="#595E5D" transform="matrix(1.00, 0.00, -0.00, -1.00, 811.0, 447.0)">,</text><text xml:space="preserve" font-family="GillSans-Light" font-size="30.0" fill="#595E5D" transform="matrix(1.00, 0.00, -0.00, -1.00, 816.3, 447.0)">1</text></g></g></g></g><g><clipPath id="clip-132"><path d="M 70.5 539.5 L 954.5 539.5 L 954.5 210.9 L 70.5 210.9 Z M 70.5 539.5 "></path></clipPath><g clip-path="url(#clip-132)"><g><clipPath id="clip-133"><path d="M 71.5 375.7 L 365.3 375.7 L 365.3 429.3 L 71.5 429.3 Z M 71.5 375.7 "></path></clipPath><g clip-path="url(#clip-133)"><text xml:space="preserve" font-family="GillSans-Light" font-size="30.0" fill="#FEFFFF" transform="matrix(1.00, 0.00, -0.00, -1.00, 189.0, 392.0)">2</text><text xml:space="preserve" font-family="GillSans-Light" font-size="30.0" fill="#FEFFFF" transform="matrix(1.00, 0.00, -0.00, -1.00, 204.0, 392.0)">5</text><text xml:space="preserve" font-family="GillSans-Light" font-size="30.0" fill="#FEFFFF" transform="matrix(1.00, 0.00, -0.00, -1.00, 219.0, 392.0)"> </text><text xml:space="preserve" font-family="GillSans-Light" font-size="30.0" fill="#FEFFFF" transform="matrix(1.00, 0.00, -0.00, -1.00, 227.3, 392.0)">%</text></g></g></g></g><g><clipPath id="clip-134"><path d="M 70.5 539.5 L 954.5 539.5 L 954.5 210.9 L 70.5 210.9 Z M 70.5 539.5 "></path></clipPath><g clip-path="url(#clip-134)"><g><clipPath id="clip-135"><path d="M 365.3 375.2 L 659.6 375.2 L 659.6 429.8 L 365.3 429.8 Z M 365.3 375.2 "></path></clipPath><g clip-path="url(#clip-135)"><text xml:space="preserve" font-family="GillSans-Light" font-size="30.0" fill="#595E5D" transform="matrix(1.00, 0.00, -0.00, -1.00, 480.0, 392.0)">0</text><text xml:space="preserve" font-family="GillSans-Light" font-size="30.0" fill="#595E5D" transform="matrix(1.00, 0.00, -0.00, -1.00, 495.0, 392.0)">,</text><text xml:space="preserve" font-family="GillSans-Light" font-size="30.0" fill="#595E5D" transform="matrix(1.00, 0.00, -0.00, -1.00, 500.3, 392.0)">2</text><text xml:space="preserve" font-family="GillSans-Light" font-size="30.0" fill="#595E5D" transform="matrix(1.00, 0.00, -0.00, -1.00, 515.3, 392.0)">8</text><text xml:space="preserve" font-family="GillSans-Light" font-size="30.0" fill="#595E5D" transform="matrix(1.00, 0.00, -0.00, -1.00, 530.3, 392.0)">3</text></g></g></g></g><g><clipPath id="clip-136"><path d="M 70.5 539.5 L 954.5 539.5 L 954.5 210.9 L 70.5 210.9 Z M 70.5 539.5 "></path></clipPath><g clip-path="url(#clip-136)"><g><clipPath id="clip-137"><path d="M 659.6 375.2 L 953.5 375.2 L 953.5 429.8 L 659.6 429.8 Z M 659.6 375.2 "></path></clipPath><g clip-path="url(#clip-137)"><text xml:space="preserve" font-family="GillSans-Light" font-size="30.0" fill="#595E5D" transform="matrix(1.00, 0.00, -0.00, -1.00, 792.0, 392.0)">2</text><text xml:space="preserve" font-family="GillSans-Light" font-size="30.0" fill="#595E5D" transform="matrix(1.00, 0.00, -0.00, -1.00, 807.0, 392.0)">5</text></g></g></g></g><g><clipPath id="clip-138"><path d="M 70.5 539.5 L 954.5 539.5 L 954.5 210.9 L 70.5 210.9 Z M 70.5 539.5 "></path></clipPath><g clip-path="url(#clip-138)"><g><clipPath id="clip-139"><path d="M 71.5 321.1 L 365.3 321.1 L 365.3 374.7 L 71.5 374.7 Z M 71.5 321.1 "></path></clipPath><g clip-path="url(#clip-139)"><text xml:space="preserve" font-family="GillSans-Light" font-size="30.0" fill="#FEFFFF" transform="matrix(1.00, 0.00, -0.00, -1.00, 189.0, 338.0)">5</text><text xml:space="preserve" font-family="GillSans-Light" font-size="30.0" fill="#FEFFFF" transform="matrix(1.00, 0.00, -0.00, -1.00, 204.0, 338.0)">0</text><text xml:space="preserve" font-family="GillSans-Light" font-size="30.0" fill="#FEFFFF" transform="matrix(1.00, 0.00, -0.00, -1.00, 219.0, 338.0)"> </text><text xml:space="preserve" font-family="GillSans-Light" font-size="30.0" fill="#FEFFFF" transform="matrix(1.00, 0.00, -0.00, -1.00, 227.3, 338.0)">%</text></g></g></g></g><g><clipPath id="clip-140"><path d="M 70.5 539.5 L 954.5 539.5 L 954.5 210.9 L 70.5 210.9 Z M 70.5 539.5 "></path></clipPath><g clip-path="url(#clip-140)"><g><clipPath id="clip-141"><path d="M 365.3 320.6 L 659.6 320.6 L 659.6 375.2 L 365.3 375.2 Z M 365.3 320.6 "></path></clipPath><g clip-path="url(#clip-141)"><text xml:space="preserve" font-family="GillSans-Light" font-size="30.0" fill="#595E5D" transform="matrix(1.00, 0.00, -0.00, -1.00, 480.0, 337.0)">0</text><text xml:space="preserve" font-family="GillSans-Light" font-size="30.0" fill="#595E5D" transform="matrix(1.00, 0.00, -0.00, -1.00, 495.0, 337.0)">,</text><text xml:space="preserve" font-family="GillSans-Light" font-size="30.0" fill="#595E5D" transform="matrix(1.00, 0.00, -0.00, -1.00, 500.3, 337.0)">3</text><text xml:space="preserve" font-family="GillSans-Light" font-size="30.0" fill="#595E5D" transform="matrix(1.00, 0.00, -0.00, -1.00, 515.3, 337.0)">1</text><text xml:space="preserve" font-family="GillSans-Light" font-size="30.0" fill="#595E5D" transform="matrix(1.00, 0.00, -0.00, -1.00, 530.3, 337.0)">8</text></g></g></g></g><g><clipPath id="clip-142"><path d="M 70.5 539.5 L 954.5 539.5 L 954.5 210.9 L 70.5 210.9 Z M 70.5 539.5 "></path></clipPath><g clip-path="url(#clip-142)"><g><clipPath id="clip-143"><path d="M 659.6 320.6 L 953.5 320.6 L 953.5 375.2 L 659.6 375.2 Z M 659.6 320.6 "></path></clipPath><g clip-path="url(#clip-143)"><text xml:space="preserve" font-family="GillSans-Light" font-size="30.0" fill="#595E5D" transform="matrix(1.00, 0.00, -0.00, -1.00, 781.0, 337.0)">2</text><text xml:space="preserve" font-family="GillSans-Light" font-size="30.0" fill="#595E5D" transform="matrix(1.00, 0.00, -0.00, -1.00, 796.0, 337.0)">6</text><text xml:space="preserve" font-family="GillSans-Light" font-size="30.0" fill="#595E5D" transform="matrix(1.00, 0.00, -0.00, -1.00, 811.0, 337.0)">,</text><text xml:space="preserve" font-family="GillSans-Light" font-size="30.0" fill="#595E5D" transform="matrix(1.00, 0.00, -0.00, -1.00, 816.3, 337.0)">1</text></g></g></g></g><g><clipPath id="clip-144"><path d="M 70.5 539.5 L 954.5 539.5 L 954.5 210.9 L 70.5 210.9 Z M 70.5 539.5 "></path></clipPath><g clip-path="url(#clip-144)"><g><clipPath id="clip-145"><path d="M 71.5 266.5 L 365.3 266.5 L 365.3 320.1 L 71.5 320.1 Z M 71.5 266.5 "></path></clipPath><g clip-path="url(#clip-145)"><text xml:space="preserve" font-family="GillSans-Light" font-size="30.0" fill="#FEFFFF" transform="matrix(1.00, 0.00, -0.00, -1.00, 189.0, 283.0)">7</text><text xml:space="preserve" font-family="GillSans-Light" font-size="30.0" fill="#FEFFFF" transform="matrix(1.00, 0.00, -0.00, -1.00, 204.0, 283.0)">5</text><text xml:space="preserve" font-family="GillSans-Light" font-size="30.0" fill="#FEFFFF" transform="matrix(1.00, 0.00, -0.00, -1.00, 219.0, 283.0)"> </text><text xml:space="preserve" font-family="GillSans-Light" font-size="30.0" fill="#FEFFFF" transform="matrix(1.00, 0.00, -0.00, -1.00, 227.3, 283.0)">%</text></g></g></g></g><g><clipPath id="clip-146"><path d="M 70.5 539.5 L 954.5 539.5 L 954.5 210.9 L 70.5 210.9 Z M 70.5 539.5 "></path></clipPath><g clip-path="url(#clip-146)"><g><clipPath id="clip-147"><path d="M 365.3 266.0 L 659.6 266.0 L 659.6 320.6 L 365.3 320.6 Z M 365.3 266.0 "></path></clipPath><g clip-path="url(#clip-147)"><text xml:space="preserve" font-family="GillSans-Light" font-size="30.0" fill="#595E5D" transform="matrix(1.00, 0.00, -0.00, -1.00, 480.0, 283.0)">0</text><text xml:space="preserve" font-family="GillSans-Light" font-size="30.0" fill="#595E5D" transform="matrix(1.00, 0.00, -0.00, -1.00, 495.0, 283.0)">,</text><text xml:space="preserve" font-family="GillSans-Light" font-size="30.0" fill="#595E5D" transform="matrix(1.00, 0.00, -0.00, -1.00, 500.3, 283.0)">3</text><text xml:space="preserve" font-family="GillSans-Light" font-size="30.0" fill="#595E5D" transform="matrix(1.00, 0.00, -0.00, -1.00, 515.3, 283.0)">5</text><text xml:space="preserve" font-family="GillSans-Light" font-size="30.0" fill="#595E5D" transform="matrix(1.00, 0.00, -0.00, -1.00, 530.3, 283.0)">5</text></g></g></g></g><g><clipPath id="clip-148"><path d="M 70.5 539.5 L 954.5 539.5 L 954.5 210.9 L 70.5 210.9 Z M 70.5 539.5 "></path></clipPath><g clip-path="url(#clip-148)"><g><clipPath id="clip-149"><path d="M 659.6 266.0 L 953.5 266.0 L 953.5 320.6 L 659.6 320.6 Z M 659.6 266.0 "></path></clipPath><g clip-path="url(#clip-149)"><text xml:space="preserve" font-family="GillSans-Light" font-size="30.0" fill="#595E5D" transform="matrix(1.00, 0.00, -0.00, -1.00, 781.0, 283.0)">2</text><text xml:space="preserve" font-family="GillSans-Light" font-size="30.0" fill="#595E5D" transform="matrix(1.00, 0.00, -0.00, -1.00, 796.0, 283.0)">8</text><text xml:space="preserve" font-family="GillSans-Light" font-size="30.0" fill="#595E5D" transform="matrix(1.00, 0.00, -0.00, -1.00, 811.0, 283.0)">,</text><text xml:space="preserve" font-family="GillSans-Light" font-size="30.0" fill="#595E5D" transform="matrix(1.00, 0.00, -0.00, -1.00, 816.3, 283.0)">2</text></g></g></g></g><g><clipPath id="clip-150"><path d="M 70.5 539.5 L 954.5 539.5 L 954.5 210.9 L 70.5 210.9 Z M 70.5 539.5 "></path></clipPath><g clip-path="url(#clip-150)"><g><clipPath id="clip-151"><path d="M 71.5 211.9 L 365.3 211.9 L 365.3 265.5 L 71.5 265.5 Z M 71.5 211.9 "></path></clipPath><g clip-path="url(#clip-151)"><text xml:space="preserve" font-family="GillSans-Light" font-size="30.0" fill="#FEFFFF" transform="matrix(1.00, 0.00, -0.00, -1.00, 181.0, 229.0)">1</text><text xml:space="preserve" font-family="GillSans-Light" font-size="30.0" fill="#FEFFFF" transform="matrix(1.00, 0.00, -0.00, -1.00, 196.0, 229.0)">0</text><text xml:space="preserve" font-family="GillSans-Light" font-size="30.0" fill="#FEFFFF" transform="matrix(1.00, 0.00, -0.00, -1.00, 211.0, 229.0)">0</text><text xml:space="preserve" font-family="GillSans-Light" font-size="30.0" fill="#FEFFFF" transform="matrix(1.00, 0.00, -0.00, -1.00, 226.0, 229.0)"> </text><text xml:space="preserve" font-family="GillSans-Light" font-size="30.0" fill="#FEFFFF" transform="matrix(1.00, 0.00, -0.00, -1.00, 234.3, 229.0)">%</text></g></g></g></g><g><clipPath id="clip-152"><path d="M 70.5 539.5 L 954.5 539.5 L 954.5 210.9 L 70.5 210.9 Z M 70.5 539.5 "></path></clipPath><g clip-path="url(#clip-152)"><g><clipPath id="clip-153"><path d="M 365.3 211.9 L 659.6 211.9 L 659.6 266.0 L 365.3 266.0 Z M 365.3 211.9 "></path></clipPath><g clip-path="url(#clip-153)"><text xml:space="preserve" font-family="GillSans-Light" font-size="30.0" fill="#595E5D" transform="matrix(1.00, 0.00, -0.00, -1.00, 480.0, 229.0)">0</text><text xml:space="preserve" font-family="GillSans-Light" font-size="30.0" fill="#595E5D" transform="matrix(1.00, 0.00, -0.00, -1.00, 495.0, 229.0)">,</text><text xml:space="preserve" font-family="GillSans-Light" font-size="30.0" fill="#595E5D" transform="matrix(1.00, 0.00, -0.00, -1.00, 500.3, 229.0)">3</text><text xml:space="preserve" font-family="GillSans-Light" font-size="30.0" fill="#595E5D" transform="matrix(1.00, 0.00, -0.00, -1.00, 515.3, 229.0)">9</text><text xml:space="preserve" font-family="GillSans-Light" font-size="30.0" fill="#595E5D" transform="matrix(1.00, 0.00, -0.00, -1.00, 530.3, 229.0)">5</text></g></g></g></g><g><clipPath id="clip-154"><path d="M 70.5 539.5 L 954.5 539.5 L 954.5 210.9 L 70.5 210.9 Z M 70.5 539.5 "></path></clipPath><g clip-path="url(#clip-154)"><g><clipPath id="clip-155"><path d="M 659.6 211.9 L 953.5 211.9 L 953.5 266.0 L 659.6 266.0 Z M 659.6 211.9 "></path></clipPath><g clip-path="url(#clip-155)"><text xml:space="preserve" font-family="GillSans-Light" font-size="30.0" fill="#595E5D" transform="matrix(1.00, 0.00, -0.00, -1.00, 781.0, 229.0)">2</text><text xml:space="preserve" font-family="GillSans-Light" font-size="30.0" fill="#595E5D" transform="matrix(1.00, 0.00, -0.00, -1.00, 796.0, 229.0)">9</text><text xml:space="preserve" font-family="GillSans-Light" font-size="30.0" fill="#595E5D" transform="matrix(1.00, 0.00, -0.00, -1.00, 811.0, 229.0)">,</text><text xml:space="preserve" font-family="GillSans-Light" font-size="30.0" fill="#595E5D" transform="matrix(1.00, 0.00, -0.00, -1.00, 816.3, 229.0)">3</text></g></g></g></g><g><clipPath id="clip-156"><path d="M 70.5 539.5 L 954.5 539.5 L 954.5 210.9 L 70.5 210.9 Z M 70.5 539.5 "></path></clipPath><g clip-path="url(#clip-156)"><g><clipPath id="clip-157"><path d="M 659.1 484.4 L 660.1 484.4 L 660.1 539.5 L 659.1 539.5 Z M 659.1 484.4 "></path></clipPath><g clip-path="url(#clip-157)"><path d="M 590.6 1.5 L 590.6 57.6 " fill="none" stroke="#B4B4B4" stroke-width="1.00" stroke-dasharray="1.0, 2.0" transform="matrix(1.00, 0.00, 0.00, -1.00, 69.0, 541.0)"></path></g></g></g></g><g><clipPath id="clip-158"><path d="M 70.5 539.5 L 954.5 539.5 L 954.5 210.9 L 70.5 210.9 Z M 70.5 539.5 "></path></clipPath><g clip-path="url(#clip-158)"><path d="M 1.5 111.2 L 296.3 111.2 " fill="none" stroke="#B4B4B4" stroke-width="1.00" transform="matrix(1.00, 0.00, 0.00, -1.00, 69.0, 541.0)"></path><path d="M 1.5 165.8 L 296.3 165.8 " fill="none" stroke="#B4B4B4" stroke-width="1.00" transform="matrix(1.00, 0.00, 0.00, -1.00, 69.0, 541.0)"></path><path d="M 1.5 220.4 L 296.3 220.4 " fill="none" stroke="#B4B4B4" stroke-width="1.00" transform="matrix(1.00, 0.00, 0.00, -1.00, 69.0, 541.0)"></path><path d="M 1.5 275.0 L 296.3 275.0 " fill="none" stroke="#B4B4B4" stroke-width="1.00" transform="matrix(1.00, 0.00, 0.00, -1.00, 69.0, 541.0)"></path></g></g><g><clipPath id="clip-159"><path d="M 70.5 539.5 L 954.5 539.5 L 954.5 210.9 L 70.5 210.9 Z M 70.5 539.5 "></path></clipPath><g clip-path="url(#clip-159)"><g><clipPath id="clip-160"><path d="M 364.8 484.4 L 365.8 484.4 L 365.8 539.5 L 364.8 539.5 Z M 364.8 484.4 "></path></clipPath><g clip-path="url(#clip-160)"><path d="M 296.3 1.5 L 296.3 57.6 " fill="none" stroke="#B4B4B4" stroke-width="1.00" stroke-dasharray="1.0, 2.0" transform="matrix(1.00, 0.00, 0.00, -1.00, 69.0, 541.0)"></path></g></g></g></g><g><clipPath id="clip-161"><path d="M 70.5 539.5 L 954.5 539.5 L 954.5 210.9 L 70.5 210.9 Z M 70.5 539.5 "></path></clipPath><g clip-path="url(#clip-161)"><path d="M 2.0 1.5 L 2.0 56.6 " fill="none" stroke="#B4B4B4" stroke-width="1.00" transform="matrix(1.00, 0.00, 0.00, -1.00, 69.0, 541.0)"></path><path d="M 2.0 56.6 L 2.0 330.1 " fill="none" stroke="#B4B4B4" stroke-width="1.00" transform="matrix(1.00, 0.00, 0.00, -1.00, 69.0, 541.0)"></path><path d="M 885.0 1.5 L 885.0 56.6 " fill="none" stroke="#B4B4B4" stroke-width="1.00" transform="matrix(1.00, 0.00, 0.00, -1.00, 69.0, 541.0)"></path><path d="M 885.0 56.6 L 885.0 330.1 " fill="none" stroke="#B4B4B4" stroke-width="1.00" transform="matrix(1.00, 0.00, 0.00, -1.00, 69.0, 541.0)"></path><path d="M 1.5 2.0 L 885.5 2.0 " fill="none" stroke="#B4B4B4" stroke-width="1.00" transform="matrix(1.00, 0.00, 0.00, -1.00, 69.0, 541.0)"></path><path d="M 1.5 329.6 L 296.3 329.6 " fill="none" stroke="#B4B4B4" stroke-width="1.00" transform="matrix(1.00, 0.00, 0.00, -1.00, 69.0, 541.0)"></path><path d="M 296.3 329.6 L 885.5 329.6 " fill="none" stroke="#B4B4B4" stroke-width="1.00" transform="matrix(1.00, 0.00, 0.00, -1.00, 69.0, 541.0)"></path></g></g><path d="M 0.0 0.0 L 916.2 0.0 L 916.2 47.0 L 0.0 47.0 Z M 0.0 0.0 " fill="none" stroke="#9D9D9D" stroke-width="1.00" transform="matrix(1.00, 0.00, 0.00, -1.00, 53.9, 189.2)"></path><g><clipPath id="clip-162"><path d="M 49.0 137.3 L 975.0 137.3 L 975.0 194.1 L 49.0 194.1 Z M 49.0 137.3 "></path></clipPath><g clip-path="url(#clip-162)"><text xml:space="preserve" font-family="GillSans-Light" font-size="33.0" fill="#525252" transform="matrix(1.00, 0.00, -0.00, -1.00, 118.0, 155.0)">C</text><text xml:space="preserve" font-family="GillSans-Light" font-size="33.0" fill="#525252" transform="matrix(1.00, 0.00, -0.00, -1.00, 140.3, 155.0)">o</text><text xml:space="preserve" font-family="GillSans-Light" font-size="33.0" fill="#525252" transform="matrix(1.00, 0.00, -0.00, -1.00, 158.2, 155.0)">n</text><text xml:space="preserve" font-family="GillSans-Light" font-size="33.0" fill="#525252" transform="matrix(1.00, 0.00, -0.00, -1.00, 174.4, 155.0)">s</text><text xml:space="preserve" font-family="GillSans-Light" font-size="33.0" fill="#525252" transform="matrix(1.00, 0.00, -0.00, -1.00, 186.1, 155.0)">o</text><text xml:space="preserve" font-family="GillSans-Light" font-size="33.0" fill="#525252" transform="matrix(1.00, 0.00, -0.00, -1.00, 204.0, 155.0)">m</text><text xml:space="preserve" font-family="GillSans-Light" font-size="33.0" fill="#525252" transform="matrix(1.00, 0.00, -0.00, -1.00, 229.4, 155.0)">m</text><text xml:space="preserve" font-family="GillSans-Light" font-size="33.0" fill="#525252" transform="matrix(1.00, 0.00, -0.00, -1.00, 254.9, 155.0)">a</text><text xml:space="preserve" font-family="GillSans-Light" font-size="33.0" fill="#525252" transform="matrix(1.00, 0.00, -0.00, -1.00, 268.9, 155.0)">t</text><text xml:space="preserve" font-family="GillSans-Light" font-size="33.0" fill="#525252" transform="matrix(1.00, 0.00, -0.00, -1.00, 278.9, 155.0)">i</text><text xml:space="preserve" font-family="GillSans-Light" font-size="33.0" fill="#525252" transform="matrix(1.00, 0.00, -0.00, -1.00, 285.1, 155.0)">o</text><text xml:space="preserve" font-family="GillSans-Light" font-size="33.0" fill="#525252" transform="matrix(1.00, 0.00, -0.00, -1.00, 303.0, 155.0)">n</text><text xml:space="preserve" font-family="GillSans-Light" font-size="33.0" fill="#525252" transform="matrix(1.00, 0.00, -0.00, -1.00, 319.2, 155.0)"> </text><text xml:space="preserve" font-family="GillSans-LightItalic" font-style="italic" font-size="33.0" fill="#525252" transform="matrix(1.00, 0.00, -0.00, -1.00, 328.3, 155.0)">t</text><text xml:space="preserve" font-family="GillSans-LightItalic" font-style="italic" font-size="33.0" fill="#525252" transform="matrix(1.00, 0.00, -0.00, -1.00, 337.6, 155.0)">r</text><text xml:space="preserve" font-family="GillSans-LightItalic" font-style="italic" font-size="33.0" fill="#525252" transform="matrix(1.00, 0.00, -0.00, -1.00, 346.5, 155.0)">è</text><text xml:space="preserve" font-family="GillSans-LightItalic" font-style="italic" font-size="33.0" fill="#525252" transform="matrix(1.00, 0.00, -0.00, -1.00, 361.3, 155.0)">s</text><text xml:space="preserve" font-family="GillSans-LightItalic" font-style="italic" font-size="33.0" fill="#525252" transform="matrix(1.00, 0.00, -0.00, -1.00, 373.0, 155.0)"> </text><text xml:space="preserve" font-family="GillSans-LightItalic" font-style="italic" font-size="33.0" fill="#525252" transform="matrix(1.00, 0.00, -0.00, -1.00, 382.2, 155.0)">i</text><text xml:space="preserve" font-family="GillSans-LightItalic" font-style="italic" font-size="33.0" fill="#525252" transform="matrix(1.00, 0.00, -0.00, -1.00, 388.0, 155.0)">n</text><text xml:space="preserve" font-family="GillSans-LightItalic" font-style="italic" font-size="33.0" fill="#525252" transform="matrix(1.00, 0.00, -0.00, -1.00, 403.1, 155.0)">f</text><text xml:space="preserve" font-family="GillSans-LightItalic" font-style="italic" font-size="33.0" fill="#525252" transform="matrix(1.00, 0.00, -0.00, -1.00, 411.4, 155.0)">é</text><text xml:space="preserve" font-family="GillSans-LightItalic" font-style="italic" font-size="33.0" fill="#525252" transform="matrix(1.00, 0.00, -0.00, -1.00, 426.2, 155.0)">r</text><text xml:space="preserve" font-family="GillSans-LightItalic" font-style="italic" font-size="33.0" fill="#525252" transform="matrix(1.00, 0.00, -0.00, -1.00, 435.9, 155.0)">i</text><text xml:space="preserve" font-family="GillSans-LightItalic" font-style="italic" font-size="33.0" fill="#525252" transform="matrix(1.00, 0.00, -0.00, -1.00, 441.8, 155.0)">e</text><text xml:space="preserve" font-family="GillSans-LightItalic" font-style="italic" font-size="33.0" fill="#525252" transform="matrix(1.00, 0.00, -0.00, -1.00, 456.5, 155.0)">u</text><text xml:space="preserve" font-family="GillSans-LightItalic" font-style="italic" font-size="33.0" fill="#525252" transform="matrix(1.00, 0.00, -0.00, -1.00, 471.7, 155.0)">r</text><text xml:space="preserve" font-family="GillSans-LightItalic" font-style="italic" font-size="33.0" fill="#525252" transform="matrix(1.00, 0.00, -0.00, -1.00, 480.6, 155.0)">e</text><text xml:space="preserve" font-family="GillSans-Light" font-size="33.0" fill="#525252" transform="matrix(1.00, 0.00, -0.00, -1.00, 495.4, 155.0)"> </text><text xml:space="preserve" font-family="GillSans-Light" font-size="33.0" fill="#525252" transform="matrix(1.00, 0.00, -0.00, -1.00, 504.6, 155.0)">a</text><text xml:space="preserve" font-family="GillSans-Light" font-size="33.0" fill="#525252" transform="matrix(1.00, 0.00, -0.00, -1.00, 518.6, 155.0)">u</text><text xml:space="preserve" font-family="GillSans-Light" font-size="33.0" fill="#525252" transform="matrix(1.00, 0.00, -0.00, -1.00, 534.8, 155.0)">x</text><text xml:space="preserve" font-family="GillSans-Light" font-size="33.0" fill="#525252" transform="matrix(1.00, 0.00, -0.00, -1.00, 550.6, 155.0)"> </text><text xml:space="preserve" font-family="GillSans-Light" font-size="33.0" fill="#525252" transform="matrix(1.00, 0.00, -0.00, -1.00, 559.8, 155.0)">c</text><text xml:space="preserve" font-family="GillSans-Light" font-size="33.0" fill="#525252" transform="matrix(1.00, 0.00, -0.00, -1.00, 573.6, 155.0)">a</text><text xml:space="preserve" font-family="GillSans-Light" font-size="33.0" fill="#525252" transform="matrix(1.00, 0.00, -0.00, -1.00, 587.6, 155.0)">r</text><text xml:space="preserve" font-family="GillSans-Light" font-size="33.0" fill="#525252" transform="matrix(1.00, 0.00, -0.00, -1.00, 599.4, 155.0)">a</text><text xml:space="preserve" font-family="GillSans-Light" font-size="33.0" fill="#525252" transform="matrix(1.00, 0.00, -0.00, -1.00, 613.5, 155.0)">c</text><text xml:space="preserve" font-family="GillSans-Light" font-size="33.0" fill="#525252" transform="matrix(1.00, 0.00, -0.00, -1.00, 627.3, 155.0)">t</text><text xml:space="preserve" font-family="GillSans-Light" font-size="33.0" fill="#525252" transform="matrix(1.00, 0.00, -0.00, -1.00, 637.2, 155.0)">é</text><text xml:space="preserve" font-family="GillSans-Light" font-size="33.0" fill="#525252" transform="matrix(1.00, 0.00, -0.00, -1.00, 653.0, 155.0)">r</text><text xml:space="preserve" font-family="GillSans-Light" font-size="33.0" fill="#525252" transform="matrix(1.00, 0.00, -0.00, -1.00, 664.9, 155.0)">i</text><text xml:space="preserve" font-family="GillSans-Light" font-size="33.0" fill="#525252" transform="matrix(1.00, 0.00, -0.00, -1.00, 671.1, 155.0)">s</text><text xml:space="preserve" font-family="GillSans-Light" font-size="33.0" fill="#525252" transform="matrix(1.00, 0.00, -0.00, -1.00, 682.7, 155.0)">t</text><text xml:space="preserve" font-family="GillSans-Light" font-size="33.0" fill="#525252" transform="matrix(1.00, 0.00, -0.00, -1.00, 692.7, 155.0)">i</text><text xml:space="preserve" font-family="GillSans-Light" font-size="33.0" fill="#525252" transform="matrix(1.00, 0.00, -0.00, -1.00, 698.9, 155.0)">q</text><text xml:space="preserve" font-family="GillSans-Light" font-size="33.0" fill="#525252" transform="matrix(1.00, 0.00, -0.00, -1.00, 715.7, 155.0)">u</text><text xml:space="preserve" font-family="GillSans-Light" font-size="33.0" fill="#525252" transform="matrix(1.00, 0.00, -0.00, -1.00, 731.9, 155.0)">e</text><text xml:space="preserve" font-family="GillSans-Light" font-size="33.0" fill="#525252" transform="matrix(1.00, 0.00, -0.00, -1.00, 747.7, 155.0)">s</text><text xml:space="preserve" font-family="GillSans-Light" font-size="33.0" fill="#525252" transform="matrix(1.00, 0.00, -0.00, -1.00, 759.4, 155.0)"> </text><text xml:space="preserve" font-family="GillSans-Light" font-size="33.0" fill="#525252" transform="matrix(1.00, 0.00, -0.00, -1.00, 768.5, 155.0)">a</text><text xml:space="preserve" font-family="GillSans-Light" font-size="33.0" fill="#525252" transform="matrix(1.00, 0.00, -0.00, -1.00, 782.6, 155.0)">n</text><text xml:space="preserve" font-family="GillSans-Light" font-size="33.0" fill="#525252" transform="matrix(1.00, 0.00, -0.00, -1.00, 798.8, 155.0)">n</text><text xml:space="preserve" font-family="GillSans-Light" font-size="33.0" fill="#525252" transform="matrix(1.00, 0.00, -0.00, -1.00, 815.0, 155.0)">o</text><text xml:space="preserve" font-family="GillSans-Light" font-size="33.0" fill="#525252" transform="matrix(1.00, 0.00, -0.00, -1.00, 832.9, 155.0)">n</text><text xml:space="preserve" font-family="GillSans-Light" font-size="33.0" fill="#525252" transform="matrix(1.00, 0.00, -0.00, -1.00, 849.1, 155.0)">c</text><text xml:space="preserve" font-family="GillSans-Light" font-size="33.0" fill="#525252" transform="matrix(1.00, 0.00, -0.00, -1.00, 862.8, 155.0)">é</text><text xml:space="preserve" font-family="GillSans-Light" font-size="33.0" fill="#525252" transform="matrix(1.00, 0.00, -0.00, -1.00, 878.6, 155.0)">e</text><text xml:space="preserve" font-family="GillSans-Light" font-size="33.0" fill="#525252" transform="matrix(1.00, 0.00, -0.00, -1.00, 894.4, 155.0)">s</text><path d="M 273.9 36.6 L 440.9 36.6 " fill="none" stroke="#525252" stroke-width="1.64" stroke-miterlimit="0.00" transform="matrix(1.00, 0.00, 0.00, -1.00, 54.4, 188.7)"></path></g></g><path d="M 0.0 0.0 L 412.6 0.0 L 412.6 44.0 L 0.0 44.0 Z M 0.0 0.0 " fill="none" stroke="#9D9D9D" stroke-width="1.00" transform="matrix(1.00, 0.00, 0.00, -1.00, 305.7, 606.0)"></path><g><clipPath id="clip-163"><path d="M 301.4 557.7 L 722.6 557.7 L 722.6 610.3 L 301.4 610.3 Z M 301.4 557.7 "></path></clipPath><g clip-path="url(#clip-163)"><text xml:space="preserve" font-family="GillSans-Light" font-size="31.0" fill="#525252" transform="matrix(1.00, 0.00, -0.00, -1.00, 311.0, 574.0)">M</text><text xml:space="preserve" font-family="GillSans-Light" font-size="31.0" fill="#525252" transform="matrix(1.00, 0.00, -0.00, -1.00, 335.2, 574.0)">e</text><text xml:space="preserve" font-family="GillSans-Light" font-size="31.0" fill="#525252" transform="matrix(1.00, 0.00, -0.00, -1.00, 350.0, 574.0)">s</text><text xml:space="preserve" font-family="GillSans-Light" font-size="31.0" fill="#525252" transform="matrix(1.00, 0.00, -0.00, -1.00, 361.0, 574.0)">u</text><text xml:space="preserve" font-family="GillSans-Light" font-size="31.0" fill="#525252" transform="matrix(1.00, 0.00, -0.00, -1.00, 376.2, 574.0)">r</text><text xml:space="preserve" font-family="GillSans-Light" font-size="31.0" fill="#525252" transform="matrix(1.00, 0.00, -0.00, -1.00, 386.5, 574.0)">e</text><text xml:space="preserve" font-family="GillSans-Light" font-size="31.0" fill="#525252" transform="matrix(1.00, 0.00, -0.00, -1.00, 401.4, 574.0)">s</text><text xml:space="preserve" font-family="GillSans-Light" font-size="31.0" fill="#525252" transform="matrix(1.00, 0.00, -0.00, -1.00, 412.4, 574.0)"> </text><text xml:space="preserve" font-family="GillSans-Light" font-size="31.0" fill="#525252" transform="matrix(1.00, 0.00, -0.00, -1.00, 421.0, 574.0)">e</text><text xml:space="preserve" font-family="GillSans-Light" font-size="31.0" fill="#525252" transform="matrix(1.00, 0.00, -0.00, -1.00, 435.8, 574.0)">f</text><text xml:space="preserve" font-family="GillSans-Light" font-size="31.0" fill="#525252" transform="matrix(1.00, 0.00, -0.00, -1.00, 443.3, 574.0)">f</text><text xml:space="preserve" font-family="GillSans-Light" font-size="31.0" fill="#525252" transform="matrix(1.00, 0.00, -0.00, -1.00, 450.3, 574.0)">e</text><text xml:space="preserve" font-family="GillSans-Light" font-size="31.0" fill="#525252" transform="matrix(1.00, 0.00, -0.00, -1.00, 465.1, 574.0)">c</text><text xml:space="preserve" font-family="GillSans-Light" font-size="31.0" fill="#525252" transform="matrix(1.00, 0.00, -0.00, -1.00, 478.0, 574.0)">t</text><text xml:space="preserve" font-family="GillSans-Light" font-size="31.0" fill="#525252" transform="matrix(1.00, 0.00, -0.00, -1.00, 487.4, 574.0)">u</text><text xml:space="preserve" font-family="GillSans-Light" font-size="31.0" fill="#525252" transform="matrix(1.00, 0.00, -0.00, -1.00, 502.6, 574.0)">é</text><text xml:space="preserve" font-family="GillSans-Light" font-size="31.0" fill="#525252" transform="matrix(1.00, 0.00, -0.00, -1.00, 517.4, 574.0)">e</text><text xml:space="preserve" font-family="GillSans-Light" font-size="31.0" fill="#525252" transform="matrix(1.00, 0.00, -0.00, -1.00, 532.3, 574.0)">s</text><text xml:space="preserve" font-family="GillSans-Light" font-size="31.0" fill="#525252" transform="matrix(1.00, 0.00, -0.00, -1.00, 543.3, 574.0)"> </text><text xml:space="preserve" font-family="GillSans-Light" font-size="31.0" fill="#525252" transform="matrix(1.00, 0.00, -0.00, -1.00, 551.9, 574.0)">s</text><text xml:space="preserve" font-family="GillSans-Light" font-size="31.0" fill="#525252" transform="matrix(1.00, 0.00, -0.00, -1.00, 562.8, 574.0)">u</text><text xml:space="preserve" font-family="GillSans-Light" font-size="31.0" fill="#525252" transform="matrix(1.00, 0.00, -0.00, -1.00, 578.0, 574.0)">r</text><text xml:space="preserve" font-family="GillSans-Light" font-size="31.0" fill="#525252" transform="matrix(1.00, 0.00, -0.00, -1.00, 588.4, 574.0)"> </text><text xml:space="preserve" font-family="GillSans-Light" font-size="31.0" fill="#525252" transform="matrix(1.00, 0.00, -0.00, -1.00, 597.0, 574.0)">u</text><text xml:space="preserve" font-family="GillSans-Light" font-size="31.0" fill="#525252" transform="matrix(1.00, 0.00, -0.00, -1.00, 612.2, 574.0)">n</text><text xml:space="preserve" font-family="GillSans-Light" font-size="31.0" fill="#525252" transform="matrix(1.00, 0.00, -0.00, -1.00, 627.4, 574.0)"> </text><text xml:space="preserve" font-family="GillSans-Light" font-size="31.0" fill="#525252" transform="matrix(1.00, 0.00, -0.00, -1.00, 636.0, 574.0)">R</text><text xml:space="preserve" font-family="GillSans-Light" font-size="31.0" fill="#525252" transform="matrix(1.00, 0.00, -0.00, -1.00, 653.8, 574.0)">P</text><text xml:space="preserve" font-family="GillSans-Light" font-size="31.0" fill="#525252" transform="matrix(1.00, 0.00, -0.00, -1.00, 669.6, 574.0)">i</text><text xml:space="preserve" font-family="GillSans-Light" font-size="31.0" fill="#525252" transform="matrix(1.00, 0.00, -0.00, -1.00, 675.4, 574.0)"> </text><text xml:space="preserve" font-family="GillSans-Light" font-size="31.0" fill="#525252" transform="matrix(1.00, 0.00, -0.00, -1.00, 684.0, 574.0)">2</text><text xml:space="preserve" font-family="GillSans-Light" font-size="31.0" fill="#525252" transform="matrix(1.00, 0.00, -0.00, -1.00, 699.5, 574.0)"> </text><text xml:space="preserve" font-family="GillSans-Light" font-size="31.0" fill="#525252" transform="matrix(1.00, 0.00, -0.00, -1.00, 708.1, 574.0)">:</text></g></g></g></svg>