<?xml version="1.0" encoding="UTF-8" standalone="no"?><svg xmlns="http://www.w3.org/2000/svg" xmlns:xlink="http://www.w3.org/1999/xlink" clip-rule="evenodd" stroke-miterlimit="4.00" viewBox="0 0 1024 768"><desc>SVG generated by Keynote</desc><defs></defs><g transform="matrix(1.00, 0.00, -0.00, -1.00, 0.0, 768.0)"><g><clipPath id="clip-15"><path d="M 0.0 768.0 L 1024.0 768.0 L 1024.0 0.0 L 0.0 0.0 Z M 0.0 768.0 "></path></clipPath><g clip-path="url(#clip-15)"><image xlink:href="../../293415CD-D1BA-41BB-8703-BAEDA9FFCE27/assets/D3CB8578D364082F6943B53F933CCC32.jpeg" width="1024.00" height="768.00" transform="matrix(1.00, 0.00, -0.00, -1.00, 0.0, 768.0)"></image></g></g><path d="M 0.0 0.0 L 972.0 0.0 L 972.0 52.0 L 0.0 52.0 Z M 0.0 0.0 " fill="none" stroke="#7F8685" stroke-width="1.00" transform="matrix(1.00, 0.00, 0.00, -1.00, 26.0, 730.0)"></path><g><clipPath id="clip-16"><path d="M 19.7 671.7 L 1004.3 671.7 L 1004.3 736.3 L 19.7 736.3 Z M 19.7 671.7 "></path></clipPath><g clip-path="url(#clip-16)"><text xml:space="preserve" font-family="GillSans-Light" font-size="38.0" fill="#525252" transform="matrix(1.00, 0.00, -0.00, -1.00, 221.0, 692.0)">L</text><text xml:space="preserve" font-family="GillSans-Light" font-size="38.0" fill="#525252" transform="matrix(1.00, 0.00, -0.00, -1.00, 238.8, 692.0)">e</text><text xml:space="preserve" font-family="GillSans-Light" font-size="38.0" fill="#525252" transform="matrix(1.00, 0.00, -0.00, -1.00, 257.0, 692.0)">s</text><text xml:space="preserve" font-family="GillSans-Light" font-size="38.0" fill="#525252" transform="matrix(1.00, 0.00, -0.00, -1.00, 270.5, 692.0)"> </text><text xml:space="preserve" font-family="GillSans-Light" font-size="38.0" fill="#525252" transform="matrix(1.00, 0.00, -0.00, -1.00, 281.0, 692.0)">C</text><text xml:space="preserve" font-family="GillSans-Light" font-size="38.0" fill="#525252" transform="matrix(1.00, 0.00, -0.00, -1.00, 306.8, 692.0)">r</text><text xml:space="preserve" font-family="GillSans-Light" font-size="38.0" fill="#525252" transform="matrix(1.00, 0.00, -0.00, -1.00, 320.4, 692.0)">i</text><text xml:space="preserve" font-family="GillSans-Light" font-size="38.0" fill="#525252" transform="matrix(1.00, 0.00, -0.00, -1.00, 327.5, 692.0)">t</text><text xml:space="preserve" font-family="GillSans-Light" font-size="38.0" fill="#525252" transform="matrix(1.00, 0.00, -0.00, -1.00, 339.0, 692.0)">è</text><text xml:space="preserve" font-family="GillSans-Light" font-size="38.0" fill="#525252" transform="matrix(1.00, 0.00, -0.00, -1.00, 357.2, 692.0)">r</text><text xml:space="preserve" font-family="GillSans-Light" font-size="38.0" fill="#525252" transform="matrix(1.00, 0.00, -0.00, -1.00, 369.8, 692.0)">e</text><text xml:space="preserve" font-family="GillSans-Light" font-size="38.0" fill="#525252" transform="matrix(1.00, 0.00, -0.00, -1.00, 388.0, 692.0)">s</text><text xml:space="preserve" font-family="GillSans-Light" font-size="38.0" fill="#525252" transform="matrix(1.00, 0.00, -0.00, -1.00, 401.5, 692.0)"> </text><text xml:space="preserve" font-family="GillSans-Light" font-size="38.0" fill="#525252" transform="matrix(1.00, 0.00, -0.00, -1.00, 412.0, 692.0)">d</text><text xml:space="preserve" font-family="GillSans-Light" font-size="38.0" fill="#525252" transform="matrix(1.00, 0.00, -0.00, -1.00, 431.4, 692.0)">’</text><text xml:space="preserve" font-family="GillSans-Light" font-size="38.0" fill="#525252" transform="matrix(1.00, 0.00, -0.00, -1.00, 438.1, 692.0)">a</text><text xml:space="preserve" font-family="GillSans-Light" font-size="38.0" fill="#525252" transform="matrix(1.00, 0.00, -0.00, -1.00, 454.3, 692.0)">l</text><text xml:space="preserve" font-family="GillSans-Light" font-size="38.0" fill="#525252" transform="matrix(1.00, 0.00, -0.00, -1.00, 461.4, 692.0)">i</text><text xml:space="preserve" font-family="GillSans-Light" font-size="38.0" fill="#525252" transform="matrix(1.00, 0.00, -0.00, -1.00, 468.6, 692.0)">m</text><text xml:space="preserve" font-family="GillSans-Light" font-size="38.0" fill="#525252" transform="matrix(1.00, 0.00, -0.00, -1.00, 497.9, 692.0)">e</text><text xml:space="preserve" font-family="GillSans-Light" font-size="38.0" fill="#525252" transform="matrix(1.00, 0.00, -0.00, -1.00, 516.1, 692.0)">n</text><text xml:space="preserve" font-family="GillSans-Light" font-size="38.0" fill="#525252" transform="matrix(1.00, 0.00, -0.00, -1.00, 534.7, 692.0)">t</text><text xml:space="preserve" font-family="GillSans-Light" font-size="38.0" fill="#525252" transform="matrix(1.00, 0.00, -0.00, -1.00, 546.2, 692.0)">a</text><text xml:space="preserve" font-family="GillSans-Light" font-size="38.0" fill="#525252" transform="matrix(1.00, 0.00, -0.00, -1.00, 562.4, 692.0)">t</text><text xml:space="preserve" font-family="GillSans-Light" font-size="38.0" fill="#525252" transform="matrix(1.00, 0.00, -0.00, -1.00, 573.8, 692.0)">i</text><text xml:space="preserve" font-family="GillSans-Light" font-size="38.0" fill="#525252" transform="matrix(1.00, 0.00, -0.00, -1.00, 581.0, 692.0)">o</text><text xml:space="preserve" font-family="GillSans-Light" font-size="38.0" fill="#525252" transform="matrix(1.00, 0.00, -0.00, -1.00, 601.6, 692.0)">n</text><text xml:space="preserve" font-family="GillSans-Light" font-size="38.0" fill="#525252" transform="matrix(1.00, 0.00, -0.00, -1.00, 620.2, 692.0)"> </text><text xml:space="preserve" font-family="GillSans-Light" font-size="38.0" fill="#525252" transform="matrix(1.00, 0.00, -0.00, -1.00, 630.8, 692.0)">d</text><text xml:space="preserve" font-family="GillSans-Light" font-size="38.0" fill="#525252" transform="matrix(1.00, 0.00, -0.00, -1.00, 650.1, 692.0)">u</text><text xml:space="preserve" font-family="GillSans-Light" font-size="38.0" fill="#525252" transform="matrix(1.00, 0.00, -0.00, -1.00, 668.8, 692.0)"> </text><text xml:space="preserve" font-family="GillSans-Light" font-size="38.0" fill="#525252" transform="matrix(1.00, 0.00, -0.00, -1.00, 679.3, 692.0)">S</text><text xml:space="preserve" font-family="GillSans-Light" font-size="38.0" fill="#525252" transform="matrix(1.00, 0.00, -0.00, -1.00, 697.2, 692.0)">y</text><text xml:space="preserve" font-family="GillSans-Light" font-size="38.0" fill="#525252" transform="matrix(1.00, 0.00, -0.00, -1.00, 713.0, 692.0)">s</text><text xml:space="preserve" font-family="GillSans-Light" font-size="38.0" fill="#525252" transform="matrix(1.00, 0.00, -0.00, -1.00, 726.5, 692.0)">t</text><text xml:space="preserve" font-family="GillSans-Light" font-size="38.0" fill="#525252" transform="matrix(1.00, 0.00, -0.00, -1.00, 737.9, 692.0)">è</text><text xml:space="preserve" font-family="GillSans-Light" font-size="38.0" fill="#525252" transform="matrix(1.00, 0.00, -0.00, -1.00, 756.1, 692.0)">m</text><text xml:space="preserve" font-family="GillSans-Light" font-size="38.0" fill="#525252" transform="matrix(1.00, 0.00, -0.00, -1.00, 785.4, 692.0)">e</text></g></g><path d="M 0.0 0.0 L 222.5 0.0 L 222.5 165.0 L 0.0 165.0 Z M 0.0 0.0 " fill="none" stroke="#7F8685" stroke-width="1.00" transform="matrix(1.00, 0.00, 0.00, -1.00, 23.1, 571.5)"></path><g><clipPath id="clip-17"><path d="M 18.0 401.3 L 250.8 401.3 L 250.8 576.7 L 18.0 576.7 Z M 18.0 401.3 "></path></clipPath><g clip-path="url(#clip-17)"><text xml:space="preserve" font-family="GillSans-Light" font-size="34.0" fill="#525252" transform="matrix(1.00, 0.00, -0.00, -1.00, 80.0, 536.0)">M</text><text xml:space="preserve" font-family="GillSans-Light" font-size="34.0" fill="#525252" transform="matrix(1.00, 0.00, -0.00, -1.00, 106.5, 536.0)">a</text><text xml:space="preserve" font-family="GillSans-Light" font-size="34.0" fill="#525252" transform="matrix(1.00, 0.00, -0.00, -1.00, 121.0, 536.0)">t</text><text xml:space="preserve" font-family="GillSans-Light" font-size="34.0" fill="#525252" transform="matrix(1.00, 0.00, -0.00, -1.00, 131.3, 536.0)">é</text><text xml:space="preserve" font-family="GillSans-Light" font-size="34.0" fill="#525252" transform="matrix(1.00, 0.00, -0.00, -1.00, 147.6, 536.0)">r</text><text xml:space="preserve" font-family="GillSans-Light" font-size="34.0" fill="#525252" transform="matrix(1.00, 0.00, -0.00, -1.00, 159.8, 536.0)">i</text><text xml:space="preserve" font-family="GillSans-Light" font-size="34.0" fill="#525252" transform="matrix(1.00, 0.00, -0.00, -1.00, 166.1, 536.0)">e</text><text xml:space="preserve" font-family="GillSans-Light" font-size="34.0" fill="#525252" transform="matrix(1.00, 0.00, -0.00, -1.00, 182.4, 536.0)">l</text><text xml:space="preserve" font-family="GillSans-Light" font-size="34.0" fill="#525252" transform="matrix(1.00, 0.00, -0.00, -1.00, 188.8, 536.0)"> </text><text xml:space="preserve" font-family="GillSans-Light" font-size="34.0" fill="#525252" transform="matrix(1.00, 0.00, -0.00, -1.00, 51.0, 497.0)">é</text><text xml:space="preserve" font-family="GillSans-Light" font-size="34.0" fill="#525252" transform="matrix(1.00, 0.00, -0.00, -1.00, 67.3, 497.0)">l</text><text xml:space="preserve" font-family="GillSans-Light" font-size="34.0" fill="#525252" transform="matrix(1.00, 0.00, -0.00, -1.00, 73.7, 497.0)">e</text><text xml:space="preserve" font-family="GillSans-Light" font-size="34.0" fill="#525252" transform="matrix(1.00, 0.00, -0.00, -1.00, 90.0, 497.0)">c</text><text xml:space="preserve" font-family="GillSans-Light" font-size="34.0" fill="#525252" transform="matrix(1.00, 0.00, -0.00, -1.00, 104.1, 497.0)">t</text><text xml:space="preserve" font-family="GillSans-Light" font-size="34.0" fill="#525252" transform="matrix(1.00, 0.00, -0.00, -1.00, 114.4, 497.0)">r</text><text xml:space="preserve" font-family="GillSans-Light" font-size="34.0" fill="#525252" transform="matrix(1.00, 0.00, -0.00, -1.00, 125.7, 497.0)">o</text><text xml:space="preserve" font-family="GillSans-Light" font-size="34.0" fill="#525252" transform="matrix(1.00, 0.00, -0.00, -1.00, 144.1, 497.0)">n</text><text xml:space="preserve" font-family="GillSans-Light" font-size="34.0" fill="#525252" transform="matrix(1.00, 0.00, -0.00, -1.00, 160.8, 497.0)">i</text><text xml:space="preserve" font-family="GillSans-Light" font-size="34.0" fill="#525252" transform="matrix(1.00, 0.00, -0.00, -1.00, 167.2, 497.0)">q</text><text xml:space="preserve" font-family="GillSans-Light" font-size="34.0" fill="#525252" transform="matrix(1.00, 0.00, -0.00, -1.00, 184.5, 497.0)">u</text><text xml:space="preserve" font-family="GillSans-Light" font-size="34.0" fill="#525252" transform="matrix(1.00, 0.00, -0.00, -1.00, 201.2, 497.0)">e</text><text xml:space="preserve" font-family="GillSans-Light" font-size="34.0" fill="#525252" transform="matrix(1.00, 0.00, -0.00, -1.00, 217.5, 497.0)"> </text><text xml:space="preserve" font-family="GillSans-Light" font-size="34.0" fill="#525252" transform="matrix(1.00, 0.00, -0.00, -1.00, 41.0, 458.0)">d</text><text xml:space="preserve" font-family="GillSans-Light" font-size="34.0" fill="#525252" transform="matrix(1.00, 0.00, -0.00, -1.00, 58.3, 458.0)">o</text><text xml:space="preserve" font-family="GillSans-Light" font-size="34.0" fill="#525252" transform="matrix(1.00, 0.00, -0.00, -1.00, 76.8, 458.0)">n</text><text xml:space="preserve" font-family="GillSans-Light" font-size="34.0" fill="#525252" transform="matrix(1.00, 0.00, -0.00, -1.00, 93.4, 458.0)">c</text><text xml:space="preserve" font-family="GillSans-Light" font-size="34.0" fill="#525252" transform="matrix(1.00, 0.00, -0.00, -1.00, 107.6, 458.0)"> </text><text xml:space="preserve" font-family="GillSans-LightItalic" font-style="italic" font-size="34.0" fill="#525252" transform="matrix(1.00, 0.00, -0.00, -1.00, 117.1, 458.0)">f</text><text xml:space="preserve" font-family="GillSans-LightItalic" font-style="italic" font-size="34.0" fill="#525252" transform="matrix(1.00, 0.00, -0.00, -1.00, 125.6, 458.0)">r</text><text xml:space="preserve" font-family="GillSans-LightItalic" font-style="italic" font-size="34.0" fill="#525252" transform="matrix(1.00, 0.00, -0.00, -1.00, 134.1, 458.0)">a</text><text xml:space="preserve" font-family="GillSans-LightItalic" font-style="italic" font-size="34.0" fill="#525252" transform="matrix(1.00, 0.00, -0.00, -1.00, 150.4, 458.0)">g</text><text xml:space="preserve" font-family="GillSans-LightItalic" font-style="italic" font-size="34.0" fill="#525252" transform="matrix(1.00, 0.00, -0.00, -1.00, 164.9, 458.0)">i</text><text xml:space="preserve" font-family="GillSans-LightItalic" font-style="italic" font-size="34.0" fill="#525252" transform="matrix(1.00, 0.00, -0.00, -1.00, 170.9, 458.0)">l</text><text xml:space="preserve" font-family="GillSans-LightItalic" font-style="italic" font-size="34.0" fill="#525252" transform="matrix(1.00, 0.00, -0.00, -1.00, 176.9, 458.0)">e</text><text xml:space="preserve" font-family="GillSans-Light" font-size="34.0" fill="#525252" transform="matrix(1.00, 0.00, -0.00, -1.00, 192.1, 458.0)"> </text><text xml:space="preserve" font-family="GillSans-Light" font-size="34.0" fill="#525252" transform="matrix(1.00, 0.00, -0.00, -1.00, 201.6, 458.0)">e</text><text xml:space="preserve" font-family="GillSans-Light" font-size="34.0" fill="#525252" transform="matrix(1.00, 0.00, -0.00, -1.00, 217.9, 458.0)">t</text><text xml:space="preserve" font-family="GillSans-Light" font-size="34.0" fill="#525252" transform="matrix(1.00, 0.00, -0.00, -1.00, 228.1, 458.0)"> </text><path d="M 93.2 115.5 L 168.3 115.5 " fill="none" stroke="#525252" stroke-width="1.69" stroke-miterlimit="0.00" transform="matrix(1.00, 0.00, 0.00, -1.00, 23.6, 571.0)"></path><text xml:space="preserve" font-family="GillSans-LightItalic" font-style="italic" font-size="34.0" fill="#525252" transform="matrix(1.00, 0.00, -0.00, -1.00, 83.0, 419.0)">s</text><text xml:space="preserve" font-family="GillSans-LightItalic" font-style="italic" font-size="34.0" fill="#525252" transform="matrix(1.00, 0.00, -0.00, -1.00, 95.0, 419.0)">e</text><text xml:space="preserve" font-family="GillSans-LightItalic" font-style="italic" font-size="34.0" fill="#525252" transform="matrix(1.00, 0.00, -0.00, -1.00, 110.3, 419.0)">n</text><text xml:space="preserve" font-family="GillSans-LightItalic" font-style="italic" font-size="34.0" fill="#525252" transform="matrix(1.00, 0.00, -0.00, -1.00, 125.9, 419.0)">s</text><text xml:space="preserve" font-family="GillSans-LightItalic" font-style="italic" font-size="34.0" fill="#525252" transform="matrix(1.00, 0.00, -0.00, -1.00, 137.9, 419.0)">i</text><text xml:space="preserve" font-family="GillSans-LightItalic" font-style="italic" font-size="34.0" fill="#525252" transform="matrix(1.00, 0.00, -0.00, -1.00, 143.9, 419.0)">b</text><text xml:space="preserve" font-family="GillSans-LightItalic" font-style="italic" font-size="34.0" fill="#525252" transform="matrix(1.00, 0.00, -0.00, -1.00, 159.5, 419.0)">l</text><text xml:space="preserve" font-family="GillSans-LightItalic" font-style="italic" font-size="34.0" fill="#525252" transform="matrix(1.00, 0.00, -0.00, -1.00, 165.5, 419.0)">e</text><text xml:space="preserve" font-family="GillSans-Light" font-size="34.0" fill="#525252" transform="matrix(1.00, 0.00, -0.00, -1.00, 180.8, 419.0)">.</text><path d="M 58.9 154.5 L 156.6 154.5 " fill="none" stroke="#525252" stroke-width="1.69" stroke-miterlimit="0.00" transform="matrix(1.00, 0.00, 0.00, -1.00, 23.6, 571.0)"></path></g></g><path d="M 0.0 0.0 L 249.4 0.0 L 249.4 132.0 L 0.0 132.0 Z M 0.0 0.0 " fill="none" stroke="#7F8685" stroke-width="1.00" transform="matrix(1.00, 0.00, 0.00, -1.00, 734.5, 555.0)"></path><g><clipPath id="clip-18"><path d="M 728.8 417.3 L 989.6 417.3 L 989.6 560.7 L 728.8 560.7 Z M 728.8 417.3 "></path></clipPath><g clip-path="url(#clip-18)"><text xml:space="preserve" font-family="GillSans-Light" font-size="36.0" fill="#525252" transform="matrix(1.00, 0.00, -0.00, -1.00, 744.0, 518.0)">F</text><text xml:space="preserve" font-family="GillSans-Light" font-size="36.0" fill="#525252" transform="matrix(1.00, 0.00, -0.00, -1.00, 759.8, 518.0)">o</text><text xml:space="preserve" font-family="GillSans-Light" font-size="36.0" fill="#525252" transform="matrix(1.00, 0.00, -0.00, -1.00, 779.3, 518.0)">u</text><text xml:space="preserve" font-family="GillSans-Light" font-size="36.0" fill="#525252" transform="matrix(1.00, 0.00, -0.00, -1.00, 796.9, 518.0)">r</text><text xml:space="preserve" font-family="GillSans-Light" font-size="36.0" fill="#525252" transform="matrix(1.00, 0.00, -0.00, -1.00, 809.8, 518.0)">n</text><text xml:space="preserve" font-family="GillSans-Light" font-size="36.0" fill="#525252" transform="matrix(1.00, 0.00, -0.00, -1.00, 827.5, 518.0)">i</text><text xml:space="preserve" font-family="GillSans-Light" font-size="36.0" fill="#525252" transform="matrix(1.00, 0.00, -0.00, -1.00, 834.2, 518.0)">r</text><text xml:space="preserve" font-family="GillSans-Light" font-size="36.0" fill="#525252" transform="matrix(1.00, 0.00, -0.00, -1.00, 846.2, 518.0)"> </text><text xml:space="preserve" font-family="GillSans-Light" font-size="36.0" fill="#525252" transform="matrix(1.00, 0.00, -0.00, -1.00, 856.2, 518.0)">a</text><text xml:space="preserve" font-family="GillSans-Light" font-size="36.0" fill="#525252" transform="matrix(1.00, 0.00, -0.00, -1.00, 871.6, 518.0)">s</text><text xml:space="preserve" font-family="GillSans-Light" font-size="36.0" fill="#525252" transform="matrix(1.00, 0.00, -0.00, -1.00, 884.3, 518.0)">s</text><text xml:space="preserve" font-family="GillSans-Light" font-size="36.0" fill="#525252" transform="matrix(1.00, 0.00, -0.00, -1.00, 897.1, 518.0)">e</text><text xml:space="preserve" font-family="GillSans-Light" font-size="36.0" fill="#525252" transform="matrix(1.00, 0.00, -0.00, -1.00, 914.3, 518.0)">z</text><text xml:space="preserve" font-family="GillSans-Light" font-size="36.0" fill="#525252" transform="matrix(1.00, 0.00, -0.00, -1.00, 928.6, 518.0)"> </text><text xml:space="preserve" font-family="GillSans-Light" font-size="36.0" fill="#525252" transform="matrix(1.00, 0.00, -0.00, -1.00, 938.6, 518.0)">d</text><text xml:space="preserve" font-family="GillSans-Light" font-size="36.0" fill="#525252" transform="matrix(1.00, 0.00, -0.00, -1.00, 956.9, 518.0)">e</text><text xml:space="preserve" font-family="GillSans-Light" font-size="36.0" fill="#525252" transform="matrix(1.00, 0.00, -0.00, -1.00, 974.2, 518.0)"> </text><text xml:space="preserve" font-family="GillSans-Light" font-size="36.0" fill="#525252" transform="matrix(1.00, 0.00, -0.00, -1.00, 754.0, 477.0)">p</text><text xml:space="preserve" font-family="GillSans-Light" font-size="36.0" fill="#525252" transform="matrix(1.00, 0.00, -0.00, -1.00, 772.3, 477.0)">u</text><text xml:space="preserve" font-family="GillSans-Light" font-size="36.0" fill="#525252" transform="matrix(1.00, 0.00, -0.00, -1.00, 790.0, 477.0)">i</text><text xml:space="preserve" font-family="GillSans-Light" font-size="36.0" fill="#525252" transform="matrix(1.00, 0.00, -0.00, -1.00, 796.8, 477.0)">s</text><text xml:space="preserve" font-family="GillSans-Light" font-size="36.0" fill="#525252" transform="matrix(1.00, 0.00, -0.00, -1.00, 809.5, 477.0)">s</text><text xml:space="preserve" font-family="GillSans-Light" font-size="36.0" fill="#525252" transform="matrix(1.00, 0.00, -0.00, -1.00, 822.3, 477.0)">a</text><text xml:space="preserve" font-family="GillSans-Light" font-size="36.0" fill="#525252" transform="matrix(1.00, 0.00, -0.00, -1.00, 837.6, 477.0)">n</text><text xml:space="preserve" font-family="GillSans-Light" font-size="36.0" fill="#525252" transform="matrix(1.00, 0.00, -0.00, -1.00, 855.3, 477.0)">c</text><text xml:space="preserve" font-family="GillSans-Light" font-size="36.0" fill="#525252" transform="matrix(1.00, 0.00, -0.00, -1.00, 870.3, 477.0)">e</text><text xml:space="preserve" font-family="GillSans-Light" font-size="36.0" fill="#525252" transform="matrix(1.00, 0.00, -0.00, -1.00, 887.5, 477.0)"> </text><text xml:space="preserve" font-family="GillSans-Light" font-size="36.0" fill="#525252" transform="matrix(1.00, 0.00, -0.00, -1.00, 897.5, 477.0)">p</text><text xml:space="preserve" font-family="GillSans-Light" font-size="36.0" fill="#525252" transform="matrix(1.00, 0.00, -0.00, -1.00, 915.9, 477.0)">o</text><text xml:space="preserve" font-family="GillSans-Light" font-size="36.0" fill="#525252" transform="matrix(1.00, 0.00, -0.00, -1.00, 935.4, 477.0)">u</text><text xml:space="preserve" font-family="GillSans-Light" font-size="36.0" fill="#525252" transform="matrix(1.00, 0.00, -0.00, -1.00, 953.0, 477.0)">r</text><text xml:space="preserve" font-family="GillSans-Light" font-size="36.0" fill="#525252" transform="matrix(1.00, 0.00, -0.00, -1.00, 965.0, 477.0)"> </text><text xml:space="preserve" font-family="GillSans-Light" font-size="36.0" fill="#525252" transform="matrix(1.00, 0.00, -0.00, -1.00, 751.0, 436.0)">t</text><text xml:space="preserve" font-family="GillSans-Light" font-size="36.0" fill="#525252" transform="matrix(1.00, 0.00, -0.00, -1.00, 761.9, 436.0)">o</text><text xml:space="preserve" font-family="GillSans-Light" font-size="36.0" fill="#525252" transform="matrix(1.00, 0.00, -0.00, -1.00, 781.4, 436.0)">u</text><text xml:space="preserve" font-family="GillSans-Light" font-size="36.0" fill="#525252" transform="matrix(1.00, 0.00, -0.00, -1.00, 799.0, 436.0)">t</text><text xml:space="preserve" font-family="GillSans-Light" font-size="36.0" fill="#525252" transform="matrix(1.00, 0.00, -0.00, -1.00, 809.9, 436.0)"> </text><text xml:space="preserve" font-family="GillSans-Light" font-size="36.0" fill="#525252" transform="matrix(1.00, 0.00, -0.00, -1.00, 819.9, 436.0)">l</text><text xml:space="preserve" font-family="GillSans-Light" font-size="36.0" fill="#525252" transform="matrix(1.00, 0.00, -0.00, -1.00, 826.6, 436.0)">e</text><text xml:space="preserve" font-family="GillSans-Light" font-size="36.0" fill="#525252" transform="matrix(1.00, 0.00, -0.00, -1.00, 843.9, 436.0)"> </text><text xml:space="preserve" font-family="GillSans-Light" font-size="36.0" fill="#525252" transform="matrix(1.00, 0.00, -0.00, -1.00, 853.9, 436.0)">s</text><text xml:space="preserve" font-family="GillSans-Light" font-size="36.0" fill="#525252" transform="matrix(1.00, 0.00, -0.00, -1.00, 866.6, 436.0)">y</text><text xml:space="preserve" font-family="GillSans-Light" font-size="36.0" fill="#525252" transform="matrix(1.00, 0.00, -0.00, -1.00, 881.6, 436.0)">s</text><text xml:space="preserve" font-family="GillSans-Light" font-size="36.0" fill="#525252" transform="matrix(1.00, 0.00, -0.00, -1.00, 894.4, 436.0)">t</text><text xml:space="preserve" font-family="GillSans-Light" font-size="36.0" fill="#525252" transform="matrix(1.00, 0.00, -0.00, -1.00, 905.2, 436.0)">è</text><text xml:space="preserve" font-family="GillSans-Light" font-size="36.0" fill="#525252" transform="matrix(1.00, 0.00, -0.00, -1.00, 922.5, 436.0)">m</text><text xml:space="preserve" font-family="GillSans-Light" font-size="36.0" fill="#525252" transform="matrix(1.00, 0.00, -0.00, -1.00, 950.2, 436.0)">e</text></g></g><image xlink:href="../../8CEC2FA1-1739-4B53-906A-389D942FC3E8/assets/2B9E373E9BFC0806499340B6F1AAF363.png" width="292.00" height="219.00" transform="matrix(1.00, 0.00, -0.00, -1.00, 334.0, 582.0)"></image><image xlink:href="../../8CEC2FA1-1739-4B53-906A-389D942FC3E8/assets/8CB075CDC1AA8729F6D5D1809728E435.png" width="229.00" height="211.00" transform="matrix(1.00, 0.00, -0.00, -1.00, 745.0, 376.0)"></image><path d="M 0.0 0.0 L 264.9 0.0 L 264.9 132.0 L 0.0 132.0 Z M 0.0 0.0 " fill="none" stroke="#7F8685" stroke-width="1.00" transform="matrix(1.00, 0.00, 0.00, -1.00, 2.0, 336.0)"></path><g><clipPath id="clip-19"><path d="M -3.8 198.3 L 272.6 198.3 L 272.6 341.7 L -3.8 341.7 Z M -3.8 198.3 "></path></clipPath><g clip-path="url(#clip-19)"><text xml:space="preserve" font-family="GillSans-LightItalic" font-style="italic" font-size="36.0" fill="#525252" transform="matrix(1.00, 0.00, -0.00, -1.00, 77.0, 299.0)">P</text><text xml:space="preserve" font-family="GillSans-LightItalic" font-style="italic" font-size="36.0" fill="#525252" transform="matrix(1.00, 0.00, -0.00, -1.00, 93.9, 299.0)">l</text><text xml:space="preserve" font-family="GillSans-LightItalic" font-style="italic" font-size="36.0" fill="#525252" transform="matrix(1.00, 0.00, -0.00, -1.00, 100.3, 299.0)">u</text><text xml:space="preserve" font-family="GillSans-LightItalic" font-style="italic" font-size="36.0" fill="#525252" transform="matrix(1.00, 0.00, -0.00, -1.00, 116.7, 299.0)">s</text><text xml:space="preserve" font-family="GillSans-LightItalic" font-style="italic" font-size="36.0" fill="#525252" transform="matrix(1.00, 0.00, -0.00, -1.00, 129.5, 299.0)">i</text><text xml:space="preserve" font-family="GillSans-LightItalic" font-style="italic" font-size="36.0" fill="#525252" transform="matrix(1.00, 0.00, -0.00, -1.00, 135.8, 299.0)">e</text><text xml:space="preserve" font-family="GillSans-LightItalic" font-style="italic" font-size="36.0" fill="#525252" transform="matrix(1.00, 0.00, -0.00, -1.00, 152.0, 299.0)">u</text><text xml:space="preserve" font-family="GillSans-LightItalic" font-style="italic" font-size="36.0" fill="#525252" transform="matrix(1.00, 0.00, -0.00, -1.00, 168.5, 299.0)">r</text><text xml:space="preserve" font-family="GillSans-LightItalic" font-style="italic" font-size="36.0" fill="#525252" transform="matrix(1.00, 0.00, -0.00, -1.00, 179.1, 299.0)">s</text><path d="M 74.5 39.1 L 189.4 39.1 " fill="none" stroke="#525252" stroke-width="1.79" stroke-miterlimit="0.00" transform="matrix(1.00, 0.00, 0.00, -1.00, 2.5, 335.5)"></path><text xml:space="preserve" font-family="GillSans-Light" font-size="36.0" fill="#525252" transform="matrix(1.00, 0.00, -0.00, -1.00, 77.0, 258.0)">t</text><text xml:space="preserve" font-family="GillSans-Light" font-size="36.0" fill="#525252" transform="matrix(1.00, 0.00, -0.00, -1.00, 87.9, 258.0)">e</text><text xml:space="preserve" font-family="GillSans-Light" font-size="36.0" fill="#525252" transform="matrix(1.00, 0.00, -0.00, -1.00, 105.1, 258.0)">n</text><text xml:space="preserve" font-family="GillSans-Light" font-size="36.0" fill="#525252" transform="matrix(1.00, 0.00, -0.00, -1.00, 122.8, 258.0)">s</text><text xml:space="preserve" font-family="GillSans-Light" font-size="36.0" fill="#525252" transform="matrix(1.00, 0.00, -0.00, -1.00, 135.5, 258.0)">i</text><text xml:space="preserve" font-family="GillSans-Light" font-size="36.0" fill="#525252" transform="matrix(1.00, 0.00, -0.00, -1.00, 142.3, 258.0)">o</text><text xml:space="preserve" font-family="GillSans-Light" font-size="36.0" fill="#525252" transform="matrix(1.00, 0.00, -0.00, -1.00, 161.8, 258.0)">n</text><text xml:space="preserve" font-family="GillSans-Light" font-size="36.0" fill="#525252" transform="matrix(1.00, 0.00, -0.00, -1.00, 179.4, 258.0)">s</text><text xml:space="preserve" font-family="GillSans-Light" font-size="36.0" fill="#525252" transform="matrix(1.00, 0.00, -0.00, -1.00, 192.2, 258.0)"> </text><text xml:space="preserve" font-family="GillSans-Light" font-size="36.0" fill="#525252" transform="matrix(1.00, 0.00, -0.00, -1.00, 36.0, 217.0)">d</text><text xml:space="preserve" font-family="GillSans-Light" font-size="36.0" fill="#525252" transform="matrix(1.00, 0.00, -0.00, -1.00, 54.3, 217.0)">’</text><text xml:space="preserve" font-family="GillSans-Light" font-size="36.0" fill="#525252" transform="matrix(1.00, 0.00, -0.00, -1.00, 60.7, 217.0)">a</text><text xml:space="preserve" font-family="GillSans-Light" font-size="36.0" fill="#525252" transform="matrix(1.00, 0.00, -0.00, -1.00, 76.1, 217.0)">l</text><text xml:space="preserve" font-family="GillSans-Light" font-size="36.0" fill="#525252" transform="matrix(1.00, 0.00, -0.00, -1.00, 82.8, 217.0)">i</text><text xml:space="preserve" font-family="GillSans-Light" font-size="36.0" fill="#525252" transform="matrix(1.00, 0.00, -0.00, -1.00, 89.6, 217.0)">m</text><text xml:space="preserve" font-family="GillSans-Light" font-size="36.0" fill="#525252" transform="matrix(1.00, 0.00, -0.00, -1.00, 117.3, 217.0)">e</text><text xml:space="preserve" font-family="GillSans-Light" font-size="36.0" fill="#525252" transform="matrix(1.00, 0.00, -0.00, -1.00, 134.6, 217.0)">n</text><text xml:space="preserve" font-family="GillSans-Light" font-size="36.0" fill="#525252" transform="matrix(1.00, 0.00, -0.00, -1.00, 152.2, 217.0)">t</text><text xml:space="preserve" font-family="GillSans-Light" font-size="36.0" fill="#525252" transform="matrix(1.00, 0.00, -0.00, -1.00, 163.1, 217.0)">a</text><text xml:space="preserve" font-family="GillSans-Light" font-size="36.0" fill="#525252" transform="matrix(1.00, 0.00, -0.00, -1.00, 178.5, 217.0)">t</text><text xml:space="preserve" font-family="GillSans-Light" font-size="36.0" fill="#525252" transform="matrix(1.00, 0.00, -0.00, -1.00, 189.3, 217.0)">i</text><text xml:space="preserve" font-family="GillSans-Light" font-size="36.0" fill="#525252" transform="matrix(1.00, 0.00, -0.00, -1.00, 196.1, 217.0)">o</text><text xml:space="preserve" font-family="GillSans-Light" font-size="36.0" fill="#525252" transform="matrix(1.00, 0.00, -0.00, -1.00, 215.6, 217.0)">n</text></g></g><path d="M 0.0 0.0 L 222.5 0.0 L 222.5 132.0 L 0.0 132.0 Z M 0.0 0.0 " fill="none" stroke="#7F8685" stroke-width="1.00" transform="matrix(1.00, 0.00, 0.00, -1.00, 368.8, 336.0)"></path><g><clipPath id="clip-20"><path d="M 363.1 198.3 L 597.1 198.3 L 597.1 341.7 L 363.1 341.7 Z M 363.1 198.3 "></path></clipPath><g clip-path="url(#clip-20)"><text xml:space="preserve" font-family="GillSans-Light" font-size="36.0" fill="#525252" transform="matrix(1.00, 0.00, -0.00, -1.00, 409.0, 299.0)">P</text><text xml:space="preserve" font-family="GillSans-Light" font-size="36.0" fill="#525252" transform="matrix(1.00, 0.00, -0.00, -1.00, 425.6, 299.0)">e</text><text xml:space="preserve" font-family="GillSans-Light" font-size="36.0" fill="#525252" transform="matrix(1.00, 0.00, -0.00, -1.00, 442.8, 299.0)">r</text><text xml:space="preserve" font-family="GillSans-Light" font-size="36.0" fill="#525252" transform="matrix(1.00, 0.00, -0.00, -1.00, 455.7, 299.0)">m</text><text xml:space="preserve" font-family="GillSans-Light" font-size="36.0" fill="#525252" transform="matrix(1.00, 0.00, -0.00, -1.00, 483.4, 299.0)">e</text><text xml:space="preserve" font-family="GillSans-Light" font-size="36.0" fill="#525252" transform="matrix(1.00, 0.00, -0.00, -1.00, 500.7, 299.0)">t</text><text xml:space="preserve" font-family="GillSans-Light" font-size="36.0" fill="#525252" transform="matrix(1.00, 0.00, -0.00, -1.00, 511.5, 299.0)">t</text><text xml:space="preserve" font-family="GillSans-Light" font-size="36.0" fill="#525252" transform="matrix(1.00, 0.00, -0.00, -1.00, 522.4, 299.0)">r</text><text xml:space="preserve" font-family="GillSans-Light" font-size="36.0" fill="#525252" transform="matrix(1.00, 0.00, -0.00, -1.00, 534.4, 299.0)">e</text><text xml:space="preserve" font-family="GillSans-Light" font-size="36.0" fill="#525252" transform="matrix(1.00, 0.00, -0.00, -1.00, 551.6, 299.0)"> </text><text xml:space="preserve" font-family="GillSans-LightItalic" font-style="italic" font-size="36.0" fill="#525252" transform="matrix(1.00, 0.00, -0.00, -1.00, 392.0, 258.0)">l</text><text xml:space="preserve" font-family="GillSans-LightItalic" font-style="italic" font-size="36.0" fill="#525252" transform="matrix(1.00, 0.00, -0.00, -1.00, 398.4, 258.0)">’</text><text xml:space="preserve" font-family="GillSans-LightItalic" font-style="italic" font-size="36.0" fill="#525252" transform="matrix(1.00, 0.00, -0.00, -1.00, 404.4, 258.0)">é</text><text xml:space="preserve" font-family="GillSans-LightItalic" font-style="italic" font-size="36.0" fill="#525252" transform="matrix(1.00, 0.00, -0.00, -1.00, 420.5, 258.0)">v</text><text xml:space="preserve" font-family="GillSans-LightItalic" font-style="italic" font-size="36.0" fill="#525252" transform="matrix(1.00, 0.00, -0.00, -1.00, 433.7, 258.0)">o</text><text xml:space="preserve" font-family="GillSans-LightItalic" font-style="italic" font-size="36.0" fill="#525252" transform="matrix(1.00, 0.00, -0.00, -1.00, 449.8, 258.0)">l</text><text xml:space="preserve" font-family="GillSans-LightItalic" font-style="italic" font-size="36.0" fill="#525252" transform="matrix(1.00, 0.00, -0.00, -1.00, 456.2, 258.0)">u</text><text xml:space="preserve" font-family="GillSans-LightItalic" font-style="italic" font-size="36.0" fill="#525252" transform="matrix(1.00, 0.00, -0.00, -1.00, 472.7, 258.0)">t</text><text xml:space="preserve" font-family="GillSans-LightItalic" font-style="italic" font-size="36.0" fill="#525252" transform="matrix(1.00, 0.00, -0.00, -1.00, 482.8, 258.0)">i</text><text xml:space="preserve" font-family="GillSans-LightItalic" font-style="italic" font-size="36.0" fill="#525252" transform="matrix(1.00, 0.00, -0.00, -1.00, 489.1, 258.0)">o</text><text xml:space="preserve" font-family="GillSans-LightItalic" font-style="italic" font-size="36.0" fill="#525252" transform="matrix(1.00, 0.00, -0.00, -1.00, 505.3, 258.0)">n</text><text xml:space="preserve" font-family="GillSans-Light" font-size="36.0" fill="#525252" transform="matrix(1.00, 0.00, -0.00, -1.00, 521.7, 258.0)"> </text><text xml:space="preserve" font-family="GillSans-Light" font-size="36.0" fill="#525252" transform="matrix(1.00, 0.00, -0.00, -1.00, 531.7, 258.0)">d</text><text xml:space="preserve" font-family="GillSans-Light" font-size="36.0" fill="#525252" transform="matrix(1.00, 0.00, -0.00, -1.00, 550.1, 258.0)">u</text><text xml:space="preserve" font-family="GillSans-Light" font-size="36.0" fill="#525252" transform="matrix(1.00, 0.00, -0.00, -1.00, 567.7, 258.0)"> </text><path d="M 22.9 80.1 L 152.6 80.1 " fill="none" stroke="#525252" stroke-width="1.79" stroke-miterlimit="0.00" transform="matrix(1.00, 0.00, 0.00, -1.00, 369.3, 335.5)"></path><text xml:space="preserve" font-family="GillSans-Light" font-size="36.0" fill="#525252" transform="matrix(1.00, 0.00, -0.00, -1.00, 423.0, 217.0)">s</text><text xml:space="preserve" font-family="GillSans-Light" font-size="36.0" fill="#525252" transform="matrix(1.00, 0.00, -0.00, -1.00, 435.7, 217.0)">y</text><text xml:space="preserve" font-family="GillSans-Light" font-size="36.0" fill="#525252" transform="matrix(1.00, 0.00, -0.00, -1.00, 450.8, 217.0)">s</text><text xml:space="preserve" font-family="GillSans-Light" font-size="36.0" fill="#525252" transform="matrix(1.00, 0.00, -0.00, -1.00, 463.5, 217.0)">t</text><text xml:space="preserve" font-family="GillSans-Light" font-size="36.0" fill="#525252" transform="matrix(1.00, 0.00, -0.00, -1.00, 474.4, 217.0)">è</text><text xml:space="preserve" font-family="GillSans-Light" font-size="36.0" fill="#525252" transform="matrix(1.00, 0.00, -0.00, -1.00, 491.6, 217.0)">m</text><text xml:space="preserve" font-family="GillSans-Light" font-size="36.0" fill="#525252" transform="matrix(1.00, 0.00, -0.00, -1.00, 519.4, 217.0)">e</text></g></g><text xml:space="preserve" font-family="GillSans-Light" font-size="18.0" fill="#525252" transform="matrix(1.00, 0.00, -0.00, -1.00, 507.0, 18.0)">4</text></g></svg>