<?xml version="1.0" encoding="UTF-8" standalone="no"?><svg xmlns="http://www.w3.org/2000/svg" xmlns:xlink="http://www.w3.org/1999/xlink" clip-rule="evenodd" stroke-miterlimit="4.00" viewBox="0 0 1024 768"><desc>SVG generated by Keynote</desc><defs></defs><g transform="matrix(1.00, 0.00, -0.00, -1.00, 0.0, 768.0)"><g><clipPath id="clip-211"><path d="M 0.0 768.0 L 1024.0 768.0 L 1024.0 0.0 L 0.0 0.0 Z M 0.0 768.0 "></path></clipPath><g clip-path="url(#clip-211)"><image xlink:href="../../293415CD-D1BA-41BB-8703-BAEDA9FFCE27/assets/D3CB8578D364082F6943B53F933CCC32.jpeg" width="1024.00" height="768.00" transform="matrix(1.00, 0.00, -0.00, -1.00, 0.0, 768.0)"></image></g></g><path d="M 0.0 0.0 L 954.5 0.0 L 954.5 65.4 L 0.0 65.4 Z M 0.0 0.0 " fill="none" stroke="#7F8685" stroke-width="1.00" transform="matrix(1.00, 0.00, 0.00, -1.00, 34.8, 748.0)"></path><g><clipPath id="clip-212"><path d="M 29.0 683.2 L 995.0 683.2 L 995.0 747.8 L 29.0 747.8 Z M 29.0 683.2 "></path></clipPath><g clip-path="url(#clip-212)"><text xml:space="preserve" font-family="GillSans-Light" font-size="38.0" fill="#525252" transform="matrix(1.00, 0.00, -0.00, -1.00, 284.0, 703.0)">V</text><text xml:space="preserve" font-family="GillSans-Light" font-size="38.0" fill="#525252" transform="matrix(1.00, 0.00, -0.00, -1.00, 304.7, 703.0)">a</text><text xml:space="preserve" font-family="GillSans-Light" font-size="38.0" fill="#525252" transform="matrix(1.00, 0.00, -0.00, -1.00, 320.9, 703.0)">l</text><text xml:space="preserve" font-family="GillSans-Light" font-size="38.0" fill="#525252" transform="matrix(1.00, 0.00, -0.00, -1.00, 328.0, 703.0)">i</text><text xml:space="preserve" font-family="GillSans-Light" font-size="38.0" fill="#525252" transform="matrix(1.00, 0.00, -0.00, -1.00, 335.2, 703.0)">d</text><text xml:space="preserve" font-family="GillSans-Light" font-size="38.0" fill="#525252" transform="matrix(1.00, 0.00, -0.00, -1.00, 354.6, 703.0)">a</text><text xml:space="preserve" font-family="GillSans-Light" font-size="38.0" fill="#525252" transform="matrix(1.00, 0.00, -0.00, -1.00, 370.8, 703.0)">t</text><text xml:space="preserve" font-family="GillSans-Light" font-size="38.0" fill="#525252" transform="matrix(1.00, 0.00, -0.00, -1.00, 382.2, 703.0)">i</text><text xml:space="preserve" font-family="GillSans-Light" font-size="38.0" fill="#525252" transform="matrix(1.00, 0.00, -0.00, -1.00, 389.4, 703.0)">o</text><text xml:space="preserve" font-family="GillSans-Light" font-size="38.0" fill="#525252" transform="matrix(1.00, 0.00, -0.00, -1.00, 410.0, 703.0)">n</text><text xml:space="preserve" font-family="GillSans-Light" font-size="38.0" fill="#525252" transform="matrix(1.00, 0.00, -0.00, -1.00, 428.6, 703.0)"> </text><text xml:space="preserve" font-family="GillSans-Light" font-size="38.0" fill="#525252" transform="matrix(1.00, 0.00, -0.00, -1.00, 439.2, 703.0)">d</text><text xml:space="preserve" font-family="GillSans-Light" font-size="38.0" fill="#525252" transform="matrix(1.00, 0.00, -0.00, -1.00, 458.5, 703.0)">e</text><text xml:space="preserve" font-family="GillSans-Light" font-size="38.0" fill="#525252" transform="matrix(1.00, 0.00, -0.00, -1.00, 476.7, 703.0)">s</text><text xml:space="preserve" font-family="GillSans-Light" font-size="38.0" fill="#525252" transform="matrix(1.00, 0.00, -0.00, -1.00, 490.2, 703.0)"> </text><text xml:space="preserve" font-family="GillSans-Light" font-size="38.0" fill="#525252" transform="matrix(1.00, 0.00, -0.00, -1.00, 500.7, 703.0)">C</text><text xml:space="preserve" font-family="GillSans-Light" font-size="38.0" fill="#525252" transform="matrix(1.00, 0.00, -0.00, -1.00, 526.4, 703.0)">a</text><text xml:space="preserve" font-family="GillSans-Light" font-size="38.0" fill="#525252" transform="matrix(1.00, 0.00, -0.00, -1.00, 542.6, 703.0)">r</text><text xml:space="preserve" font-family="GillSans-Light" font-size="38.0" fill="#525252" transform="matrix(1.00, 0.00, -0.00, -1.00, 556.2, 703.0)">a</text><text xml:space="preserve" font-family="GillSans-Light" font-size="38.0" fill="#525252" transform="matrix(1.00, 0.00, -0.00, -1.00, 572.4, 703.0)">c</text><text xml:space="preserve" font-family="GillSans-Light" font-size="38.0" fill="#525252" transform="matrix(1.00, 0.00, -0.00, -1.00, 588.3, 703.0)">t</text><text xml:space="preserve" font-family="GillSans-Light" font-size="38.0" fill="#525252" transform="matrix(1.00, 0.00, -0.00, -1.00, 599.8, 703.0)">é</text><text xml:space="preserve" font-family="GillSans-Light" font-size="38.0" fill="#525252" transform="matrix(1.00, 0.00, -0.00, -1.00, 618.0, 703.0)">r</text><text xml:space="preserve" font-family="GillSans-Light" font-size="38.0" fill="#525252" transform="matrix(1.00, 0.00, -0.00, -1.00, 631.6, 703.0)">i</text><text xml:space="preserve" font-family="GillSans-Light" font-size="38.0" fill="#525252" transform="matrix(1.00, 0.00, -0.00, -1.00, 638.7, 703.0)">s</text><text xml:space="preserve" font-family="GillSans-Light" font-size="38.0" fill="#525252" transform="matrix(1.00, 0.00, -0.00, -1.00, 652.1, 703.0)">t</text><text xml:space="preserve" font-family="GillSans-Light" font-size="38.0" fill="#525252" transform="matrix(1.00, 0.00, -0.00, -1.00, 663.6, 703.0)">i</text><text xml:space="preserve" font-family="GillSans-Light" font-size="38.0" fill="#525252" transform="matrix(1.00, 0.00, -0.00, -1.00, 670.8, 703.0)">q</text><text xml:space="preserve" font-family="GillSans-Light" font-size="38.0" fill="#525252" transform="matrix(1.00, 0.00, -0.00, -1.00, 690.1, 703.0)">u</text><text xml:space="preserve" font-family="GillSans-Light" font-size="38.0" fill="#525252" transform="matrix(1.00, 0.00, -0.00, -1.00, 708.8, 703.0)">e</text><text xml:space="preserve" font-family="GillSans-Light" font-size="38.0" fill="#525252" transform="matrix(1.00, 0.00, -0.00, -1.00, 727.0, 703.0)">s</text></g></g><path d="M 0.0 0.0 L 882.5 0.0 L 882.5 48.0 L 0.0 48.0 Z M 0.0 0.0 " fill="none" stroke="#7F8685" stroke-width="1.00" transform="matrix(1.00, 0.00, 0.00, -1.00, 70.7, 644.0)"></path><g><clipPath id="clip-213"><path d="M 65.6 590.8 L 958.4 590.8 L 958.4 649.2 L 65.6 649.2 Z M 65.6 590.8 "></path></clipPath><g clip-path="url(#clip-213)"><text xml:space="preserve" font-family="GillSans-Light" font-size="34.0" fill="#525252" transform="matrix(1.00, 0.00, -0.00, -1.00, 76.0, 609.0)">N</text><text xml:space="preserve" font-family="GillSans-Light" font-size="34.0" fill="#525252" transform="matrix(1.00, 0.00, -0.00, -1.00, 102.2, 609.0)">o</text><text xml:space="preserve" font-family="GillSans-Light" font-size="34.0" fill="#525252" transform="matrix(1.00, 0.00, -0.00, -1.00, 120.6, 609.0)">u</text><text xml:space="preserve" font-family="GillSans-Light" font-size="34.0" fill="#525252" transform="matrix(1.00, 0.00, -0.00, -1.00, 137.3, 609.0)">s</text><text xml:space="preserve" font-family="GillSans-Light" font-size="34.0" fill="#525252" transform="matrix(1.00, 0.00, -0.00, -1.00, 149.4, 609.0)"> </text><text xml:space="preserve" font-family="GillSans-Light" font-size="34.0" fill="#525252" transform="matrix(1.00, 0.00, -0.00, -1.00, 158.8, 609.0)">a</text><text xml:space="preserve" font-family="GillSans-Light" font-size="34.0" fill="#525252" transform="matrix(1.00, 0.00, -0.00, -1.00, 172.4, 609.0)">v</text><text xml:space="preserve" font-family="GillSans-Light" font-size="34.0" fill="#525252" transform="matrix(1.00, 0.00, -0.00, -1.00, 186.4, 609.0)">o</text><text xml:space="preserve" font-family="GillSans-Light" font-size="34.0" fill="#525252" transform="matrix(1.00, 0.00, -0.00, -1.00, 204.9, 609.0)">n</text><text xml:space="preserve" font-family="GillSans-Light" font-size="34.0" fill="#525252" transform="matrix(1.00, 0.00, -0.00, -1.00, 221.5, 609.0)">s</text><text xml:space="preserve" font-family="GillSans-Light" font-size="34.0" fill="#525252" transform="matrix(1.00, 0.00, -0.00, -1.00, 233.6, 609.0)"> </text><text xml:space="preserve" font-family="GillSans-Light" font-size="34.0" fill="#525252" transform="matrix(1.00, 0.00, -0.00, -1.00, 243.0, 609.0)">r</text><text xml:space="preserve" font-family="GillSans-Light" font-size="34.0" fill="#525252" transform="matrix(1.00, 0.00, -0.00, -1.00, 254.3, 609.0)">é</text><text xml:space="preserve" font-family="GillSans-Light" font-size="34.0" fill="#525252" transform="matrix(1.00, 0.00, -0.00, -1.00, 270.6, 609.0)">c</text><text xml:space="preserve" font-family="GillSans-Light" font-size="34.0" fill="#525252" transform="matrix(1.00, 0.00, -0.00, -1.00, 284.8, 609.0)">u</text><text xml:space="preserve" font-family="GillSans-Light" font-size="34.0" fill="#525252" transform="matrix(1.00, 0.00, -0.00, -1.00, 301.5, 609.0)">p</text><text xml:space="preserve" font-family="GillSans-Light" font-size="34.0" fill="#525252" transform="matrix(1.00, 0.00, -0.00, -1.00, 318.8, 609.0)">é</text><text xml:space="preserve" font-family="GillSans-Light" font-size="34.0" fill="#525252" transform="matrix(1.00, 0.00, -0.00, -1.00, 335.1, 609.0)">r</text><text xml:space="preserve" font-family="GillSans-Light" font-size="34.0" fill="#525252" transform="matrix(1.00, 0.00, -0.00, -1.00, 346.4, 609.0)">é</text><text xml:space="preserve" font-family="GillSans-Light" font-size="34.0" fill="#525252" transform="matrix(1.00, 0.00, -0.00, -1.00, 362.7, 609.0)"> </text><text xml:space="preserve" font-family="GillSans-Light" font-size="34.0" fill="#525252" transform="matrix(1.00, 0.00, -0.00, -1.00, 372.1, 609.0)">u</text><text xml:space="preserve" font-family="GillSans-Light" font-size="34.0" fill="#525252" transform="matrix(1.00, 0.00, -0.00, -1.00, 388.8, 609.0)">n</text><text xml:space="preserve" font-family="GillSans-Light" font-size="34.0" fill="#525252" transform="matrix(1.00, 0.00, -0.00, -1.00, 405.5, 609.0)">e</text><text xml:space="preserve" font-family="GillSans-Light" font-size="34.0" fill="#525252" transform="matrix(1.00, 0.00, -0.00, -1.00, 421.8, 609.0)"> </text><text xml:space="preserve" font-family="GillSans-Light" font-size="34.0" fill="#525252" transform="matrix(1.00, 0.00, -0.00, -1.00, 431.2, 609.0)">a</text><text xml:space="preserve" font-family="GillSans-Light" font-size="34.0" fill="#525252" transform="matrix(1.00, 0.00, -0.00, -1.00, 445.7, 609.0)">l</text><text xml:space="preserve" font-family="GillSans-Light" font-size="34.0" fill="#525252" transform="matrix(1.00, 0.00, -0.00, -1.00, 452.1, 609.0)">i</text><text xml:space="preserve" font-family="GillSans-Light" font-size="34.0" fill="#525252" transform="matrix(1.00, 0.00, -0.00, -1.00, 458.5, 609.0)">m</text><text xml:space="preserve" font-family="GillSans-Light" font-size="34.0" fill="#525252" transform="matrix(1.00, 0.00, -0.00, -1.00, 484.7, 609.0)">e</text><text xml:space="preserve" font-family="GillSans-Light" font-size="34.0" fill="#525252" transform="matrix(1.00, 0.00, -0.00, -1.00, 501.0, 609.0)">n</text><text xml:space="preserve" font-family="GillSans-Light" font-size="34.0" fill="#525252" transform="matrix(1.00, 0.00, -0.00, -1.00, 517.7, 609.0)">t</text><text xml:space="preserve" font-family="GillSans-Light" font-size="34.0" fill="#525252" transform="matrix(1.00, 0.00, -0.00, -1.00, 527.9, 609.0)">a</text><text xml:space="preserve" font-family="GillSans-Light" font-size="34.0" fill="#525252" transform="matrix(1.00, 0.00, -0.00, -1.00, 542.4, 609.0)">t</text><text xml:space="preserve" font-family="GillSans-Light" font-size="34.0" fill="#525252" transform="matrix(1.00, 0.00, -0.00, -1.00, 552.7, 609.0)">i</text><text xml:space="preserve" font-family="GillSans-Light" font-size="34.0" fill="#525252" transform="matrix(1.00, 0.00, -0.00, -1.00, 559.1, 609.0)">o</text><text xml:space="preserve" font-family="GillSans-Light" font-size="34.0" fill="#525252" transform="matrix(1.00, 0.00, -0.00, -1.00, 577.5, 609.0)">n</text><text xml:space="preserve" font-family="GillSans-Light" font-size="34.0" fill="#525252" transform="matrix(1.00, 0.00, -0.00, -1.00, 594.2, 609.0)"> </text><text xml:space="preserve" font-family="GillSans-Light" font-size="34.0" fill="#525252" transform="matrix(1.00, 0.00, -0.00, -1.00, 603.6, 609.0)">5</text><text xml:space="preserve" font-family="GillSans-Light" font-size="34.0" fill="#525252" transform="matrix(1.00, 0.00, -0.00, -1.00, 620.6, 609.0)">0</text><text xml:space="preserve" font-family="GillSans-Light" font-size="34.0" fill="#525252" transform="matrix(1.00, 0.00, -0.00, -1.00, 637.6, 609.0)">0</text><text xml:space="preserve" font-family="GillSans-Light" font-size="34.0" fill="#525252" transform="matrix(1.00, 0.00, -0.00, -1.00, 654.6, 609.0)">W</text><text xml:space="preserve" font-family="GillSans-Light" font-size="34.0" fill="#525252" transform="matrix(1.00, 0.00, -0.00, -1.00, 689.7, 609.0)"> </text><text xml:space="preserve" font-family="GillSans-Light" font-size="34.0" fill="#525252" transform="matrix(1.00, 0.00, -0.00, -1.00, 699.1, 609.0)">P</text><text xml:space="preserve" font-family="GillSans-Light" font-size="34.0" fill="#525252" transform="matrix(1.00, 0.00, -0.00, -1.00, 716.4, 609.0)">C</text><text xml:space="preserve" font-family="GillSans-Light" font-size="34.0" fill="#525252" transform="matrix(1.00, 0.00, -0.00, -1.00, 739.4, 609.0)"> </text><text xml:space="preserve" font-family="GillSans-Light" font-size="34.0" fill="#525252" transform="matrix(1.00, 0.00, -0.00, -1.00, 748.9, 609.0)">a</text><text xml:space="preserve" font-family="GillSans-Light" font-size="34.0" fill="#525252" transform="matrix(1.00, 0.00, -0.00, -1.00, 763.4, 609.0)">u</text><text xml:space="preserve" font-family="GillSans-Light" font-size="34.0" fill="#525252" transform="matrix(1.00, 0.00, -0.00, -1.00, 780.0, 609.0)"> </text><text xml:space="preserve" font-family="GillSans-Light" font-size="34.0" fill="#525252" transform="matrix(1.00, 0.00, -0.00, -1.00, 789.5, 609.0)">f</text><text xml:space="preserve" font-family="GillSans-Light" font-size="34.0" fill="#525252" transform="matrix(1.00, 0.00, -0.00, -1.00, 797.3, 609.0)">o</text><text xml:space="preserve" font-family="GillSans-Light" font-size="34.0" fill="#525252" transform="matrix(1.00, 0.00, -0.00, -1.00, 815.7, 609.0)">r</text><text xml:space="preserve" font-family="GillSans-Light" font-size="34.0" fill="#525252" transform="matrix(1.00, 0.00, -0.00, -1.00, 827.9, 609.0)">m</text><text xml:space="preserve" font-family="GillSans-Light" font-size="34.0" fill="#525252" transform="matrix(1.00, 0.00, -0.00, -1.00, 854.1, 609.0)">a</text><text xml:space="preserve" font-family="GillSans-Light" font-size="34.0" fill="#525252" transform="matrix(1.00, 0.00, -0.00, -1.00, 868.6, 609.0)">t</text><text xml:space="preserve" font-family="GillSans-Light" font-size="34.0" fill="#525252" transform="matrix(1.00, 0.00, -0.00, -1.00, 878.9, 609.0)"> </text><text xml:space="preserve" font-family="GillSans-Light" font-size="34.0" fill="#525252" transform="matrix(1.00, 0.00, -0.00, -1.00, 886.3, 609.0)">A</text><text xml:space="preserve" font-family="GillSans-Light" font-size="34.0" fill="#525252" transform="matrix(1.00, 0.00, -0.00, -1.00, 905.6, 609.0)">T</text><text xml:space="preserve" font-family="GillSans-Light" font-size="34.0" fill="#525252" transform="matrix(1.00, 0.00, -0.00, -1.00, 925.1, 609.0)">X</text></g></g><image xlink:href="4E1CAED318DE1046D259927AA8103DD9.jpeg" width="393.00" height="294.00" transform="matrix(-1.00, 0.00, 0.00, 1.00, 464.0, 264.0)"></image><path d="M 0.0 0.0 L 531.4 0.0 L 531.4 91.0 L 0.0 91.0 Z M 0.0 0.0 " fill="none" stroke="#7F8685" stroke-width="1.00" transform="matrix(1.00, 0.00, 0.00, -1.00, 485.1, 537.9)"></path><g><clipPath id="clip-214"><path d="M 479.3 441.2 L 1022.2 441.2 L 1022.2 543.6 L 479.3 543.6 Z M 479.3 441.2 "></path></clipPath><g clip-path="url(#clip-214)"><text xml:space="preserve" font-family="GillSans-Light" font-size="36.0" fill="#525252" transform="matrix(1.00, 0.00, -0.00, -1.00, 496.0, 501.0)">C</text><text xml:space="preserve" font-family="GillSans-Light" font-size="36.0" fill="#525252" transform="matrix(1.00, 0.00, -0.00, -1.00, 520.4, 501.0)">e</text><text xml:space="preserve" font-family="GillSans-Light" font-size="36.0" fill="#525252" transform="matrix(1.00, 0.00, -0.00, -1.00, 537.6, 501.0)">t</text><text xml:space="preserve" font-family="GillSans-Light" font-size="36.0" fill="#525252" transform="matrix(1.00, 0.00, -0.00, -1.00, 548.5, 501.0)">t</text><text xml:space="preserve" font-family="GillSans-Light" font-size="36.0" fill="#525252" transform="matrix(1.00, 0.00, -0.00, -1.00, 559.3, 501.0)">e</text><text xml:space="preserve" font-family="GillSans-Light" font-size="36.0" fill="#525252" transform="matrix(1.00, 0.00, -0.00, -1.00, 576.6, 501.0)"> </text><text xml:space="preserve" font-family="GillSans-Light" font-size="36.0" fill="#525252" transform="matrix(1.00, 0.00, -0.00, -1.00, 586.6, 501.0)">a</text><text xml:space="preserve" font-family="GillSans-Light" font-size="36.0" fill="#525252" transform="matrix(1.00, 0.00, -0.00, -1.00, 601.9, 501.0)">l</text><text xml:space="preserve" font-family="GillSans-Light" font-size="36.0" fill="#525252" transform="matrix(1.00, 0.00, -0.00, -1.00, 608.7, 501.0)">i</text><text xml:space="preserve" font-family="GillSans-Light" font-size="36.0" fill="#525252" transform="matrix(1.00, 0.00, -0.00, -1.00, 615.4, 501.0)">m</text><text xml:space="preserve" font-family="GillSans-Light" font-size="36.0" fill="#525252" transform="matrix(1.00, 0.00, -0.00, -1.00, 643.2, 501.0)">e</text><text xml:space="preserve" font-family="GillSans-Light" font-size="36.0" fill="#525252" transform="matrix(1.00, 0.00, -0.00, -1.00, 660.4, 501.0)">n</text><text xml:space="preserve" font-family="GillSans-Light" font-size="36.0" fill="#525252" transform="matrix(1.00, 0.00, -0.00, -1.00, 678.1, 501.0)">t</text><text xml:space="preserve" font-family="GillSans-Light" font-size="36.0" fill="#525252" transform="matrix(1.00, 0.00, -0.00, -1.00, 689.0, 501.0)">a</text><text xml:space="preserve" font-family="GillSans-Light" font-size="36.0" fill="#525252" transform="matrix(1.00, 0.00, -0.00, -1.00, 704.3, 501.0)">t</text><text xml:space="preserve" font-family="GillSans-Light" font-size="36.0" fill="#525252" transform="matrix(1.00, 0.00, -0.00, -1.00, 715.2, 501.0)">i</text><text xml:space="preserve" font-family="GillSans-Light" font-size="36.0" fill="#525252" transform="matrix(1.00, 0.00, -0.00, -1.00, 721.9, 501.0)">o</text><text xml:space="preserve" font-family="GillSans-Light" font-size="36.0" fill="#525252" transform="matrix(1.00, 0.00, -0.00, -1.00, 741.4, 501.0)">n</text><text xml:space="preserve" font-family="GillSans-Light" font-size="36.0" fill="#525252" transform="matrix(1.00, 0.00, -0.00, -1.00, 759.1, 501.0)"> </text><text xml:space="preserve" font-family="GillSans-Light" font-size="36.0" fill="#525252" transform="matrix(1.00, 0.00, -0.00, -1.00, 769.1, 501.0)">e</text><text xml:space="preserve" font-family="GillSans-Light" font-size="36.0" fill="#525252" transform="matrix(1.00, 0.00, -0.00, -1.00, 786.3, 501.0)">s</text><text xml:space="preserve" font-family="GillSans-Light" font-size="36.0" fill="#525252" transform="matrix(1.00, 0.00, -0.00, -1.00, 799.1, 501.0)">t</text><text xml:space="preserve" font-family="GillSans-Light" font-size="36.0" fill="#525252" transform="matrix(1.00, 0.00, -0.00, -1.00, 809.9, 501.0)"> </text><text xml:space="preserve" font-family="GillSans-Light" font-size="36.0" fill="#525252" transform="matrix(1.00, 0.00, -0.00, -1.00, 819.9, 501.0)">d</text><text xml:space="preserve" font-family="GillSans-Light" font-size="36.0" fill="#525252" transform="matrix(1.00, 0.00, -0.00, -1.00, 838.3, 501.0)">e</text><text xml:space="preserve" font-family="GillSans-Light" font-size="36.0" fill="#525252" transform="matrix(1.00, 0.00, -0.00, -1.00, 855.5, 501.0)">s</text><text xml:space="preserve" font-family="GillSans-Light" font-size="36.0" fill="#525252" transform="matrix(1.00, 0.00, -0.00, -1.00, 868.3, 501.0)">t</text><text xml:space="preserve" font-family="GillSans-Light" font-size="36.0" fill="#525252" transform="matrix(1.00, 0.00, -0.00, -1.00, 879.1, 501.0)">i</text><text xml:space="preserve" font-family="GillSans-Light" font-size="36.0" fill="#525252" transform="matrix(1.00, 0.00, -0.00, -1.00, 885.9, 501.0)">n</text><text xml:space="preserve" font-family="GillSans-Light" font-size="36.0" fill="#525252" transform="matrix(1.00, 0.00, -0.00, -1.00, 903.5, 501.0)">é</text><text xml:space="preserve" font-family="GillSans-Light" font-size="36.0" fill="#525252" transform="matrix(1.00, 0.00, -0.00, -1.00, 920.8, 501.0)"> </text><text xml:space="preserve" font-family="GillSans-Light" font-size="36.0" fill="#525252" transform="matrix(1.00, 0.00, -0.00, -1.00, 930.8, 501.0)">à</text><text xml:space="preserve" font-family="GillSans-Light" font-size="36.0" fill="#525252" transform="matrix(1.00, 0.00, -0.00, -1.00, 946.1, 501.0)"> </text><text xml:space="preserve" font-family="GillSans-Light" font-size="36.0" fill="#525252" transform="matrix(1.00, 0.00, -0.00, -1.00, 956.1, 501.0)">d</text><text xml:space="preserve" font-family="GillSans-Light" font-size="36.0" fill="#525252" transform="matrix(1.00, 0.00, -0.00, -1.00, 974.5, 501.0)">e</text><text xml:space="preserve" font-family="GillSans-Light" font-size="36.0" fill="#525252" transform="matrix(1.00, 0.00, -0.00, -1.00, 991.7, 501.0)">s</text><text xml:space="preserve" font-family="GillSans-Light" font-size="36.0" fill="#525252" transform="matrix(1.00, 0.00, -0.00, -1.00, 1004.5, 501.0)"> </text><text xml:space="preserve" font-family="GillSans-Light" font-size="36.0" fill="#525252" transform="matrix(1.00, 0.00, -0.00, -1.00, 524.0, 460.0)">c</text><text xml:space="preserve" font-family="GillSans-Light" font-size="36.0" fill="#525252" transform="matrix(1.00, 0.00, -0.00, -1.00, 539.0, 460.0)">o</text><text xml:space="preserve" font-family="GillSans-Light" font-size="36.0" fill="#525252" transform="matrix(1.00, 0.00, -0.00, -1.00, 558.5, 460.0)">m</text><text xml:space="preserve" font-family="GillSans-Light" font-size="36.0" fill="#525252" transform="matrix(1.00, 0.00, -0.00, -1.00, 586.3, 460.0)">p</text><text xml:space="preserve" font-family="GillSans-Light" font-size="36.0" fill="#525252" transform="matrix(1.00, 0.00, -0.00, -1.00, 604.6, 460.0)">o</text><text xml:space="preserve" font-family="GillSans-Light" font-size="36.0" fill="#525252" transform="matrix(1.00, 0.00, -0.00, -1.00, 624.1, 460.0)">s</text><text xml:space="preserve" font-family="GillSans-Light" font-size="36.0" fill="#525252" transform="matrix(1.00, 0.00, -0.00, -1.00, 636.9, 460.0)">a</text><text xml:space="preserve" font-family="GillSans-Light" font-size="36.0" fill="#525252" transform="matrix(1.00, 0.00, -0.00, -1.00, 652.2, 460.0)">n</text><text xml:space="preserve" font-family="GillSans-Light" font-size="36.0" fill="#525252" transform="matrix(1.00, 0.00, -0.00, -1.00, 669.9, 460.0)">t</text><text xml:space="preserve" font-family="GillSans-Light" font-size="36.0" fill="#525252" transform="matrix(1.00, 0.00, -0.00, -1.00, 680.7, 460.0)">s</text><text xml:space="preserve" font-family="GillSans-Light" font-size="36.0" fill="#525252" transform="matrix(1.00, 0.00, -0.00, -1.00, 693.5, 460.0)"> </text><text xml:space="preserve" font-family="GillSans-LightItalic" font-style="italic" font-size="36.0" fill="#525252" transform="matrix(1.00, 0.00, -0.00, -1.00, 703.5, 460.0)">e</text><text xml:space="preserve" font-family="GillSans-LightItalic" font-style="italic" font-size="36.0" fill="#525252" transform="matrix(1.00, 0.00, -0.00, -1.00, 719.1, 460.0)">x</text><text xml:space="preserve" font-family="GillSans-LightItalic" font-style="italic" font-size="36.0" fill="#525252" transform="matrix(1.00, 0.00, -0.00, -1.00, 735.6, 460.0)">i</text><text xml:space="preserve" font-family="GillSans-LightItalic" font-style="italic" font-size="36.0" fill="#525252" transform="matrix(1.00, 0.00, -0.00, -1.00, 742.0, 460.0)">g</text><text xml:space="preserve" font-family="GillSans-LightItalic" font-style="italic" font-size="36.0" fill="#525252" transform="matrix(1.00, 0.00, -0.00, -1.00, 757.3, 460.0)">e</text><text xml:space="preserve" font-family="GillSans-LightItalic" font-style="italic" font-size="36.0" fill="#525252" transform="matrix(1.00, 0.00, -0.00, -1.00, 773.5, 460.0)">a</text><text xml:space="preserve" font-family="GillSans-LightItalic" font-style="italic" font-size="36.0" fill="#525252" transform="matrix(1.00, 0.00, -0.00, -1.00, 790.7, 460.0)">n</text><text xml:space="preserve" font-family="GillSans-LightItalic" font-style="italic" font-size="36.0" fill="#525252" transform="matrix(1.00, 0.00, -0.00, -1.00, 807.2, 460.0)">t</text><text xml:space="preserve" font-family="GillSans-LightItalic" font-style="italic" font-size="36.0" fill="#525252" transform="matrix(1.00, 0.00, -0.00, -1.00, 817.3, 460.0)">s</text><text xml:space="preserve" font-family="GillSans-Light" font-size="36.0" fill="#525252" transform="matrix(1.00, 0.00, -0.00, -1.00, 830.0, 460.0)"> </text><text xml:space="preserve" font-family="GillSans-Light" font-size="36.0" fill="#525252" transform="matrix(1.00, 0.00, -0.00, -1.00, 840.0, 460.0)">e</text><text xml:space="preserve" font-family="GillSans-Light" font-size="36.0" fill="#525252" transform="matrix(1.00, 0.00, -0.00, -1.00, 857.3, 460.0)">t</text><text xml:space="preserve" font-family="GillSans-Light" font-size="36.0" fill="#525252" transform="matrix(1.00, 0.00, -0.00, -1.00, 868.1, 460.0)"> </text><text xml:space="preserve" font-family="GillSans-LightItalic" font-style="italic" font-size="36.0" fill="#525252" transform="matrix(1.00, 0.00, -0.00, -1.00, 878.1, 460.0)">f</text><text xml:space="preserve" font-family="GillSans-LightItalic" font-style="italic" font-size="36.0" fill="#525252" transform="matrix(1.00, 0.00, -0.00, -1.00, 887.1, 460.0)">r</text><text xml:space="preserve" font-family="GillSans-LightItalic" font-style="italic" font-size="36.0" fill="#525252" transform="matrix(1.00, 0.00, -0.00, -1.00, 896.2, 460.0)">a</text><text xml:space="preserve" font-family="GillSans-LightItalic" font-style="italic" font-size="36.0" fill="#525252" transform="matrix(1.00, 0.00, -0.00, -1.00, 913.4, 460.0)">g</text><text xml:space="preserve" font-family="GillSans-LightItalic" font-style="italic" font-size="36.0" fill="#525252" transform="matrix(1.00, 0.00, -0.00, -1.00, 928.8, 460.0)">i</text><text xml:space="preserve" font-family="GillSans-LightItalic" font-style="italic" font-size="36.0" fill="#525252" transform="matrix(1.00, 0.00, -0.00, -1.00, 935.1, 460.0)">l</text><text xml:space="preserve" font-family="GillSans-LightItalic" font-style="italic" font-size="36.0" fill="#525252" transform="matrix(1.00, 0.00, -0.00, -1.00, 941.5, 460.0)">e</text><text xml:space="preserve" font-family="GillSans-LightItalic" font-style="italic" font-size="36.0" fill="#525252" transform="matrix(1.00, 0.00, -0.00, -1.00, 957.6, 460.0)">s</text><text xml:space="preserve" font-family="GillSans-LightItalic" font-style="italic" font-size="36.0" fill="#525252" transform="matrix(1.00, 0.00, -0.00, -1.00, 971.3, 460.0)">.</text><path d="M 218.0 80.1 L 344.6 80.1 " fill="none" stroke="#525252" stroke-width="1.79" stroke-miterlimit="0.00" transform="matrix(1.00, 0.00, 0.00, -1.00, 485.6, 537.4)"></path><path d="M 392.7 80.1 L 491.8 80.1 " fill="none" stroke="#525252" stroke-width="1.79" stroke-miterlimit="0.00" transform="matrix(1.00, 0.00, 0.00, -1.00, 485.6, 537.4)"></path></g></g><path d="M 0.0 0.0 L 458.3 0.0 L 458.3 132.0 L 0.0 132.0 Z M 0.0 0.0 " fill="none" stroke="#7F8685" stroke-width="1.00" transform="matrix(1.00, 0.00, 0.00, -1.00, 521.6, 388.8)"></path><g><clipPath id="clip-215"><path d="M 515.9 251.1 L 985.6 251.1 L 985.6 394.5 L 515.9 394.5 Z M 515.9 251.1 "></path></clipPath><g clip-path="url(#clip-215)"><text xml:space="preserve" font-family="GillSans-Light" font-size="36.0" fill="#525252" transform="matrix(1.00, 0.00, -0.00, -1.00, 541.0, 352.0)">S</text><text xml:space="preserve" font-family="GillSans-Light" font-size="36.0" fill="#525252" transform="matrix(1.00, 0.00, -0.00, -1.00, 557.9, 352.0)">e</text><text xml:space="preserve" font-family="GillSans-Light" font-size="36.0" fill="#525252" transform="matrix(1.00, 0.00, -0.00, -1.00, 575.1, 352.0)">l</text><text xml:space="preserve" font-family="GillSans-Light" font-size="36.0" fill="#525252" transform="matrix(1.00, 0.00, -0.00, -1.00, 581.9, 352.0)">o</text><text xml:space="preserve" font-family="GillSans-Light" font-size="36.0" fill="#525252" transform="matrix(1.00, 0.00, -0.00, -1.00, 601.4, 352.0)">n</text><text xml:space="preserve" font-family="GillSans-Light" font-size="36.0" fill="#525252" transform="matrix(1.00, 0.00, -0.00, -1.00, 619.1, 352.0)"> </text><text xml:space="preserve" font-family="GillSans-Light" font-size="36.0" fill="#525252" transform="matrix(1.00, 0.00, -0.00, -1.00, 629.1, 352.0)">s</text><text xml:space="preserve" font-family="GillSans-Light" font-size="36.0" fill="#525252" transform="matrix(1.00, 0.00, -0.00, -1.00, 641.8, 352.0)">e</text><text xml:space="preserve" font-family="GillSans-Light" font-size="36.0" fill="#525252" transform="matrix(1.00, 0.00, -0.00, -1.00, 659.1, 352.0)">s</text><text xml:space="preserve" font-family="GillSans-Light" font-size="36.0" fill="#525252" transform="matrix(1.00, 0.00, -0.00, -1.00, 671.8, 352.0)"> </text><text xml:space="preserve" font-family="GillSans-Light" font-size="36.0" fill="#525252" transform="matrix(1.00, 0.00, -0.00, -1.00, 681.8, 352.0)">c</text><text xml:space="preserve" font-family="GillSans-Light" font-size="36.0" fill="#525252" transform="matrix(1.00, 0.00, -0.00, -1.00, 696.8, 352.0)">a</text><text xml:space="preserve" font-family="GillSans-Light" font-size="36.0" fill="#525252" transform="matrix(1.00, 0.00, -0.00, -1.00, 712.2, 352.0)">r</text><text xml:space="preserve" font-family="GillSans-Light" font-size="36.0" fill="#525252" transform="matrix(1.00, 0.00, -0.00, -1.00, 725.1, 352.0)">a</text><text xml:space="preserve" font-family="GillSans-Light" font-size="36.0" fill="#525252" transform="matrix(1.00, 0.00, -0.00, -1.00, 740.4, 352.0)">c</text><text xml:space="preserve" font-family="GillSans-Light" font-size="36.0" fill="#525252" transform="matrix(1.00, 0.00, -0.00, -1.00, 755.4, 352.0)">t</text><text xml:space="preserve" font-family="GillSans-Light" font-size="36.0" fill="#525252" transform="matrix(1.00, 0.00, -0.00, -1.00, 766.3, 352.0)">é</text><text xml:space="preserve" font-family="GillSans-Light" font-size="36.0" fill="#525252" transform="matrix(1.00, 0.00, -0.00, -1.00, 783.5, 352.0)">r</text><text xml:space="preserve" font-family="GillSans-Light" font-size="36.0" fill="#525252" transform="matrix(1.00, 0.00, -0.00, -1.00, 796.4, 352.0)">i</text><text xml:space="preserve" font-family="GillSans-Light" font-size="36.0" fill="#525252" transform="matrix(1.00, 0.00, -0.00, -1.00, 803.2, 352.0)">s</text><text xml:space="preserve" font-family="GillSans-Light" font-size="36.0" fill="#525252" transform="matrix(1.00, 0.00, -0.00, -1.00, 815.9, 352.0)">t</text><text xml:space="preserve" font-family="GillSans-Light" font-size="36.0" fill="#525252" transform="matrix(1.00, 0.00, -0.00, -1.00, 826.8, 352.0)">i</text><text xml:space="preserve" font-family="GillSans-Light" font-size="36.0" fill="#525252" transform="matrix(1.00, 0.00, -0.00, -1.00, 833.5, 352.0)">q</text><text xml:space="preserve" font-family="GillSans-Light" font-size="36.0" fill="#525252" transform="matrix(1.00, 0.00, -0.00, -1.00, 851.9, 352.0)">u</text><text xml:space="preserve" font-family="GillSans-Light" font-size="36.0" fill="#525252" transform="matrix(1.00, 0.00, -0.00, -1.00, 869.5, 352.0)">e</text><text xml:space="preserve" font-family="GillSans-Light" font-size="36.0" fill="#525252" transform="matrix(1.00, 0.00, -0.00, -1.00, 886.8, 352.0)">s</text><text xml:space="preserve" font-family="GillSans-Light" font-size="36.0" fill="#525252" transform="matrix(1.00, 0.00, -0.00, -1.00, 899.5, 352.0)">,</text><text xml:space="preserve" font-family="GillSans-Light" font-size="36.0" fill="#525252" transform="matrix(1.00, 0.00, -0.00, -1.00, 903.0, 352.0)"> </text><text xml:space="preserve" font-family="GillSans-Light" font-size="36.0" fill="#525252" transform="matrix(1.00, 0.00, -0.00, -1.00, 913.0, 352.0)">e</text><text xml:space="preserve" font-family="GillSans-Light" font-size="36.0" fill="#525252" transform="matrix(1.00, 0.00, -0.00, -1.00, 930.2, 352.0)">l</text><text xml:space="preserve" font-family="GillSans-Light" font-size="36.0" fill="#525252" transform="matrix(1.00, 0.00, -0.00, -1.00, 937.0, 352.0)">l</text><text xml:space="preserve" font-family="GillSans-Light" font-size="36.0" fill="#525252" transform="matrix(1.00, 0.00, -0.00, -1.00, 943.8, 352.0)">e</text><text xml:space="preserve" font-family="GillSans-Light" font-size="36.0" fill="#525252" transform="matrix(1.00, 0.00, -0.00, -1.00, 961.0, 352.0)"> </text><text xml:space="preserve" font-family="GillSans-Light" font-size="36.0" fill="#525252" transform="matrix(1.00, 0.00, -0.00, -1.00, 569.0, 311.0)">p</text><text xml:space="preserve" font-family="GillSans-Light" font-size="36.0" fill="#525252" transform="matrix(1.00, 0.00, -0.00, -1.00, 587.3, 311.0)">e</text><text xml:space="preserve" font-family="GillSans-Light" font-size="36.0" fill="#525252" transform="matrix(1.00, 0.00, -0.00, -1.00, 604.6, 311.0)">u</text><text xml:space="preserve" font-family="GillSans-Light" font-size="36.0" fill="#525252" transform="matrix(1.00, 0.00, -0.00, -1.00, 622.2, 311.0)">t</text><text xml:space="preserve" font-family="GillSans-Light" font-size="36.0" fill="#525252" transform="matrix(1.00, 0.00, -0.00, -1.00, 633.1, 311.0)"> </text><text xml:space="preserve" font-family="GillSans-Light" font-size="36.0" fill="#525252" transform="matrix(1.00, 0.00, -0.00, -1.00, 643.1, 311.0)">f</text><text xml:space="preserve" font-family="GillSans-Light" font-size="36.0" fill="#525252" transform="matrix(1.00, 0.00, -0.00, -1.00, 651.4, 311.0)">o</text><text xml:space="preserve" font-family="GillSans-Light" font-size="36.0" fill="#525252" transform="matrix(1.00, 0.00, -0.00, -1.00, 670.9, 311.0)">u</text><text xml:space="preserve" font-family="GillSans-Light" font-size="36.0" fill="#525252" transform="matrix(1.00, 0.00, -0.00, -1.00, 688.6, 311.0)">r</text><text xml:space="preserve" font-family="GillSans-Light" font-size="36.0" fill="#525252" transform="matrix(1.00, 0.00, -0.00, -1.00, 701.5, 311.0)">n</text><text xml:space="preserve" font-family="GillSans-Light" font-size="36.0" fill="#525252" transform="matrix(1.00, 0.00, -0.00, -1.00, 719.1, 311.0)">i</text><text xml:space="preserve" font-family="GillSans-Light" font-size="36.0" fill="#525252" transform="matrix(1.00, 0.00, -0.00, -1.00, 725.9, 311.0)">r</text><text xml:space="preserve" font-family="GillSans-Light" font-size="36.0" fill="#525252" transform="matrix(1.00, 0.00, -0.00, -1.00, 737.9, 311.0)"> </text><text xml:space="preserve" font-family="GillSans-LightItalic" font-style="italic" font-size="36.0" fill="#525252" transform="matrix(1.00, 0.00, -0.00, -1.00, 747.9, 311.0)">3</text><text xml:space="preserve" font-family="GillSans-LightItalic" font-style="italic" font-size="36.0" fill="#525252" transform="matrix(1.00, 0.00, -0.00, -1.00, 766.6, 311.0)">6</text><text xml:space="preserve" font-family="GillSans-LightItalic" font-style="italic" font-size="36.0" fill="#525252" transform="matrix(1.00, 0.00, -0.00, -1.00, 785.4, 311.0)">A</text><text xml:space="preserve" font-family="GillSans-LightItalic" font-style="italic" font-size="36.0" fill="#525252" transform="matrix(1.00, 0.00, -0.00, -1.00, 804.9, 311.0)"> </text><text xml:space="preserve" font-family="GillSans-LightItalic" font-style="italic" font-size="36.0" fill="#525252" transform="matrix(1.00, 0.00, -0.00, -1.00, 814.9, 311.0)">e</text><text xml:space="preserve" font-family="GillSans-LightItalic" font-style="italic" font-size="36.0" fill="#525252" transform="matrix(1.00, 0.00, -0.00, -1.00, 831.0, 311.0)">n</text><text xml:space="preserve" font-family="GillSans-LightItalic" font-style="italic" font-size="36.0" fill="#525252" transform="matrix(1.00, 0.00, -0.00, -1.00, 847.5, 311.0)"> </text><text xml:space="preserve" font-family="GillSans-LightItalic" font-style="italic" font-size="36.0" fill="#525252" transform="matrix(1.00, 0.00, -0.00, -1.00, 857.5, 311.0)">5</text><text xml:space="preserve" font-family="GillSans-LightItalic" font-style="italic" font-size="36.0" fill="#525252" transform="matrix(1.00, 0.00, -0.00, -1.00, 876.3, 311.0)">V</text><text xml:space="preserve" font-family="GillSans-Light" font-size="36.0" fill="#525252" transform="matrix(1.00, 0.00, -0.00, -1.00, 893.5, 311.0)"> </text><text xml:space="preserve" font-family="GillSans-Light" font-size="36.0" fill="#525252" transform="matrix(1.00, 0.00, -0.00, -1.00, 903.5, 311.0)">e</text><text xml:space="preserve" font-family="GillSans-Light" font-size="36.0" fill="#525252" transform="matrix(1.00, 0.00, -0.00, -1.00, 920.8, 311.0)">t</text><text xml:space="preserve" font-family="GillSans-Light" font-size="36.0" fill="#525252" transform="matrix(1.00, 0.00, -0.00, -1.00, 931.6, 311.0)"> </text><path d="M 226.2 80.1 L 381.8 80.1 " fill="none" stroke="#525252" stroke-width="1.79" stroke-miterlimit="0.00" transform="matrix(1.00, 0.00, 0.00, -1.00, 522.1, 388.3)"></path><text xml:space="preserve" font-family="GillSans-LightItalic" font-style="italic" font-size="36.0" fill="#525252" transform="matrix(1.00, 0.00, -0.00, -1.00, 669.0, 270.0)">2</text><text xml:space="preserve" font-family="GillSans-LightItalic" font-style="italic" font-size="36.0" fill="#525252" transform="matrix(1.00, 0.00, -0.00, -1.00, 687.8, 270.0)">0</text><text xml:space="preserve" font-family="GillSans-LightItalic" font-style="italic" font-size="36.0" fill="#525252" transform="matrix(1.00, 0.00, -0.00, -1.00, 706.5, 270.0)">A</text><text xml:space="preserve" font-family="GillSans-LightItalic" font-style="italic" font-size="36.0" fill="#525252" transform="matrix(1.00, 0.00, -0.00, -1.00, 726.0, 270.0)"> </text><text xml:space="preserve" font-family="GillSans-LightItalic" font-style="italic" font-size="36.0" fill="#525252" transform="matrix(1.00, 0.00, -0.00, -1.00, 736.0, 270.0)">e</text><text xml:space="preserve" font-family="GillSans-LightItalic" font-style="italic" font-size="36.0" fill="#525252" transform="matrix(1.00, 0.00, -0.00, -1.00, 752.2, 270.0)">n</text><text xml:space="preserve" font-family="GillSans-LightItalic" font-style="italic" font-size="36.0" fill="#525252" transform="matrix(1.00, 0.00, -0.00, -1.00, 768.7, 270.0)"> </text><text xml:space="preserve" font-family="GillSans-LightItalic" font-style="italic" font-size="36.0" fill="#525252" transform="matrix(1.00, 0.00, -0.00, -1.00, 778.6, 270.0)">1</text><text xml:space="preserve" font-family="GillSans-LightItalic" font-style="italic" font-size="36.0" fill="#525252" transform="matrix(1.00, 0.00, -0.00, -1.00, 797.4, 270.0)">2</text><text xml:space="preserve" font-family="GillSans-LightItalic" font-style="italic" font-size="36.0" fill="#525252" transform="matrix(1.00, 0.00, -0.00, -1.00, 816.2, 270.0)">V</text><path d="M 146.4 121.1 L 310.9 121.1 " fill="none" stroke="#525252" stroke-width="1.79" stroke-miterlimit="0.00" transform="matrix(1.00, 0.00, 0.00, -1.00, 522.1, 388.3)"></path></g></g><path d="M 0.0 0.0 L 743.0 0.0 L 743.0 50.0 L 0.0 50.0 Z M 0.0 0.0 " fill="none" stroke="#7F8685" stroke-width="1.00" transform="matrix(1.00, 0.00, 0.00, -1.00, 120.5, 198.7)"></path><g><clipPath id="clip-216"><path d="M 114.8 142.9 L 869.2 142.9 L 869.2 204.4 L 114.8 204.4 Z M 114.8 142.9 "></path></clipPath><g clip-path="url(#clip-216)"><text xml:space="preserve" font-family="GillSans-Light" font-size="36.0" fill="#525252" transform="matrix(1.00, 0.00, -0.00, -1.00, 125.0, 162.0)">E</text><text xml:space="preserve" font-family="GillSans-Light" font-size="36.0" fill="#525252" transform="matrix(1.00, 0.00, -0.00, -1.00, 142.7, 162.0)">l</text><text xml:space="preserve" font-family="GillSans-Light" font-size="36.0" fill="#525252" transform="matrix(1.00, 0.00, -0.00, -1.00, 149.4, 162.0)">l</text><text xml:space="preserve" font-family="GillSans-Light" font-size="36.0" fill="#525252" transform="matrix(1.00, 0.00, -0.00, -1.00, 156.2, 162.0)">e</text><text xml:space="preserve" font-family="GillSans-Light" font-size="36.0" fill="#525252" transform="matrix(1.00, 0.00, -0.00, -1.00, 173.4, 162.0)"> </text><text xml:space="preserve" font-family="GillSans-Light" font-size="36.0" fill="#525252" transform="matrix(1.00, 0.00, -0.00, -1.00, 183.4, 162.0)">e</text><text xml:space="preserve" font-family="GillSans-Light" font-size="36.0" fill="#525252" transform="matrix(1.00, 0.00, -0.00, -1.00, 200.7, 162.0)">s</text><text xml:space="preserve" font-family="GillSans-Light" font-size="36.0" fill="#525252" transform="matrix(1.00, 0.00, -0.00, -1.00, 213.4, 162.0)">t</text><text xml:space="preserve" font-family="GillSans-Light" font-size="36.0" fill="#525252" transform="matrix(1.00, 0.00, -0.00, -1.00, 224.3, 162.0)"> </text><text xml:space="preserve" font-family="GillSans-Light" font-size="36.0" fill="#525252" transform="matrix(1.00, 0.00, -0.00, -1.00, 234.3, 162.0)">d</text><text xml:space="preserve" font-family="GillSans-Light" font-size="36.0" fill="#525252" transform="matrix(1.00, 0.00, -0.00, -1.00, 252.6, 162.0)">o</text><text xml:space="preserve" font-family="GillSans-Light" font-size="36.0" fill="#525252" transform="matrix(1.00, 0.00, -0.00, -1.00, 272.1, 162.0)">n</text><text xml:space="preserve" font-family="GillSans-Light" font-size="36.0" fill="#525252" transform="matrix(1.00, 0.00, -0.00, -1.00, 289.8, 162.0)">c</text><text xml:space="preserve" font-family="GillSans-Light" font-size="36.0" fill="#525252" transform="matrix(1.00, 0.00, -0.00, -1.00, 304.8, 162.0)"> </text><text xml:space="preserve" font-family="GillSans-Light" font-size="36.0" fill="#525252" transform="matrix(1.00, 0.00, -0.00, -1.00, 314.8, 162.0)">p</text><text xml:space="preserve" font-family="GillSans-Light" font-size="36.0" fill="#525252" transform="matrix(1.00, 0.00, -0.00, -1.00, 333.1, 162.0)">a</text><text xml:space="preserve" font-family="GillSans-Light" font-size="36.0" fill="#525252" transform="matrix(1.00, 0.00, -0.00, -1.00, 348.5, 162.0)">r</text><text xml:space="preserve" font-family="GillSans-Light" font-size="36.0" fill="#525252" transform="matrix(1.00, 0.00, -0.00, -1.00, 360.5, 162.0)">f</text><text xml:space="preserve" font-family="GillSans-Light" font-size="36.0" fill="#525252" transform="matrix(1.00, 0.00, -0.00, -1.00, 369.1, 162.0)">a</text><text xml:space="preserve" font-family="GillSans-Light" font-size="36.0" fill="#525252" transform="matrix(1.00, 0.00, -0.00, -1.00, 384.5, 162.0)">i</text><text xml:space="preserve" font-family="GillSans-Light" font-size="36.0" fill="#525252" transform="matrix(1.00, 0.00, -0.00, -1.00, 391.3, 162.0)">t</text><text xml:space="preserve" font-family="GillSans-Light" font-size="36.0" fill="#525252" transform="matrix(1.00, 0.00, -0.00, -1.00, 402.1, 162.0)">e</text><text xml:space="preserve" font-family="GillSans-Light" font-size="36.0" fill="#525252" transform="matrix(1.00, 0.00, -0.00, -1.00, 419.4, 162.0)">m</text><text xml:space="preserve" font-family="GillSans-Light" font-size="36.0" fill="#525252" transform="matrix(1.00, 0.00, -0.00, -1.00, 447.1, 162.0)">e</text><text xml:space="preserve" font-family="GillSans-Light" font-size="36.0" fill="#525252" transform="matrix(1.00, 0.00, -0.00, -1.00, 464.4, 162.0)">n</text><text xml:space="preserve" font-family="GillSans-Light" font-size="36.0" fill="#525252" transform="matrix(1.00, 0.00, -0.00, -1.00, 482.0, 162.0)">t</text><text xml:space="preserve" font-family="GillSans-Light" font-size="36.0" fill="#525252" transform="matrix(1.00, 0.00, -0.00, -1.00, 492.9, 162.0)"> </text><text xml:space="preserve" font-family="GillSans-LightItalic" font-style="italic" font-size="36.0" fill="#525252" transform="matrix(1.00, 0.00, -0.00, -1.00, 502.9, 162.0)">a</text><text xml:space="preserve" font-family="GillSans-LightItalic" font-style="italic" font-size="36.0" fill="#525252" transform="matrix(1.00, 0.00, -0.00, -1.00, 520.2, 162.0)">d</text><text xml:space="preserve" font-family="GillSans-LightItalic" font-style="italic" font-size="36.0" fill="#525252" transform="matrix(1.00, 0.00, -0.00, -1.00, 537.1, 162.0)">a</text><text xml:space="preserve" font-family="GillSans-LightItalic" font-style="italic" font-size="36.0" fill="#525252" transform="matrix(1.00, 0.00, -0.00, -1.00, 554.3, 162.0)">p</text><text xml:space="preserve" font-family="GillSans-LightItalic" font-style="italic" font-size="36.0" fill="#525252" transform="matrix(1.00, 0.00, -0.00, -1.00, 572.3, 162.0)">t</text><text xml:space="preserve" font-family="GillSans-LightItalic" font-style="italic" font-size="36.0" fill="#525252" transform="matrix(1.00, 0.00, -0.00, -1.00, 582.4, 162.0)">é</text><text xml:space="preserve" font-family="GillSans-Light" font-size="36.0" fill="#525252" transform="matrix(1.00, 0.00, -0.00, -1.00, 598.5, 162.0)"> </text><text xml:space="preserve" font-family="GillSans-Light" font-size="36.0" fill="#525252" transform="matrix(1.00, 0.00, -0.00, -1.00, 608.5, 162.0)">p</text><text xml:space="preserve" font-family="GillSans-Light" font-size="36.0" fill="#525252" transform="matrix(1.00, 0.00, -0.00, -1.00, 626.9, 162.0)">o</text><text xml:space="preserve" font-family="GillSans-Light" font-size="36.0" fill="#525252" transform="matrix(1.00, 0.00, -0.00, -1.00, 646.4, 162.0)">u</text><text xml:space="preserve" font-family="GillSans-Light" font-size="36.0" fill="#525252" transform="matrix(1.00, 0.00, -0.00, -1.00, 664.0, 162.0)">r</text><text xml:space="preserve" font-family="GillSans-Light" font-size="36.0" fill="#525252" transform="matrix(1.00, 0.00, -0.00, -1.00, 676.0, 162.0)"> </text><text xml:space="preserve" font-family="GillSans-Light" font-size="36.0" fill="#525252" transform="matrix(1.00, 0.00, -0.00, -1.00, 686.0, 162.0)">n</text><text xml:space="preserve" font-family="GillSans-Light" font-size="36.0" fill="#525252" transform="matrix(1.00, 0.00, -0.00, -1.00, 703.7, 162.0)">o</text><text xml:space="preserve" font-family="GillSans-Light" font-size="36.0" fill="#525252" transform="matrix(1.00, 0.00, -0.00, -1.00, 723.2, 162.0)">t</text><text xml:space="preserve" font-family="GillSans-Light" font-size="36.0" fill="#525252" transform="matrix(1.00, 0.00, -0.00, -1.00, 734.1, 162.0)">r</text><text xml:space="preserve" font-family="GillSans-Light" font-size="36.0" fill="#525252" transform="matrix(1.00, 0.00, -0.00, -1.00, 746.0, 162.0)">e</text><text xml:space="preserve" font-family="GillSans-Light" font-size="36.0" fill="#525252" transform="matrix(1.00, 0.00, -0.00, -1.00, 763.3, 162.0)"> </text><text xml:space="preserve" font-family="GillSans-Light" font-size="36.0" fill="#525252" transform="matrix(1.00, 0.00, -0.00, -1.00, 773.3, 162.0)">p</text><text xml:space="preserve" font-family="GillSans-Light" font-size="36.0" fill="#525252" transform="matrix(1.00, 0.00, -0.00, -1.00, 791.6, 162.0)">r</text><text xml:space="preserve" font-family="GillSans-Light" font-size="36.0" fill="#525252" transform="matrix(1.00, 0.00, -0.00, -1.00, 803.6, 162.0)">o</text><text xml:space="preserve" font-family="GillSans-Light" font-size="36.0" fill="#525252" transform="matrix(1.00, 0.00, -0.00, -1.00, 823.1, 162.0)">j</text><text xml:space="preserve" font-family="GillSans-Light" font-size="36.0" fill="#525252" transform="matrix(1.00, 0.00, -0.00, -1.00, 829.9, 162.0)">e</text><text xml:space="preserve" font-family="GillSans-Light" font-size="36.0" fill="#525252" transform="matrix(1.00, 0.00, -0.00, -1.00, 847.1, 162.0)">t</text><path d="M 382.4 39.1 L 478.0 39.1 " fill="none" stroke="#525252" stroke-width="1.79" stroke-miterlimit="0.00" transform="matrix(1.00, 0.00, 0.00, -1.00, 121.0, 198.2)"></path></g></g><text xml:space="preserve" font-family="GillSans-Light" font-size="18.0" fill="#525252" transform="matrix(1.00, 0.00, -0.00, -1.00, 507.0, 18.0)">7</text></g></svg>